<svg width="16" height="16" viewBox="0 0 16 16" fill="none" xmlns="http://www.w3.org/2000/svg">
<path d="M8.00065 15.1667C4.04732 15.1667 0.833984 11.9533 0.833984 8.00001C0.833984 4.04668 4.04732 0.833344 8.00065 0.833344C11.954 0.833344 15.1673 4.04668 15.1673 8.00001C15.1673 11.9533 11.954 15.1667 8.00065 15.1667ZM8.00065 1.83334C4.60065 1.83334 1.83398 4.60001 1.83398 8.00001C1.83398 11.4 4.60065 14.1667 8.00065 14.1667C11.4007 14.1667 14.1673 11.4 14.1673 8.00001C14.1673 4.60001 11.4007 1.83334 8.00065 1.83334Z" fill="#0771DE"/>
<path d="M10.6663 8.5H5.33301C5.05967 8.5 4.83301 8.27333 4.83301 8C4.83301 7.72667 5.05967 7.5 5.33301 7.5H10.6663C10.9397 7.5 11.1663 7.72667 11.1663 8C11.1663 8.27333 10.9397 8.5 10.6663 8.5Z" fill="#0771DE"/>
<path d="M8 11.1667C7.72667 11.1667 7.5 10.94 7.5 10.6667V5.33334C7.5 5.06001 7.72667 4.83334 8 4.83334C8.27333 4.83334 8.5 5.06001 8.5 5.33334V10.6667C8.5 10.94 8.27333 11.1667 8 11.1667Z" fill="#0771DE"/>
</svg>
