<svg width="16" height="15" viewBox="0 0 16 15" fill="none" xmlns="http://www.w3.org/2000/svg">
<path d="M10.7633 13.75H5.52578C3.25078 13.75 1.89453 12.3937 1.89453 10.1187V4.8875C1.89453 2.60625 3.25078 1.25 5.52578 1.25H10.757C13.032 1.25 14.3883 2.60625 14.3883 4.88125V10.1187C14.3945 12.3937 13.0383 13.75 10.7633 13.75ZM11.157 8.2375C10.9758 8.05625 10.6758 8.05625 10.4945 8.2375L8.61328 10.1187V3.75C8.61328 3.49375 8.40078 3.28125 8.14453 3.28125C7.88828 3.28125 7.67578 3.49375 7.67578 3.75V10.1187L5.79453 8.2375C5.61328 8.05625 5.31328 8.05625 5.13203 8.2375C5.03828 8.33125 4.99453 8.45 4.99453 8.56875C4.99453 8.6875 5.04453 8.8125 5.13203 8.9L7.81328 11.5812C7.90078 11.6688 8.01953 11.7187 8.14453 11.7187C8.26953 11.7187 8.38828 11.6688 8.47578 11.5812L11.157 8.9C11.3383 8.71875 11.3383 8.425 11.157 8.2375Z" fill="#F8B602"/>
</svg>
