<svg width="19" height="19" viewBox="0 0 19 19" fill="none" xmlns="http://www.w3.org/2000/svg">
<path d="M4.39266 4.95001C4.25016 4.95001 4.10016 4.8904 3.99516 4.78609C3.77766 4.57001 3.77766 4.21236 3.99516 3.99628L6.71766 1.29158C6.93516 1.0755 7.29516 1.0755 7.51266 1.29158C7.73016 1.50765 7.73016 1.8653 7.51266 2.08138L4.79016 4.78609C4.67766 4.8904 4.53516 4.95001 4.39266 4.95001Z" fill="#292D32"/>
<path d="M14.6073 4.95001C14.4648 4.95001 14.3223 4.89785 14.2098 4.78609L11.4873 2.08138C11.2698 1.8653 11.2698 1.50765 11.4873 1.29158C11.7048 1.0755 12.0648 1.0755 12.2823 1.29158L15.0048 3.99628C15.2223 4.21236 15.2223 4.57001 15.0048 4.78609C14.8998 4.8904 14.7498 4.95001 14.6073 4.95001Z" fill="#292D32"/>
<path d="M15.6575 8.09432C15.605 8.09432 15.5525 8.09432 15.5 8.09432H15.3275H3.5C2.975 8.10177 2.375 8.10177 1.94 7.66961C1.595 7.33432 1.4375 6.81275 1.4375 6.0453C1.4375 3.99628 2.945 3.99628 3.665 3.99628H15.335C16.055 3.99628 17.5625 3.99628 17.5625 6.0453C17.5625 6.8202 17.405 7.33432 17.06 7.66961C16.67 8.05706 16.145 8.09432 15.6575 8.09432ZM3.665 6.97667H15.5075C15.845 6.98412 16.16 6.98412 16.265 6.87981C16.3175 6.82765 16.43 6.64883 16.43 6.0453C16.43 5.20334 16.22 5.11392 15.3275 5.11392H3.665C2.7725 5.11392 2.5625 5.20334 2.5625 6.0453C2.5625 6.64883 2.6825 6.82765 2.7275 6.87981C2.8325 6.97667 3.155 6.97667 3.485 6.97667H3.665Z" fill="#292D32"/>
<path d="M7.82031 13.8316C7.51281 13.8316 7.25781 13.5783 7.25781 13.2728V10.6277C7.25781 10.3222 7.51281 10.0688 7.82031 10.0688C8.12781 10.0688 8.38281 10.3222 8.38281 10.6277V13.2728C8.38281 13.5857 8.12781 13.8316 7.82031 13.8316Z" fill="#292D32"/>
<path d="M11.2695 13.8316C10.962 13.8316 10.707 13.5783 10.707 13.2728V10.6277C10.707 10.3222 10.962 10.0688 11.2695 10.0688C11.577 10.0688 11.832 10.3222 11.832 10.6277V13.2728C11.832 13.5857 11.577 13.8316 11.2695 13.8316Z" fill="#292D32"/>
<path d="M11.6671 17.1473H7.14457C4.45957 17.1473 3.85957 15.5602 3.62707 14.1818L2.56957 7.73667C2.51707 7.43118 2.72707 7.14804 3.03457 7.09589C3.34207 7.04373 3.62707 7.25236 3.67957 7.55785L4.73707 13.9955C4.95457 15.3143 5.40457 16.0296 7.14457 16.0296H11.6671C13.5946 16.0296 13.8121 15.359 14.0596 14.0626L15.3196 7.54294C15.3796 7.23745 15.6721 7.03628 15.9796 7.10334C16.2871 7.16295 16.4821 7.45353 16.4221 7.75902L15.1621 14.2786C14.8696 15.7912 14.3821 17.1473 11.6671 17.1473Z" fill="#292D32"/>
</svg>
