<svg width="207" height="38" viewBox="0 0 207 38" fill="none" xmlns="http://www.w3.org/2000/svg">
<rect width="207" height="38" rx="3.75" fill="white"/>
<path d="M131.028 16.5676C131.188 16.5676 131.324 16.6276 131.436 16.7476C131.556 16.8596 131.616 16.9996 131.616 17.1676C131.616 17.3276 131.556 17.4676 131.436 17.5876C131.324 17.6996 131.188 17.7556 131.028 17.7556C130.86 17.7556 130.72 17.6996 130.608 17.5876C130.496 17.4676 130.44 17.3276 130.44 17.1676C130.44 16.9996 130.496 16.8596 130.608 16.7476C130.72 16.6276 130.86 16.5676 131.028 16.5676ZM132.48 16.5676C132.648 16.5676 132.788 16.6276 132.9 16.7476C133.02 16.8596 133.08 16.9996 133.08 17.1676C133.08 17.3276 133.02 17.4676 132.9 17.5876C132.788 17.6996 132.648 17.7556 132.48 17.7556C132.32 17.7556 132.18 17.6996 132.06 17.5876C131.948 17.4676 131.892 17.3276 131.892 17.1676C131.892 16.9996 131.948 16.8596 132.06 16.7476C132.18 16.6276 132.32 16.5676 132.48 16.5676ZM136.656 16.8916V21.2716C136.656 21.5596 136.568 21.8076 136.392 22.0156C136.168 22.2796 135.896 22.4116 135.576 22.4116H128.712C128.248 22.4116 127.848 22.2596 127.512 21.9556C127.056 21.5636 126.828 21.0556 126.828 20.4316V18.1756L127.344 17.7556H127.848V20.4316C127.848 20.7436 127.96 21.0076 128.184 21.2236C128.4 21.4476 128.672 21.5596 129 21.5596H135.18C135.484 21.5596 135.636 21.4076 135.636 21.1036V16.8916H136.656ZM139.332 13.8196V21.1036C139.332 21.2316 139.372 21.3396 139.452 21.4276C139.54 21.5156 139.652 21.5596 139.788 21.5596H139.944V22.4116H139.392C139.136 22.4116 138.912 22.3276 138.72 22.1596C138.448 21.9276 138.312 21.6316 138.312 21.2716V13.8196H139.332ZM141.458 17.0956C142.194 16.8636 142.882 16.7476 143.522 16.7476C144.514 16.7476 145.27 17.0556 145.79 17.6716C146.238 18.1996 146.462 18.8916 146.462 19.7476V21.2716C146.462 21.3676 146.45 21.4636 146.426 21.5596H146.846V22.4116H146.594L146.258 21.9916H146.222C145.998 22.2716 145.718 22.4116 145.382 22.4116H139.862V21.5596H144.986C145.29 21.5596 145.442 21.4076 145.442 21.1036V19.7116C145.442 19.0876 145.278 18.5956 144.95 18.2356C144.59 17.8356 144.066 17.6356 143.378 17.6356C142.962 17.6356 142.322 17.7236 141.458 17.8996V17.0956ZM142.886 23.6596C143.054 23.6596 143.194 23.7156 143.306 23.8276C143.426 23.9476 143.486 24.0876 143.486 24.2476C143.486 24.4156 143.426 24.5556 143.306 24.6676C143.194 24.7876 143.054 24.8476 142.886 24.8476C142.726 24.8476 142.586 24.7876 142.466 24.6676C142.354 24.5556 142.298 24.4156 142.298 24.2476C142.298 24.0876 142.354 23.9476 142.466 23.8276C142.586 23.7156 142.726 23.6596 142.886 23.6596ZM148.001 14.2516C148.169 14.2516 148.309 14.3116 148.421 14.4316C148.533 14.5436 148.589 14.6796 148.589 14.8396C148.589 15.0076 148.533 15.1516 148.421 15.2716C148.309 15.3836 148.169 15.4396 148.001 15.4396C147.841 15.4396 147.701 15.3836 147.581 15.2716C147.469 15.1516 147.413 15.0076 147.413 14.8396C147.413 14.6796 147.469 14.5436 147.581 14.4316C147.701 14.3116 147.841 14.2516 148.001 14.2516ZM149.465 14.2516C149.625 14.2516 149.761 14.3116 149.873 14.4316C149.993 14.5436 150.053 14.6796 150.053 14.8396C150.053 15.0076 149.993 15.1516 149.873 15.2716C149.761 15.3836 149.625 15.4396 149.465 15.4396C149.297 15.4396 149.153 15.3836 149.033 15.2716C148.921 15.1516 148.865 15.0076 148.865 14.8396C148.865 14.6796 148.921 14.5436 149.033 14.4316C149.153 14.3116 149.297 14.2516 149.465 14.2516ZM149.945 16.8916V21.2716C149.945 21.3676 149.933 21.4636 149.909 21.5596H150.545V22.4116H150.077L149.729 21.9916H149.693C149.477 22.2716 149.197 22.4116 148.853 22.4116H146.764V21.5596H148.469C148.597 21.5596 148.701 21.5196 148.781 21.4396C148.877 21.3516 148.925 21.2396 148.925 21.1036V16.8916H149.945ZM153.12 14.2516C153.288 14.2516 153.428 14.3116 153.54 14.4316C153.66 14.5436 153.72 14.6796 153.72 14.8396C153.72 15.0076 153.66 15.1516 153.54 15.2716C153.428 15.3836 153.288 15.4396 153.12 15.4396C152.96 15.4396 152.82 15.3836 152.7 15.2716C152.588 15.1516 152.532 15.0076 152.532 14.8396C152.532 14.6796 152.588 14.5436 152.7 14.4316C152.82 14.3116 152.96 14.2516 153.12 14.2516ZM153.636 16.8916V21.2716C153.636 21.3676 153.624 21.4636 153.6 21.5596H154.236V22.4116H153.768L153.42 21.9916H153.384C153.168 22.2716 152.888 22.4116 152.544 22.4116H150.456V21.5596H152.16C152.288 21.5596 152.392 21.5196 152.472 21.4396C152.568 21.3516 152.616 21.2396 152.616 21.1036V16.8916H153.636ZM156.511 21.5596C156.183 21.0236 156.019 20.4116 156.019 19.7236C156.019 18.7556 156.291 18.0076 156.835 17.4796C157.323 17.0156 157.967 16.7756 158.767 16.7596C159.343 16.7596 159.819 16.8836 160.195 17.1316C160.771 17.5156 161.059 18.1156 161.059 18.9316V21.1036C161.059 21.2156 161.087 21.3116 161.143 21.3916C161.215 21.4956 161.311 21.5516 161.431 21.5596H161.455V22.4116H161.155C160.795 22.4116 160.507 22.2716 160.291 21.9916C159.859 22.5116 159.311 22.7716 158.647 22.7716C157.951 22.7716 157.347 22.5116 156.835 21.9916H156.811L156.475 22.4116H154.147V21.5596H156.511ZM160.039 18.9316C160.039 18.5156 159.907 18.1836 159.643 17.9356C159.411 17.7196 159.111 17.6116 158.743 17.6116C158.231 17.6116 157.819 17.8036 157.507 18.1876C157.195 18.5636 157.039 19.0596 157.039 19.6756C157.039 20.3236 157.203 20.8636 157.531 21.2956C157.843 21.7116 158.235 21.9196 158.707 21.9196C159.171 21.9196 159.615 21.7076 160.039 21.2836V18.9316ZM164.534 13.8196V21.2716C164.534 21.5836 164.43 21.8476 164.222 22.0636C164.006 22.2956 163.746 22.4116 163.442 22.4116H161.354V21.5596H163.058C163.21 21.5596 163.326 21.5076 163.406 21.4036C163.478 21.3156 163.514 21.2156 163.514 21.1036V13.8196H164.534ZM167.211 13.8196V22.2916L166.695 22.7116H166.191V13.8196H167.211Z" fill="#83899F"/>
<path d="M187.5 19.5958C187.403 19.5958 187.305 19.5735 187.215 19.5213L180.593 15.7139C180.323 15.5574 180.232 15.2147 180.39 14.9464C180.547 14.6782 180.885 14.5888 181.162 14.7452L187.5 18.3888L193.8 14.7676C194.07 14.6111 194.415 14.708 194.572 14.9688C194.73 15.237 194.633 15.5798 194.37 15.7362L187.793 19.5213C187.695 19.566 187.598 19.5958 187.5 19.5958Z" fill="#292D32"/>
<path d="M187.5 26.3465C187.192 26.3465 186.938 26.0931 186.938 25.7876V19.0296C186.938 18.7241 187.192 18.4708 187.5 18.4708C187.808 18.4708 188.062 18.7241 188.062 19.0296V25.7876C188.062 26.0931 187.808 26.3465 187.5 26.3465Z" fill="#292D32"/>
<path d="M187.5 26.637C186.84 26.637 186.188 26.4954 185.67 26.2123L181.665 23.9994C180.578 23.4033 179.73 21.9653 179.73 20.7284V16.5186C179.73 15.2817 180.578 13.8512 181.665 13.2476L185.67 11.0421C186.698 10.4758 188.303 10.4758 189.33 11.0421L193.335 13.255C194.423 13.8511 195.27 15.2892 195.27 16.526V20.7359C195.27 21.9727 194.423 23.4033 193.335 24.0068L189.33 26.2123C188.813 26.4954 188.16 26.637 187.5 26.637ZM187.5 11.7351C187.028 11.7351 186.563 11.8319 186.218 12.0182L182.213 14.2311C181.493 14.6335 180.855 15.699 180.855 16.526V20.7359C180.855 21.5555 181.493 22.6284 182.213 23.0307L186.218 25.2437C186.9 25.6237 188.1 25.6237 188.783 25.2437L192.788 23.0307C193.508 22.6284 194.145 21.5629 194.145 20.7359V16.526C194.145 15.7064 193.508 14.6335 192.788 14.2311L188.783 12.0182C188.438 11.8319 187.973 11.7351 187.5 11.7351Z" fill="#292D32"/>
<path d="M191.25 20.11C190.942 20.11 190.687 19.8567 190.687 19.5512V17.152L183.847 13.2327C183.577 13.0763 183.487 12.7335 183.645 12.4727C183.802 12.2045 184.14 12.1151 184.41 12.2715L191.527 16.3547C191.7 16.4516 191.812 16.6378 191.812 16.839V19.5661C191.812 19.8567 191.557 20.11 191.25 20.11Z" fill="#292D32"/>
</svg>
