<svg width="22" height="20" viewBox="0 0 22 20" fill="none" xmlns="http://www.w3.org/2000/svg">
<path d="M17.7533 5.78332C17.7533 6.23332 17.5026 6.64166 17.1049 6.84999L15.6005 7.63332L14.3209 8.29166L11.6667 9.67499C11.3813 9.82499 11.0701 9.89999 10.7502 9.89999C10.4303 9.89999 10.119 9.82499 9.83374 9.67499L4.39551 6.84999C3.9978 6.64166 3.74707 6.23332 3.74707 5.78332C3.74707 5.33332 3.9978 4.92499 4.39551 4.71666L6.09874 3.83332L7.45613 3.12499L9.83374 1.89166C10.4044 1.59166 11.096 1.59166 11.6667 1.89166L17.1049 4.71666C17.5026 4.92499 17.7533 5.33332 17.7533 5.78332Z" fill="#FEEE00"/>
<path d="M8.93427 10.6583L3.87646 8.22499C3.4874 8.03333 3.03781 8.05833 2.66604 8.275C2.29427 8.49166 2.07812 8.87499 2.07812 9.29166V13.9C2.07812 14.7 2.53635 15.4167 3.2799 15.775L8.33771 18.2083C8.51062 18.2917 8.70083 18.3333 8.89104 18.3333C9.11583 18.3333 9.34062 18.275 9.53948 18.15C9.91125 17.9333 10.1274 17.55 10.1274 17.1333V12.525C10.136 11.7333 9.67781 11.0167 8.93427 10.6583Z" fill="white"/>
<path d="M19.4222 9.29166V13.9C19.4222 14.6917 18.9639 15.4083 18.2204 15.7667L13.1626 18.2083C12.9897 18.2917 12.7995 18.3333 12.6093 18.3333C12.3845 18.3333 12.1597 18.275 11.9522 18.15C11.589 17.9333 11.3643 17.55 11.3643 17.1333V12.5333C11.3643 11.7333 11.8225 11.0167 12.566 10.6583L14.4249 9.76666L15.7218 9.14166L17.6238 8.22499C18.0129 8.03333 18.4625 8.04999 18.8343 8.27499C19.1974 8.49166 19.4222 8.87499 19.4222 9.29166Z" fill="white"/>
<path d="M15.6004 7.63333L14.3208 8.29167L6.09863 3.83333L7.45603 3.125L15.3929 7.44167C15.4794 7.49167 15.5485 7.55833 15.6004 7.63333Z" fill="#FEEE00"/>
<path d="M15.7217 9.14166V11.0333C15.7217 11.375 15.4277 11.6583 15.0732 11.6583C14.7188 11.6583 14.4248 11.375 14.4248 11.0333V9.76666L15.7217 9.14166Z" fill="white"/>
</svg>
