<svg width="22" height="20" viewBox="0 0 22 20" fill="none" xmlns="http://www.w3.org/2000/svg">
<path d="M7.88281 4.79166C7.52833 4.79166 7.23438 4.50832 7.23438 4.16666V1.66666C7.23438 1.32499 7.52833 1.04166 7.88281 1.04166C8.23729 1.04166 8.53125 1.32499 8.53125 1.66666V4.16666C8.53125 4.50832 8.23729 4.79166 7.88281 4.79166Z" fill="white"/>
<path d="M14.3672 4.79166C14.0127 4.79166 13.7188 4.50832 13.7188 4.16666V1.66666C13.7188 1.32499 14.0127 1.04166 14.3672 1.04166C14.7217 1.04166 15.0156 1.32499 15.0156 1.66666V4.16666C15.0156 4.50832 14.7217 4.79166 14.3672 4.79166Z" fill="white"/>
<path d="M11.1248 11.7417C11.5744 11.7417 11.9029 11.4833 11.9029 11.075C11.9029 10.6583 11.5744 10.4167 11.1248 10.4167C10.6752 10.4167 10.3467 10.6583 10.3467 11.075C10.3467 11.4833 10.6752 11.7417 11.1248 11.7417Z" fill="white"/>
<path d="M11.1253 14.1667C11.6696 14.1667 12.1109 13.8197 12.1109 13.3917C12.1109 12.9636 11.6696 12.6167 11.1253 12.6167C10.5809 12.6167 10.1396 12.9636 10.1396 13.3917C10.1396 13.8197 10.5809 14.1667 11.1253 14.1667Z" fill="white"/>
<path d="M17.6696 3.74999C17.0989 3.34166 16.2776 3.73332 16.2776 4.42499V4.50832C16.2776 5.48332 15.5513 6.38332 14.5398 6.48332C13.3726 6.59999 12.387 5.71666 12.387 4.61666V3.74999C12.387 3.29166 11.9979 2.91666 11.5224 2.91666H10.727C10.2514 2.91666 9.86238 3.29166 9.86238 3.74999V4.61666C9.86238 5.27499 9.5079 5.85832 8.97186 6.18332C8.89405 6.23332 8.80759 6.27499 8.72113 6.31666C8.64332 6.35832 8.55686 6.39166 8.46176 6.41666C8.35801 6.44999 8.24561 6.47499 8.12457 6.48332C7.98624 6.49999 7.8479 6.49999 7.70957 6.48332C7.58853 6.47499 7.47613 6.44999 7.37238 6.41666C7.28592 6.39166 7.19947 6.35832 7.11301 6.31666C7.02655 6.27499 6.94009 6.23332 6.86228 6.18332C6.31759 5.81666 5.97176 5.18332 5.97176 4.50832V4.42499C5.97176 3.78332 5.2628 3.39999 4.70082 3.67499C4.69217 3.68332 4.68353 3.68332 4.67488 3.69166C4.6403 3.70832 4.61436 3.72499 4.57978 3.74999C4.55384 3.77499 4.51926 3.79166 4.49332 3.81666C4.25124 3.99999 4.03509 4.20832 3.85353 4.43332C3.75842 4.53332 3.68061 4.64166 3.61145 4.74999C3.6028 4.75832 3.59415 4.76666 3.58551 4.78332C3.5077 4.89166 3.43853 5.01666 3.37801 5.13332C3.36072 5.14999 3.35207 5.15832 3.35207 5.17499C3.3002 5.27499 3.24832 5.37499 3.21374 5.48332C3.1878 5.52499 3.17915 5.55832 3.16186 5.59999C3.10999 5.72499 3.0754 5.84999 3.04082 5.97499C3.00624 6.09166 2.9803 6.21666 2.96301 6.34166C2.94572 6.43332 2.93707 6.52499 2.92842 6.62499C2.91978 6.74166 2.91113 6.85832 2.91113 6.97499V14.275C2.91113 16.5167 4.79592 18.3333 7.12165 18.3333H15.1277C17.4534 18.3333 19.3382 16.5167 19.3382 14.275V6.97499C19.3382 5.64999 18.6811 4.49166 17.6696 3.74999ZM11.1247 15.2083C9.78457 15.2083 8.96322 14.5667 8.96322 13.5333C8.96322 12.9667 9.26582 12.475 9.79322 12.1833C9.4128 11.925 9.16207 11.5417 9.16207 11.0167C9.16207 9.93332 10.0612 9.37499 11.1247 9.37499C12.1881 9.37499 13.0786 9.93332 13.0786 11.0167C13.0786 11.5417 12.8365 11.925 12.4475 12.1833C12.9835 12.475 13.2861 12.9667 13.2861 13.5333C13.2861 14.5667 12.4561 15.2083 11.1247 15.2083Z" fill="white"/>
</svg>
