<svg width="107" height="62" viewBox="0 0 107 62" fill="none" xmlns="http://www.w3.org/2000/svg">
<path d="M97.9702 5.12207V1.79905H97.433V1.0846H98.7677V5.12207H97.9702ZM99.6888 1.07353H102.192V1.75474H100.398V2.70181C100.547 2.51904 100.852 2.37504 101.19 2.37504C102.131 2.37504 102.452 3.08395 102.452 3.70979C102.452 4.535 101.976 5.12207 101.057 5.12207C100.187 5.12207 99.6888 4.64023 99.6223 3.98117H100.376C100.442 4.26362 100.669 4.46854 101.046 4.46854C101.5 4.46854 101.705 4.14732 101.705 3.72086C101.705 3.26672 101.478 3.01749 101.04 3.01749C100.719 3.01749 100.514 3.19472 100.431 3.44395H99.6888V1.07353ZM105.258 5.12207L103.851 3.39964V5.12207H103.076V1.25629H103.851V2.9898L105.258 1.25629H106.194L104.599 3.17257L106.238 5.12207H105.258Z" fill="#3F4254"/>
<path d="M97 10.8141C97 9.94016 97.7085 9.2317 98.5824 9.2317H105.418C106.292 9.2317 107 9.94016 107 10.8141V61.8659H97V10.8141Z" fill="#1DA8FF"/>
<path d="M79.8624 18.2805V14.9575H79.3252V14.243H80.6599V18.2805H79.8624ZM81.3262 18.2251V17.6491C82.24 16.8737 83.1982 16.1593 83.1982 15.4172C83.1982 15.0572 83.0375 14.8135 82.6554 14.8135C82.2843 14.8135 82.0794 15.0793 82.0739 15.5058H81.3207C81.3483 14.5809 81.941 14.1544 82.6665 14.1544C83.536 14.1544 83.9735 14.6695 83.9735 15.3728C83.9735 16.3088 83.0708 17.0399 82.4283 17.5827H84.0621V18.2251H81.3262ZM86.7661 18.2805L85.3593 16.5581V18.2805H84.584V14.4147H85.3593V16.1482L86.7661 14.4147H87.7021L86.107 16.331L87.7464 18.2805H86.7661Z" fill="#3F4254"/>
<path d="M79 23.9728C79 23.0989 79.7085 22.3905 80.5824 22.3905H87.4176C88.2915 22.3905 89 23.0989 89 23.9728V61.8661H79V23.9728Z" fill="#FABE7A"/>
<path d="M62.1623 28.4024V25.0794H61.625V24.365H62.9598V28.4024H62.1623ZM63.6704 26.3311C63.6704 25.1625 64.0248 24.2874 65.1657 24.2874C66.3066 24.2874 66.6611 25.1625 66.6611 26.3311C66.6611 27.5108 66.3066 28.3914 65.1657 28.3914C64.0248 28.3914 63.6704 27.5108 63.6704 26.3311ZM65.8968 26.3311C65.8968 25.6388 65.8193 25.0074 65.1657 25.0074C64.5122 25.0074 64.4347 25.6388 64.4347 26.3311C64.4347 27.0511 64.5122 27.6714 65.1657 27.6714C65.8193 27.6714 65.8968 27.0511 65.8968 26.3311ZM69.4662 28.4024L68.0594 26.68V28.4024H67.2841V24.5367H68.0594V26.2702L69.4662 24.5367H70.4022L68.8071 26.4529L70.4465 28.4024H69.4662Z" fill="#3F4254"/>
<path d="M61 34.0947C61 33.2207 61.7085 32.5123 62.5824 32.5123H69.4176C70.2915 32.5123 71 33.2207 71 34.0947V61.8659H61V34.0947Z" fill="#7661E2"/>
<path d="M19.2155 39.4901C19.2155 38.3215 19.57 37.4464 20.7109 37.4464C21.8518 37.4464 22.2062 38.3215 22.2062 39.4901C22.2062 40.6697 21.8518 41.5503 20.7109 41.5503C19.57 41.5503 19.2155 40.6697 19.2155 39.4901ZM21.4419 39.4901C21.4419 38.7978 21.3644 38.1664 20.7109 38.1664C20.0573 38.1664 19.9798 38.7978 19.9798 39.4901C19.9798 40.21 20.0573 40.8303 20.7109 40.8303C21.3644 40.8303 21.4419 40.21 21.4419 39.4901ZM23.6433 41.146C23.6433 41.4008 23.444 41.6002 23.1726 41.6002C22.8901 41.6002 22.6907 41.4008 22.6907 41.146C22.6907 40.8913 22.8901 40.6919 23.1726 40.6919C23.444 40.6919 23.6433 40.8913 23.6433 41.146ZM24.3343 37.5129H26.8377V38.1941H25.0433V39.1411C25.1928 38.9584 25.4974 38.8144 25.8352 38.8144C26.7768 38.8144 27.098 39.5233 27.098 40.1491C27.098 40.9743 26.6217 41.5614 25.7023 41.5614C24.8328 41.5614 24.3343 41.0796 24.2679 40.4205H25.0211C25.0876 40.703 25.3146 40.9079 25.6912 40.9079C26.1454 40.9079 26.3503 40.5866 26.3503 40.1602C26.3503 39.706 26.1232 39.4568 25.6857 39.4568C25.3645 39.4568 25.1596 39.6341 25.0765 39.8833H24.3343V37.5129ZM29.9035 41.5614L28.4967 39.839V41.5614H27.7214V37.6956H28.4967V39.4291L29.9035 37.6956H30.8395L29.2444 39.6119L30.8838 41.5614H29.9035Z" fill="#3F4254"/>
<path d="M29.4668 49.2779C29.4668 48.404 28.7583 47.6955 27.8844 47.6955H21.0492C20.1753 47.6955 19.4668 48.404 19.4668 49.2779V61.8663H29.4668V49.2779Z" fill="#BEA3FF"/>
<path d="M0.759529 34.4287C0.759529 33.2601 1.11398 32.385 2.25489 32.385C3.39579 32.385 3.75025 33.2601 3.75025 34.4287C3.75025 35.6083 3.39579 36.4889 2.25489 36.4889C1.11398 36.4889 0.759529 35.6083 0.759529 34.4287ZM2.98595 34.4287C2.98595 33.7364 2.90841 33.105 2.25489 33.105C1.60136 33.105 1.52382 33.7364 1.52382 34.4287C1.52382 35.1486 1.60136 35.7689 2.25489 35.7689C2.90841 35.7689 2.98595 35.1486 2.98595 34.4287ZM5.18736 36.0846C5.18736 36.3394 4.98798 36.5388 4.7166 36.5388C4.43415 36.5388 4.23477 36.3394 4.23477 36.0846C4.23477 35.8299 4.43415 35.6305 4.7166 35.6305C4.98798 35.6305 5.18736 35.8299 5.18736 36.0846ZM8.48139 33.4705H7.76141C7.68941 33.1714 7.52879 33.0053 7.17988 33.0053C6.67589 33.0053 6.44327 33.3819 6.4322 34.3123C6.61496 34.0077 6.9805 33.8416 7.37372 33.8416C8.09371 33.8416 8.5977 34.3179 8.5977 35.1597C8.5977 35.9406 8.11586 36.5111 7.25188 36.5111C6.05559 36.5111 5.75652 35.6692 5.75652 34.4176C5.75652 33.0994 6.18297 32.3684 7.20757 32.3684C8.03279 32.3684 8.42047 32.9001 8.48139 33.4705ZM7.19649 34.4785C6.8365 34.4785 6.5042 34.689 6.5042 35.1486C6.5042 35.5806 6.75896 35.852 7.21311 35.852C7.61187 35.852 7.8611 35.5917 7.8611 35.1763C7.8611 34.761 7.6451 34.4785 7.19649 34.4785ZM11.4259 36.5L10.0191 34.7776V36.5H9.24374V32.6342H10.0191V34.3677L11.4259 32.6342H12.3618L10.7668 34.5505L12.4061 36.5H11.4259Z" fill="#3F4254"/>
<path d="M0.733398 43.2043C0.733398 42.3304 1.44186 41.6219 2.31579 41.6219H10.151C11.0249 41.6219 11.7334 42.3304 11.7334 43.2043V61.8659H0.733398V43.2043Z" fill="#FFA4A9"/>
<path d="M37.3743 43.5388C37.3743 42.3702 37.7288 41.4951 38.8697 41.4951C40.0106 41.4951 40.365 42.3702 40.365 43.5388C40.365 44.7185 40.0106 45.5991 38.8697 45.5991C37.7288 45.5991 37.3743 44.7185 37.3743 43.5388ZM39.6007 43.5388C39.6007 42.8465 39.5232 42.2151 38.8697 42.2151C38.2161 42.2151 38.1386 42.8465 38.1386 43.5388C38.1386 44.2588 38.2161 44.8791 38.8697 44.8791C39.5232 44.8791 39.6007 44.2588 39.6007 43.5388ZM41.8021 45.1948C41.8021 45.4495 41.6028 45.6489 41.3314 45.6489C41.0489 45.6489 40.8495 45.4495 40.8495 45.1948C40.8495 44.94 41.0489 44.7406 41.3314 44.7406C41.6028 44.7406 41.8021 44.94 41.8021 45.1948ZM42.2384 45.5548V44.9788C43.1522 44.2034 44.1103 43.4889 44.1103 42.7468C44.1103 42.3868 43.9497 42.1431 43.5676 42.1431C43.1965 42.1431 42.9916 42.409 42.9861 42.8354H42.2328C42.2605 41.9105 42.8531 41.4841 43.5787 41.4841C44.4482 41.4841 44.8857 41.9991 44.8857 42.7025C44.8857 43.6385 43.983 44.3695 43.3405 44.9123H44.9743V45.5548H42.2384ZM47.6783 45.6101L46.2715 43.8877V45.6101H45.4961V41.7444H46.2715V43.4779L47.6783 41.7444H48.6142L47.0192 43.6606L48.6586 45.6101H47.6783Z" fill="#3F4254"/>
<path d="M37.9336 53.3267C37.9336 52.4527 38.6421 51.7443 39.516 51.7443H46.3512C47.2251 51.7443 47.9336 52.4527 47.9336 53.3267V61.8662H37.9336V53.3267Z" fill="#FFE5B5"/>
<line x1="55.25" y1="0.12207" x2="55.25" y2="61.866" stroke="#99A1B7" stroke-opacity="0.3" stroke-width="0.5" stroke-dasharray="3 3"/>
</svg>
