<svg width="19" height="19" viewBox="0 0 19 19" fill="none" xmlns="http://www.w3.org/2000/svg">
<path d="M10.5501 13.6656H8.66762C7.43762 13.6656 6.44012 12.6374 6.44012 11.3707C6.44012 11.0652 6.69512 10.8119 7.00262 10.8119C7.31012 10.8119 7.56512 11.0652 7.56512 11.3707C7.56512 12.019 8.06012 12.548 8.66762 12.548H10.5501C11.0376 12.548 11.4426 12.1158 11.4426 11.5943C11.4426 10.946 11.2101 10.8194 10.8276 10.6852L7.80512 9.62721C7.22012 9.42603 6.43262 8.99387 6.43262 7.66015C6.43262 6.5127 7.34012 5.58878 8.45012 5.58878H10.3326C11.5626 5.58878 12.5601 6.61701 12.5601 7.88368C12.5601 8.18917 12.3051 8.4425 11.9976 8.4425C11.6901 8.4425 11.4351 8.18917 11.4351 7.88368C11.4351 7.23544 10.9401 6.70642 10.3326 6.70642H8.45012C7.96262 6.70642 7.55762 7.13858 7.55762 7.66015C7.55762 8.30838 7.79012 8.43505 8.17262 8.56917L11.1951 9.62721C11.7801 9.82838 12.5676 10.2605 12.5676 11.5943C12.5601 12.7343 11.6601 13.6656 10.5501 13.6656Z" fill="#292D32"/>
<path d="M9.5 14.6566C9.1925 14.6566 8.9375 14.4033 8.9375 14.0978V5.15663C8.9375 4.85114 9.1925 4.59781 9.5 4.59781C9.8075 4.59781 10.0625 4.85114 10.0625 5.15663V14.0978C10.0625 14.4033 9.8075 14.6566 9.5 14.6566Z" fill="#292D32"/>
<path d="M9.5 17.637C5.0525 17.637 1.4375 14.0456 1.4375 9.6272C1.4375 5.20877 5.0525 1.6174 9.5 1.6174C13.9475 1.6174 17.5625 5.20877 17.5625 9.6272C17.5625 14.0456 13.9475 17.637 9.5 17.637ZM9.5 2.73505C5.675 2.73505 2.5625 5.82721 2.5625 9.6272C2.5625 13.4272 5.675 16.5194 9.5 16.5194C13.325 16.5194 16.4375 13.4272 16.4375 9.6272C16.4375 5.82721 13.325 2.73505 9.5 2.73505Z" fill="#292D32"/>
</svg>
