<svg width="207" height="46" viewBox="0 0 207 46" fill="none" xmlns="http://www.w3.org/2000/svg">
<rect width="207" height="38" rx="3.75" fill="white"/>
<path d="M99.528 18.0579C99.688 18.0579 99.824 18.1179 99.936 18.2379C100.056 18.3499 100.116 18.4899 100.116 18.6579C100.116 18.8179 100.056 18.9579 99.936 19.0779C99.824 19.1899 99.688 19.2459 99.528 19.2459C99.36 19.2459 99.22 19.1899 99.108 19.0779C98.996 18.9579 98.94 18.8179 98.94 18.6579C98.94 18.4899 98.996 18.3499 99.108 18.2379C99.22 18.1179 99.36 18.0579 99.528 18.0579ZM100.98 18.0579C101.148 18.0579 101.288 18.1179 101.4 18.2379C101.52 18.3499 101.58 18.4899 101.58 18.6579C101.58 18.8179 101.52 18.9579 101.4 19.0779C101.288 19.1899 101.148 19.2459 100.98 19.2459C100.82 19.2459 100.68 19.1899 100.56 19.0779C100.448 18.9579 100.392 18.8179 100.392 18.6579C100.392 18.4899 100.448 18.3499 100.56 18.2379C100.68 18.1179 100.82 18.0579 100.98 18.0579ZM105.156 18.3819V22.7619C105.156 23.0499 105.068 23.2979 104.892 23.5059C104.668 23.7699 104.396 23.9019 104.076 23.9019H97.212C96.748 23.9019 96.348 23.7499 96.012 23.4459C95.556 23.0539 95.328 22.5459 95.328 21.9219V19.6659L95.844 19.2459H96.348V21.9219C96.348 22.2339 96.46 22.4979 96.684 22.7139C96.9 22.9379 97.172 23.0499 97.5 23.0499H103.68C103.984 23.0499 104.136 22.8979 104.136 22.5939V18.3819H105.156ZM107.832 15.3099V22.5939C107.832 22.7219 107.872 22.8299 107.952 22.9179C108.04 23.0059 108.152 23.0499 108.288 23.0499H108.444V23.9019H107.892C107.636 23.9019 107.412 23.8179 107.22 23.6499C106.948 23.4179 106.812 23.1219 106.812 22.7619V15.3099H107.832ZM111.542 18.3819V22.7619C111.542 23.0579 111.446 23.3139 111.254 23.5299C111.038 23.7779 110.77 23.9019 110.45 23.9019H108.362V23.0499H110.066C110.202 23.0499 110.314 23.0019 110.402 22.9059C110.482 22.8259 110.522 22.7219 110.522 22.5939V18.3819H111.542ZM110.726 25.1499C110.886 25.1499 111.022 25.2059 111.134 25.3179C111.254 25.4379 111.314 25.5779 111.314 25.7379C111.314 25.9059 111.254 26.0459 111.134 26.1579C111.022 26.2779 110.886 26.3379 110.726 26.3379C110.566 26.3379 110.426 26.2779 110.306 26.1579C110.194 26.0459 110.138 25.9059 110.138 25.7379C110.138 25.5779 110.194 25.4379 110.306 25.3179C110.426 25.2059 110.566 25.1499 110.726 25.1499ZM114.219 15.3099V22.5939C114.219 22.7219 114.259 22.8299 114.339 22.9179C114.427 23.0059 114.539 23.0499 114.675 23.0499H114.831V23.9019H114.279C114.023 23.9019 113.799 23.8179 113.607 23.6499C113.335 23.4179 113.199 23.1219 113.199 22.7619V15.3099H114.219ZM126.161 18.3819V22.7619C126.161 22.8659 126.149 22.9619 126.125 23.0499H126.773V23.9019H126.293L125.957 23.4819H125.921C125.697 23.7619 125.417 23.9019 125.081 23.9019H122.717L122.381 23.4819H122.345C122.121 23.7619 121.841 23.9019 121.505 23.9019H119.141L118.805 23.4819H118.769C118.545 23.7619 118.265 23.9019 117.929 23.9019H114.749V23.0499H117.533C117.837 23.0499 117.989 22.8979 117.989 22.5939V19.7619H119.009V22.7619C119.009 22.8659 119.001 22.9619 118.985 23.0499H121.109C121.413 23.0499 121.565 22.8979 121.565 22.5939V19.0659H122.585V22.7619C122.585 22.8659 122.573 22.9619 122.549 23.0499H124.685C124.989 23.0499 125.141 22.8979 125.141 22.5939V18.3819H126.161ZM128.275 18.5859C129.011 18.3539 129.699 18.2379 130.339 18.2379C131.331 18.2379 132.087 18.5459 132.607 19.1619C133.055 19.6899 133.279 20.3819 133.279 21.2379V22.7619C133.279 23.0339 133.195 23.2739 133.027 23.4819C132.819 23.7619 132.543 23.9019 132.199 23.9019H126.679V23.0499H131.803C132.107 23.0499 132.259 22.8979 132.259 22.5939V21.2019C132.259 20.5779 132.095 20.0859 131.767 19.7259C131.407 19.3259 130.883 19.1259 130.195 19.1259C129.779 19.1259 129.139 19.2139 128.275 19.3899V18.5859ZM96.396 44.5299C96.18 44.3779 95.996 44.1979 95.844 43.9899C95.492 43.4939 95.316 42.8659 95.316 42.1059C95.316 41.2259 95.572 40.5419 96.084 40.0539C96.54 39.6219 97.152 39.4059 97.92 39.4059C98.24 39.4059 98.58 39.4459 98.94 39.5259V40.3659C98.596 40.2859 98.292 40.2459 98.028 40.2459C96.908 40.2459 96.348 40.8859 96.348 42.1659C96.348 42.7259 96.488 43.1619 96.768 43.4739C97.056 43.7859 97.456 43.9419 97.968 43.9419C98.024 43.9419 98.084 43.9419 98.148 43.9419C98.964 43.8299 99.608 43.7739 100.08 43.7739C100.112 43.7739 100.152 43.7739 100.2 43.7739V44.1339L99.78 44.6499C99.1 44.6499 98.388 44.7619 97.644 44.9859C96.876 45.2179 96.196 45.5339 95.604 45.9339L95.16 45.2259C95.432 45.0259 95.844 44.7939 96.396 44.5299ZM107.629 36.3099V43.7619C107.629 43.8739 107.613 43.9699 107.581 44.0499H108.229V44.9019H107.761L107.413 44.4819H107.377C107.265 44.6179 107.137 44.7219 106.993 44.7939C106.849 44.8659 106.697 44.9019 106.537 44.9019H101.293L100.873 44.3859V44.0499H104.089L102.025 37.7859H103.045L105.121 44.0499H106.153C106.289 44.0499 106.401 44.0019 106.489 43.9059C106.561 43.8259 106.597 43.7219 106.597 43.5939V36.3099H107.629ZM110.492 44.0499C110.164 43.5139 110 42.9019 110 42.2139C110 41.2459 110.272 40.4979 110.816 39.9699C111.304 39.5059 111.948 39.2659 112.748 39.2499C113.324 39.2499 113.8 39.3739 114.176 39.6219C114.752 40.0059 115.04 40.6059 115.04 41.4219V43.5939C115.04 43.7059 115.068 43.8019 115.124 43.8819C115.196 43.9859 115.292 44.0419 115.412 44.0499H115.436V44.9019H115.136C114.776 44.9019 114.488 44.7619 114.272 44.4819C113.84 45.0019 113.292 45.2619 112.628 45.2619C111.932 45.2619 111.328 45.0019 110.816 44.4819H110.792L110.456 44.9019H108.128V44.0499H110.492ZM114.02 41.4219C114.02 41.0059 113.888 40.6739 113.624 40.4259C113.392 40.2099 113.092 40.1019 112.724 40.1019C112.212 40.1019 111.8 40.2939 111.488 40.6779C111.176 41.0539 111.02 41.5499 111.02 42.1659C111.02 42.8139 111.184 43.3539 111.512 43.7859C111.824 44.2019 112.216 44.4099 112.688 44.4099C113.152 44.4099 113.596 44.1979 114.02 43.7739V41.4219ZM117.003 41.3379C117.283 40.6339 117.751 40.0859 118.407 39.6939C118.935 39.3899 119.483 39.2379 120.051 39.2379C120.619 39.2379 121.163 39.3899 121.683 39.6939C122.347 40.0859 122.815 40.6339 123.087 41.3379L122.979 41.6259C122.427 41.8579 121.975 42.1739 121.623 42.5739C121.263 42.9899 121.035 43.4819 120.939 44.0499H123.207V44.9019H120.771C120.531 44.9019 120.299 44.7859 120.075 44.5539H120.039C119.823 44.7859 119.591 44.9019 119.343 44.9019H115.335V44.0499H119.163C119.075 43.5619 118.875 43.1019 118.563 42.6699C118.203 42.2219 117.723 41.8739 117.123 41.6259L117.003 41.3379ZM121.983 41.2179C121.719 40.8339 121.419 40.5459 121.083 40.3539C120.763 40.1859 120.419 40.1019 120.051 40.1019C119.683 40.1019 119.351 40.1779 119.055 40.3299C118.703 40.5059 118.391 40.8019 118.119 41.2179C118.535 41.4019 118.891 41.6619 119.187 41.9979C119.555 42.4139 119.835 42.9339 120.027 43.5579H120.063C120.263 42.9099 120.551 42.3779 120.927 41.9619C121.231 41.6419 121.583 41.3939 121.983 41.2179ZM126.308 36.3099V43.7619C126.308 44.0739 126.204 44.3379 125.996 44.5539C125.78 44.7859 125.52 44.9019 125.216 44.9019H123.128V44.0499H124.832C124.984 44.0499 125.1 43.9979 125.18 43.8939C125.252 43.8059 125.288 43.7059 125.288 43.5939V36.3099H126.308ZM128.985 36.3099V44.7819L128.469 45.2019H127.965V36.3099H128.985Z" fill="#9594A4"/>
<path d="M188.55 22.6656H186.668C185.438 22.6656 184.44 21.6374 184.44 20.3707C184.44 20.0652 184.695 19.8119 185.003 19.8119C185.31 19.8119 185.565 20.0652 185.565 20.3707C185.565 21.019 186.06 21.548 186.668 21.548H188.55C189.038 21.548 189.443 21.1158 189.443 20.5943C189.443 19.946 189.21 19.8194 188.828 19.6852L185.805 18.6272C185.22 18.426 184.433 17.9939 184.433 16.6601C184.433 15.5127 185.34 14.5888 186.45 14.5888H188.333C189.563 14.5888 190.56 15.617 190.56 16.8837C190.56 17.1892 190.305 17.4425 189.998 17.4425C189.69 17.4425 189.435 17.1892 189.435 16.8837C189.435 16.2354 188.94 15.7064 188.333 15.7064H186.45C185.963 15.7064 185.558 16.1386 185.558 16.6601C185.558 17.3084 185.79 17.4351 186.173 17.5692L189.195 18.6272C189.78 18.8284 190.568 19.2605 190.568 20.5943C190.56 21.7343 189.66 22.6656 188.55 22.6656Z" fill="#292D32"/>
<path d="M187.5 23.6566C187.192 23.6566 186.938 23.4033 186.938 23.0978V14.1566C186.938 13.8511 187.192 13.5978 187.5 13.5978C187.808 13.5978 188.062 13.8511 188.062 14.1566V23.0978C188.062 23.4033 187.808 23.6566 187.5 23.6566Z" fill="#292D32"/>
<path d="M187.5 26.637C183.053 26.637 179.438 23.0456 179.438 18.6272C179.438 14.2088 183.053 10.6174 187.5 10.6174C191.948 10.6174 195.562 14.2088 195.562 18.6272C195.562 23.0456 191.948 26.637 187.5 26.637ZM187.5 11.735C183.675 11.735 180.562 14.8272 180.562 18.6272C180.562 22.4272 183.675 25.5194 187.5 25.5194C191.325 25.5194 194.438 22.4272 194.438 18.6272C194.438 14.8272 191.325 11.735 187.5 11.735Z" fill="#292D32"/>
</svg>
