<svg width="12" height="12" viewBox="0 0 12 12" fill="none" xmlns="http://www.w3.org/2000/svg">
<path d="M7.5 11.3748H4.5C1.785 11.3748 0.625 10.2148 0.625 7.49976V4.49976C0.625 1.78476 1.785 0.624756 4.5 0.624756H5.5C5.705 0.624756 5.875 0.794756 5.875 0.999756C5.875 1.20476 5.705 1.37476 5.5 1.37476H4.5C2.195 1.37476 1.375 2.19476 1.375 4.49976V7.49976C1.375 9.80476 2.195 10.6248 4.5 10.6248H7.5C9.805 10.6248 10.625 9.80476 10.625 7.49976V6.49976C10.625 6.29476 10.795 6.12476 11 6.12476C11.205 6.12476 11.375 6.29476 11.375 6.49976V7.49976C11.375 10.2148 10.215 11.3748 7.5 11.3748Z" fill="#292D32"/>
<path d="M4.24967 8.84503C3.94467 8.84503 3.66467 8.73503 3.45967 8.53503C3.21467 8.29003 3.10967 7.93503 3.16467 7.56003L3.37967 6.05503C3.41967 5.76503 3.60967 5.39003 3.81467 5.18503L7.75467 1.24503C8.74967 0.250029 9.75967 0.250029 10.7547 1.24503C11.2997 1.79003 11.5447 2.34503 11.4947 2.90003C11.4497 3.35003 11.2097 3.79003 10.7547 4.24003L6.81467 8.18003C6.60967 8.38503 6.23467 8.57503 5.94467 8.61503L4.43967 8.83003C4.37467 8.84503 4.30967 8.84503 4.24967 8.84503ZM8.28467 1.77503L4.34467 5.71503C4.24967 5.81003 4.13967 6.03003 4.11967 6.16003L3.90467 7.66503C3.88467 7.81003 3.91467 7.93003 3.98967 8.00503C4.06467 8.08003 4.18467 8.11003 4.32967 8.09003L5.83467 7.87503C5.96467 7.85503 6.18967 7.74503 6.27967 7.65003L10.2197 3.71003C10.5447 3.38503 10.7147 3.09503 10.7397 2.82503C10.7697 2.50003 10.5997 2.15503 10.2197 1.77003C9.41967 0.970029 8.86967 1.19503 8.28467 1.77503Z" fill="#292D32"/>
<path d="M9.92478 4.91489C9.88978 4.91489 9.85478 4.90989 9.82478 4.89989C8.50978 4.52989 7.46478 3.48489 7.09478 2.16989C7.03978 1.96989 7.15478 1.76489 7.35478 1.70489C7.55478 1.64989 7.75978 1.76489 7.81478 1.96489C8.11478 3.02989 8.95978 3.87489 10.0248 4.17489C10.2248 4.22989 10.3398 4.43989 10.2848 4.63989C10.2398 4.80989 10.0898 4.91489 9.92478 4.91489Z" fill="#292D32"/>
</svg>
