<svg width="14" height="14" viewBox="0 0 14 14" fill="none" xmlns="http://www.w3.org/2000/svg">
<path d="M2.4675 6.56249H4.82417C5.99667 6.56249 6.5625 6.04332 6.5625 4.96999V2.32166C6.5625 1.24832 5.99083 0.729156 4.82417 0.729156H2.4675C1.295 0.729156 0.729167 1.24832 0.729167 2.32166V4.96416C0.729167 6.04332 1.30083 6.56249 2.4675 6.56249ZM4.82417 1.60416C5.60583 1.60416 5.6875 1.82582 5.6875 2.32166V4.96416C5.6875 5.46582 5.60583 5.68166 4.82417 5.68166H2.4675C1.68583 5.68166 1.60417 5.45999 1.60417 4.96416V2.32166C1.60417 1.81999 1.68583 1.60416 2.4675 1.60416H4.82417Z" fill="#83899F"/>
<path d="M2.4675 13.2708H4.82417C5.99667 13.2708 6.5625 12.6992 6.5625 11.5325V9.17583C6.5625 8.00333 5.99083 7.4375 4.82417 7.4375H2.4675C1.295 7.4375 0.729167 8.00917 0.729167 9.17583V11.5325C0.729167 12.6992 1.30083 13.2708 2.4675 13.2708ZM4.82417 8.3125C5.5125 8.3125 5.6875 8.4875 5.6875 9.17583V11.5325C5.6875 12.2208 5.5125 12.3958 4.82417 12.3958H2.4675C1.77917 12.3958 1.60417 12.2208 1.60417 11.5325V9.17583C1.60417 8.4875 1.77917 8.3125 2.4675 8.3125H4.82417Z" fill="#83899F"/>
<path d="M9.17551 6.56249H11.5322C12.7047 6.56249 13.2705 6.04332 13.2705 4.96999V2.32166C13.2705 1.24832 12.6988 0.729156 11.5322 0.729156H9.17551C8.00301 0.729156 7.43717 1.24832 7.43717 2.32166V4.96416C7.43717 6.04332 8.00884 6.56249 9.17551 6.56249ZM11.5322 1.60416C12.3138 1.60416 12.3955 1.82582 12.3955 2.32166V4.96416C12.3955 5.46582 12.3138 5.68166 11.5322 5.68166H9.17551C8.39384 5.68166 8.31217 5.45999 8.31217 4.96416V2.32166C8.31217 1.81999 8.39384 1.60416 9.17551 1.60416H11.5322Z" fill="#83899F"/>
<path d="M9.17551 13.2708H11.5322C12.7047 13.2708 13.2705 12.6992 13.2705 11.5325V9.17583C13.2705 8.00333 12.6988 7.4375 11.5322 7.4375H9.17551C8.00301 7.4375 7.43717 8.00917 7.43717 9.17583V11.5325C7.43717 12.6992 8.00884 13.2708 9.17551 13.2708ZM11.5322 8.3125C12.2205 8.3125 12.3955 8.4875 12.3955 9.17583V11.5325C12.3955 12.2208 12.2205 12.3958 11.5322 12.3958H9.17551C8.48717 12.3958 8.31217 12.2208 8.31217 11.5325V9.17583C8.31217 8.4875 8.48717 8.3125 9.17551 8.3125H11.5322Z" fill="#83899F"/>
</svg>
