<svg width="18" height="18" viewBox="0 0 18 18" fill="none" xmlns="http://www.w3.org/2000/svg">
<path opacity="0.5" d="M3.75 11.25C3.045 11.25 2.3925 11.4975 1.875 11.91C1.185 12.4575 0.75 13.305 0.75 14.25C0.75 15.9075 2.0925 17.25 3.75 17.25C4.5075 17.25 5.1975 16.965 5.73 16.5C6.3525 15.9525 6.75 15.15 6.75 14.25C6.75 12.5925 5.4075 11.25 3.75 11.25ZM4.5 14.4375C4.5 14.6325 4.395 14.82 4.23 14.9175L3.2925 15.48C3.2025 15.54 3.0975 15.5625 3 15.5625C2.8125 15.5625 2.625 15.465 2.52 15.2925C2.3625 15.0225 2.445 14.6775 2.715 14.52L3.3825 14.1225V13.3125C3.375 13.005 3.63 12.75 3.9375 12.75C4.245 12.75 4.5 13.005 4.5 13.3125V14.4375Z" fill="#0771DE"/>
<path d="M11.1375 2.96251V5.81251H10.0125V2.96251C10.0125 2.76001 9.8325 2.66251 9.7125 2.66251C9.675 2.66251 9.6375 2.67001 9.6 2.68501L3.6525 4.92751C3.255 5.07751 3 5.45251 3 5.88001V6.38251C2.3175 6.89251 1.875 7.71001 1.875 8.63251V5.88001C1.875 4.98751 2.4225 4.19251 3.255 3.87751L9.21 1.62751C9.375 1.56751 9.5475 1.53751 9.7125 1.53751C10.4625 1.53751 11.1375 2.14501 11.1375 2.96251Z" fill="#0771DE"/>
<path opacity="0.6" d="M16.1245 10.875V11.625C16.1245 11.8275 15.967 11.9925 15.757 12H14.662C14.2645 12 13.9045 11.7075 13.8745 11.3175C13.852 11.085 13.942 10.8675 14.092 10.7175C14.227 10.575 14.4145 10.5 14.617 10.5H15.7495C15.967 10.5075 16.1245 10.6725 16.1245 10.875Z" fill="#0771DE"/>
<path d="M14.61 9.7125H15.375C15.7875 9.7125 16.125 9.375 16.125 8.9625V8.6325C16.125 7.08 14.8575 5.8125 13.305 5.8125H4.695C4.0575 5.8125 3.4725 6.0225 3 6.3825C2.3175 6.8925 1.875 7.71 1.875 8.6325V9.9675C1.875 10.2525 2.175 10.4325 2.445 10.3425C2.865 10.2 3.3075 10.125 3.75 10.125C6.0225 10.125 7.875 11.9775 7.875 14.25C7.875 14.79 7.7325 15.3825 7.5075 15.9075C7.3875 16.1775 7.575 16.5 7.8675 16.5H13.305C14.8575 16.5 16.125 15.2325 16.125 13.68V13.5375C16.125 13.125 15.7875 12.7875 15.375 12.7875H14.7225C14.0025 12.7875 13.3125 12.345 13.125 11.6475C12.975 11.0775 13.155 10.5225 13.53 10.1625C13.8075 9.8775 14.19 9.7125 14.61 9.7125ZM10.5 9.5625H6.75C6.4425 9.5625 6.1875 9.3075 6.1875 9C6.1875 8.6925 6.4425 8.4375 6.75 8.4375H10.5C10.8075 8.4375 11.0625 8.6925 11.0625 9C11.0625 9.3075 10.8075 9.5625 10.5 9.5625Z" fill="#0771DE"/>
</svg>
