<svg width="39" height="46" viewBox="0 0 39 46" fill="none" xmlns="http://www.w3.org/2000/svg">
<path d="M20.8425 5.60768L35.9026 14.327C37.0287 14.979 37.6661 16.087 37.6661 17.3868V23.6813C36.2128 23.5875 34.734 23.5406 33.2339 23.5236C18.484 23.4128 5.83766 27.2355 0.496094 32.7798V17.3868C0.496094 16.087 1.13776 14.979 2.25962 14.327L17.3154 5.60768C18.4373 4.95565 19.7249 4.95565 20.8425 5.60768ZM37.6661 25.1217V34.8254C37.6661 36.1252 37.0287 37.2418 35.9026 37.8895L21.8964 45.9994C19.5507 43.7919 18.3056 41.2008 18.535 38.4393C19.062 32.1747 27.0382 26.9286 37.6661 25.1217Z" fill="#0771DE"/>
<path d="M9.16504 12.0899L9.90869 3.11065H13.4187L14.5066 15.2861L9.46675 12.3925L9.16504 12.0899Z" fill="#0771DE"/>
<path d="M9.89551 11.8215L10.5499 3.81817H12.7809L13.669 13.9907L9.89976 11.8215H9.89551Z" fill="white"/>
<path fill-rule="evenodd" clip-rule="evenodd" d="M30.565 16.1682V22.8377C24.7177 22.9783 18.7218 23.7411 13.1422 25.352C11.3659 25.8634 9.45794 26.5155 7.59668 27.3294V11.2673L14.8208 15.4182V11.2673L22.0406 15.4182V11.2673L30.565 16.1682ZM13.3632 19.292H10.3588V20.3361H13.3632V19.292ZM13.3632 17.6172H10.3588V18.657H13.3632V17.6172ZM20.583 19.292H17.5829V20.3361H20.583V19.292ZM20.583 17.6172H17.5829V18.6528H20.583V17.6172ZM27.8071 19.2963H24.8027V20.3404H27.8071V19.2963ZM27.8071 17.6172H24.8027V18.657H27.8071V17.6172Z" fill="white"/>
<path fill-rule="evenodd" clip-rule="evenodd" d="M26.5538 2.18602C24.8243 1.45728 22.0026 3.20881 19.9969 3.61367C18.5691 3.90346 17.0563 3.83954 15.8494 2.6548C19.8652 3.82675 22.9673 -0.780073 26.5538 2.18602ZM11.668 3.24717C12.9173 -0.618131 18.8963 1.88345 20.5153 -0.00019455C19.2915 3.98869 14.4004 0.643312 11.668 3.24717Z" fill="#0771DE"/>
<path d="M36.6335 24.313C37.3941 24.3173 38.1463 24.3429 38.8899 24.377C24.9942 25.6725 14.0434 32.082 13.3889 39.8978C13.2402 41.6664 13.6312 43.3668 14.481 44.9649L4.64355 39.2756C6.17336 30.7907 20.1838 24.1596 36.6335 24.313Z" fill="url(#paint0_linear_5_9883)"/>
<defs>
<linearGradient id="paint0_linear_5_9883" x1="52.0374" y1="20.0818" x2="53.3069" y2="73.4434" gradientUnits="userSpaceOnUse">
<stop stop-color="#FEEE00"/>
<stop offset="1" stop-color="#DFD109"/>
</linearGradient>
</defs>
</svg>
