<svg width="15" height="16" viewBox="0 0 15 16" fill="none" xmlns="http://www.w3.org/2000/svg">
<path d="M6.8375 14.9062C6.5375 14.9062 6.24375 14.8313 5.96875 14.6813C5.41875 14.375 5.0875 13.8187 5.0875 13.1937V9.88125C5.0875 9.56875 4.88125 9.1 4.6875 8.8625L2.35 6.3875C1.95625 5.99375 1.65625 5.31875 1.65625 4.8125V3.375C1.65625 2.375 2.4125 1.59375 3.375 1.59375H11.625C12.575 1.59375 13.3438 2.3625 13.3438 3.3125V4.6875C13.3438 5.34375 12.95 6.0875 12.5812 6.45625L9.875 8.85C9.6125 9.06875 9.40625 9.55 9.40625 9.9375V12.625C9.40625 13.1812 9.05625 13.825 8.61875 14.0875L7.75625 14.6437C7.475 14.8187 7.15625 14.9062 6.8375 14.9062ZM3.375 2.53125C2.9375 2.53125 2.59375 2.9 2.59375 3.375V4.8125C2.59375 5.04375 2.78125 5.49375 3.01875 5.73125L5.4 8.2375C5.71875 8.63125 6.03125 9.2875 6.03125 9.875V13.1875C6.03125 13.5937 6.3125 13.7937 6.43125 13.8562C6.69375 14 7.0125 14 7.25625 13.85L8.125 13.2937C8.3 13.1875 8.475 12.85 8.475 12.625V9.9375C8.475 9.26875 8.8 8.53125 9.26875 8.1375L11.9438 5.76875C12.1563 5.55625 12.4125 5.05 12.4125 4.68125V3.3125C12.4125 2.88125 12.0625 2.53125 11.6313 2.53125H3.375Z" fill="#83899F"/>
<path d="M3.74833 7.46873C3.66083 7.46873 3.57958 7.44373 3.49833 7.39998C3.27958 7.26248 3.21083 6.96873 3.34833 6.74998L6.42958 1.81248C6.56708 1.59373 6.85458 1.52498 7.07333 1.66248C7.29208 1.79998 7.36083 2.08748 7.22333 2.30623L4.14208 7.24373C4.05458 7.38748 3.90458 7.46873 3.74833 7.46873Z" fill="#83899F"/>
</svg>
