<svg width="19" height="19" viewBox="0 0 19 19" fill="none" xmlns="http://www.w3.org/2000/svg">
<path d="M11.75 17.6385H7.25C3.1775 17.6385 1.4375 15.9099 1.4375 11.864V7.39339C1.4375 3.34751 3.1775 1.61888 7.25 1.61888H11.75C15.8225 1.61888 17.5625 3.34751 17.5625 7.39339V11.864C17.5625 15.9099 15.8225 17.6385 11.75 17.6385ZM7.25 2.73653C3.7925 2.73653 2.5625 3.95849 2.5625 7.39339V11.864C2.5625 15.2989 3.7925 16.5208 7.25 16.5208H11.75C15.2075 16.5208 16.4375 15.2989 16.4375 11.864V7.39339C16.4375 3.95849 15.2075 2.73653 11.75 2.73653H7.25Z" fill="#1C1C28"/>
<path d="M9.5 17.6385C9.1925 17.6385 8.9375 17.3852 8.9375 17.0797V2.1777C8.9375 1.87221 9.1925 1.61888 9.5 1.61888C9.8075 1.61888 10.0625 1.87221 10.0625 2.1777V17.0797C10.0625 17.3852 9.8075 17.6385 9.5 17.6385Z" fill="#1C1C28"/>
<path d="M9.5 8.32475H2C1.6925 8.32475 1.4375 8.07142 1.4375 7.76593C1.4375 7.46044 1.6925 7.20711 2 7.20711H9.5C9.8075 7.20711 10.0625 7.46044 10.0625 7.76593C10.0625 8.07142 9.8075 8.32475 9.5 8.32475Z" fill="#1C1C28"/>
<path d="M17 12.0502H9.5C9.1925 12.0502 8.9375 11.7969 8.9375 11.4914C8.9375 11.1859 9.1925 10.9326 9.5 10.9326H17C17.3075 10.9326 17.5625 11.1859 17.5625 11.4914C17.5625 11.7969 17.3075 12.0502 17 12.0502Z" fill="#1C1C28" fill-opacity="0.8"/>
</svg>
