<svg width="22" height="20" viewBox="0 0 22 20" fill="none" xmlns="http://www.w3.org/2000/svg">
<path d="M18.6838 6.675L13.0208 2.30833C11.9141 1.45833 10.185 1.45 9.08694 2.3L3.42392 6.675C2.61122 7.3 2.1184 8.55 2.29132 9.53333L3.38069 15.8167C3.63142 17.225 4.98882 18.3333 6.46726 18.3333H15.6318C17.093 18.3333 18.4763 17.2 18.727 15.8083L19.8164 9.525C19.972 8.55 19.4792 7.3 18.6838 6.675ZM11.698 15C11.698 15.3417 11.404 15.625 11.0495 15.625C10.6951 15.625 10.4011 15.3417 10.4011 15V12.5C10.4011 12.1583 10.6951 11.875 11.0495 11.875C11.404 11.875 11.698 12.1583 11.698 12.5V15Z" fill="#FEEE00"/>
</svg>
