<svg width="147" height="101" viewBox="0 0 147 101" fill="none" xmlns="http://www.w3.org/2000/svg">
<path d="M24.0928 27.6176C24.0928 18.0814 32.3818 10.6624 41.8597 11.7155L113.143 19.6359C121.246 20.5362 127.376 27.3853 127.376 35.538V128.159C127.376 136.312 121.246 143.161 113.143 144.062L41.8597 151.982C32.3818 153.035 24.0928 145.616 24.0928 136.08V27.6176Z" fill="#D0E8FF"/>
<g opacity="0.2">
<mask id="mask0_5_5610" style="mask-type:alpha" maskUnits="userSpaceOnUse" x="4" y="3" width="103" height="116">
<rect width="101.754" height="115.142" transform="matrix(1 0 0 -1 4.58398 118.381)" fill="#CEE2E4"/>
<rect x="0.5" y="-0.5" width="100.754" height="114.142" transform="matrix(1 0 0 -1 4.58398 117.381)" stroke="#99A1B7" stroke-opacity="0.6"/>
</mask>
<g mask="url(#mask0_5_5610)">
<path d="M121.479 -9.61025C119.931 -5.06384 113.192 3.90292 98.6127 3.39861C80.3888 2.76823 68.9846 -10.9856 51.7922 -14.4241C39.103 -16.962 7.3214 -16.6018 -6.03131 -1.1287" stroke="#99A1B7" stroke-opacity="0.6"/>
<path d="M118.783 -2.88352C117.236 1.66289 110.496 10.6297 95.9174 10.1253C77.6935 9.49496 66.2893 -4.25891 49.0969 -7.69738C36.4077 -10.2352 4.62609 -9.87507 -8.72662 5.59803" stroke="#99A1B7" stroke-opacity="0.6"/>
<path d="M116.333 3.93532C114.786 8.48174 108.046 17.4485 93.4672 16.9442C75.2433 16.3138 63.8391 2.55994 46.6467 -0.87853C33.9575 -3.41637 2.17589 -3.05622 -11.1768 12.4169" stroke="#99A1B7" stroke-opacity="0.6"/>
<path d="M114.161 10.8487C112.614 15.3951 105.874 24.3619 91.2953 23.8576C73.0714 23.2272 61.6672 9.4733 44.4749 6.03483C31.7856 3.49699 0.00401976 3.85714 -13.3487 19.3302" stroke="#99A1B7" stroke-opacity="0.6"/>
<path d="M112.314 17.8554C110.767 22.4018 104.028 31.3685 89.4486 30.8642C71.2248 30.2338 59.8205 16.48 42.6282 13.0415C29.939 10.5037 -1.84266 10.8638 -15.1954 26.3369" stroke="#99A1B7" stroke-opacity="0.6"/>
<path d="M110.849 24.9505C109.301 29.497 102.562 38.4637 87.9828 37.9594C69.7589 37.329 58.3547 23.5751 41.1624 20.1367C28.4731 17.5988 -3.30848 17.959 -16.6612 33.4321" stroke="#99A1B7" stroke-opacity="0.6"/>
<path d="M109.837 32.1259C108.29 36.6723 101.55 45.6391 86.9711 45.1347C68.7472 44.5044 57.343 30.7505 40.1506 27.312C27.4614 24.7742 -4.3202 25.1343 -17.6729 40.6074" stroke="#99A1B7" stroke-opacity="0.6"/>
<path d="M109.369 39.3562C107.822 43.9027 101.082 52.8694 86.5033 52.3651C68.2795 51.7347 56.8752 37.9809 39.6829 34.5424C26.9936 32.0045 -4.78797 32.3647 -18.1407 47.8378" stroke="#99A1B7" stroke-opacity="0.6"/>
<path d="M109.56 46.5998C108.012 51.1462 101.273 60.113 86.6938 59.6086C68.4699 58.9783 57.0656 45.2244 39.8733 41.7859C27.1841 39.2481 -4.59754 39.6082 -17.9503 55.0813" stroke="#99A1B7" stroke-opacity="0.6"/>
<path d="M110.535 53.7799C108.988 58.3263 102.248 67.2931 87.6693 66.7888C69.4455 66.1584 58.0412 52.4045 40.8489 48.966C28.1597 46.4282 -3.62196 46.7884 -16.9747 62.2615" stroke="#99A1B7" stroke-opacity="0.6"/>
<path d="M112.429 60.7746C110.881 65.321 104.142 74.2878 89.5629 73.7835C71.339 73.1531 59.9348 59.3992 42.7424 55.9607C30.0532 53.4229 -1.7284 53.7831 -15.0811 69.2562" stroke="#99A1B7" stroke-opacity="0.6"/>
<path d="M115.85 68.6139C114.302 73.1603 107.563 82.1271 92.9838 81.6227C74.7599 80.9924 63.3557 67.2385 46.1633 63.8C33.4741 61.2622 1.6925 61.6223 -11.6602 77.0954" stroke="#99A1B7" stroke-opacity="0.6"/>
<path d="M118.57 75.3299C117.023 79.8763 110.284 88.843 95.7045 88.3387C77.4806 87.7083 66.0764 73.9545 48.884 70.516C36.1948 67.9782 4.4132 68.3383 -8.93951 83.8114" stroke="#99A1B7" stroke-opacity="0.6"/>
<path d="M120.726 82.248C119.178 86.7944 112.439 95.7612 97.8598 95.2569C79.6359 94.6265 68.2317 80.8726 51.0393 77.4341C38.3501 74.8963 6.56847 75.2564 -6.78424 90.7295" stroke="#99A1B7" stroke-opacity="0.6"/>
<path d="M122.304 89.3193C120.756 93.8657 114.017 102.832 99.4379 102.328C81.214 101.698 69.8098 87.9439 52.6174 84.5054C39.9282 81.9676 8.1466 82.3277 -5.20612 97.8008" stroke="#99A1B7" stroke-opacity="0.6"/>
<path d="M123.305 96.497C121.757 101.043 115.018 110.01 100.439 109.506C82.215 108.875 70.8108 95.1216 53.6184 91.6831C40.9292 89.1453 9.14757 89.5055 -4.20514 104.979" stroke="#99A1B7" stroke-opacity="0.6"/>
<path d="M123.74 103.729C122.193 108.275 115.454 117.242 100.874 116.737C82.6506 116.107 71.2463 102.353 54.054 98.9147C41.3647 96.3769 9.58312 96.737 -3.76959 112.21" stroke="#99A1B7" stroke-opacity="0.6"/>
</g>
</g>
<path d="M65.1815 20.1291C73.3698 9.01208 89.0199 6.63799 100.137 14.8264L125.627 33.6015C137.218 42.139 139.222 58.6767 130.006 69.7357L80.1677 129.538C72.5137 138.723 59.4283 141.203 48.9447 135.455L25.0596 122.361C11.7941 115.089 7.97657 97.7935 16.9483 85.6129L65.1815 20.1291Z" fill="#0771DE"/>
</svg>
