<svg width="113" height="76" viewBox="0 0 113 76" fill="none" xmlns="http://www.w3.org/2000/svg">
<path d="M0 3.50769C0 1.57045 1.57045 0 3.50769 0H81.2615C83.1988 0 84.7692 1.57045 84.7692 3.50769V72.4923C84.7692 74.4296 83.1988 76 81.2615 76H3.50769C1.57044 76 0 74.4296 0 72.4923V3.50769Z" fill="white"/>
<path d="M0.0827824 3.50769C0.0827824 1.61617 1.61617 0.0827824 3.50769 0.0827824H81.2615C83.1531 0.0827824 84.6864 1.61617 84.6864 3.50769V72.4923C84.6864 74.3838 83.1531 75.9172 81.2615 75.9172H3.50769C1.61616 75.9172 0.0827824 74.3838 0.0827824 72.4923V3.50769Z" stroke="#99A1B7" stroke-opacity="0.6" stroke-width="0.165565"/>
<path d="M0 3.50769C0 1.57045 1.57045 0 3.50769 0H81.2615C83.1988 0 84.7692 1.57045 84.7692 3.50769V11.1077H0V3.50769Z" fill="#263959"/>
<path d="M55.4109 4.36008C55.4558 4.36008 55.494 4.37692 55.5254 4.41059C55.5591 4.44202 55.5759 4.48131 55.5759 4.52845C55.5759 4.57335 55.5591 4.61264 55.5254 4.64631C55.494 4.67774 55.4558 4.69345 55.4109 4.69345C55.3638 4.69345 55.3245 4.67774 55.2931 4.64631C55.2616 4.61264 55.2459 4.57335 55.2459 4.52845C55.2459 4.48131 55.2616 4.44202 55.2931 4.41059C55.3245 4.37692 55.3638 4.36008 55.4109 4.36008ZM55.8184 4.36008C55.8655 4.36008 55.9048 4.37692 55.9362 4.41059C55.9699 4.44202 55.9868 4.48131 55.9868 4.52845C55.9868 4.57335 55.9699 4.61264 55.9362 4.64631C55.9048 4.67774 55.8655 4.69345 55.8184 4.69345C55.7735 4.69345 55.7342 4.67774 55.7005 4.64631C55.6691 4.61264 55.6534 4.57335 55.6534 4.52845C55.6534 4.48131 55.6691 4.44202 55.7005 4.41059C55.7342 4.37692 55.7735 4.36008 55.8184 4.36008ZM56.9902 4.451V5.6801C56.9902 5.76092 56.9655 5.83051 56.9162 5.88888C56.8533 5.96296 56.777 6 56.6872 6H54.761C54.6308 6 54.5186 5.95735 54.4243 5.87204C54.2963 5.76204 54.2323 5.61949 54.2323 5.44438V4.81131L54.3771 4.69345H54.5186V5.44438C54.5186 5.53193 54.55 5.60602 54.6129 5.66663C54.6735 5.72949 54.7498 5.76092 54.8418 5.76092H56.576C56.6614 5.76092 56.704 5.71826 56.704 5.63296V4.451H56.9902ZM57.7413 3.58895V5.63296C57.7413 5.66887 57.7525 5.69918 57.7749 5.72387C57.7996 5.74857 57.8311 5.76092 57.8692 5.76092H57.913V6H57.7581C57.6863 6 57.6234 5.97643 57.5695 5.92928C57.4932 5.86418 57.455 5.78112 57.455 5.6801V3.58895H57.7413ZM58.4961 5.02346C58.4961 4.79448 58.5769 4.62611 58.7385 4.51835C58.844 4.44876 58.9843 4.41396 59.1594 4.41396C59.3727 4.41396 59.5512 4.48692 59.6949 4.63284C59.8385 4.77876 59.9104 4.98305 59.9104 5.24571C59.9104 5.4904 59.8385 5.69694 59.6949 5.8653C59.5602 6.02245 59.3895 6.10102 59.183 6.10102C58.9899 6.10102 58.8328 6.02806 58.7116 5.88214C58.651 5.96071 58.5701 6 58.4691 6H57.8899V5.76092H58.3681C58.404 5.76092 58.4343 5.74857 58.459 5.72387C58.4837 5.69918 58.4961 5.66887 58.4961 5.63296V5.02346ZM58.7823 5.68347C58.899 5.80245 59.0281 5.86194 59.1695 5.86194C59.3042 5.86194 59.4131 5.80694 59.4962 5.69694C59.5815 5.58469 59.6241 5.43989 59.6241 5.26254C59.6241 5.06499 59.5747 4.90897 59.476 4.79448C59.3929 4.70019 59.2829 4.65305 59.146 4.65305C59.0427 4.65305 58.9585 4.68335 58.8934 4.74397C58.8193 4.81356 58.7823 4.90672 58.7823 5.02346V5.68347ZM60.5386 4.4308C60.6195 4.41733 60.7059 4.41059 60.7979 4.41059C61.0471 4.41059 61.248 4.4858 61.4007 4.63621C61.5376 4.77539 61.6061 4.95162 61.6061 5.16489V5.6801C61.6061 5.70928 61.6039 5.73622 61.5994 5.76092H61.6937V6H61.6431L61.5489 5.88214H61.5388C61.5208 5.90459 61.5006 5.9248 61.4781 5.94275C61.4243 5.98092 61.3659 6 61.303 6H60.1985V5.76092H61.1953C61.2783 5.76092 61.3199 5.71826 61.3199 5.63296V5.2053C61.3199 5.04591 61.2716 4.91346 61.1751 4.80795C61.0718 4.70019 60.9124 4.64519 60.6969 4.64294C60.6341 4.64294 60.5813 4.64743 60.5386 4.65641V4.4308ZM62.7292 3.71018C62.7763 3.71018 62.8156 3.72702 62.847 3.76069C62.8785 3.79212 62.8942 3.83028 62.8942 3.87518C62.8942 3.92232 62.8785 3.96273 62.847 3.99641C62.8156 4.02783 62.7763 4.04355 62.7292 4.04355C62.6843 4.04355 62.645 4.02783 62.6113 3.99641C62.5799 3.96273 62.5642 3.92232 62.5642 3.87518C62.5642 3.83028 62.5799 3.79212 62.6113 3.76069C62.645 3.72702 62.6843 3.71018 62.7292 3.71018ZM62.113 4.50825C62.3195 4.44315 62.5125 4.41059 62.6921 4.41059C62.9705 4.41059 63.1827 4.49702 63.3286 4.66988C63.4543 4.81805 63.5171 5.01223 63.5171 5.25244V5.6801C63.5171 5.70704 63.5138 5.73398 63.507 5.76092H63.6249V6H63.5542L63.4599 5.88214H63.4498C63.3869 5.96071 63.3084 6 63.2141 6H61.6651V5.76092H63.103C63.1883 5.76092 63.2309 5.71826 63.2309 5.63296V5.24234C63.2309 5.06723 63.1849 4.92917 63.0929 4.82815C62.9918 4.7159 62.8448 4.65978 62.6517 4.65978C62.535 4.65978 62.3554 4.68447 62.113 4.73386V4.50825ZM64.4943 3.58895V5.6801C64.4943 5.76765 64.4652 5.84173 64.4068 5.90235C64.3462 5.96745 64.2732 6 64.1879 6H63.602V5.76092H64.0802C64.1228 5.76092 64.1554 5.74632 64.1778 5.71714C64.198 5.69245 64.2081 5.66438 64.2081 5.63296V3.58895H64.4943ZM65.2455 3.58895V5.96633L65.1007 6.08418H64.9593V3.58895H65.2455ZM66.7934 5.96633C66.6766 6.00898 66.5543 6.03031 66.4263 6.03031C66.1839 6.03031 65.9919 5.945 65.8505 5.77439C65.7248 5.62398 65.6619 5.43203 65.6619 5.19856C65.6619 4.96285 65.7282 4.77427 65.8606 4.63284C66.002 4.48468 66.1929 4.41059 66.4331 4.41059C66.6149 4.41059 66.7631 4.45662 66.8776 4.54866C67.0145 4.65866 67.083 4.81693 67.083 5.02346V5.96969C67.0807 6.25704 66.9864 6.47368 66.8001 6.6196C66.7058 6.69368 66.5925 6.74531 66.46 6.7745C66.3725 6.79246 66.2815 6.80144 66.1872 6.80144C66.1334 6.80144 66.0817 6.80032 66.0323 6.79807L65.9212 6.66001V6.55225C65.9886 6.56123 66.0593 6.56572 66.1334 6.56572C66.5711 6.56572 66.7911 6.36592 66.7934 5.96633ZM66.7934 5.02346C66.7934 4.88427 66.744 4.77988 66.6452 4.71029C66.5891 4.67213 66.5184 4.65305 66.4331 4.65305C66.2827 4.65305 66.1637 4.70356 66.0761 4.80458C65.9908 4.9056 65.9482 5.04591 65.9482 5.2255C65.9482 5.39612 65.9976 5.53081 66.0963 5.62959C66.1839 5.72163 66.3006 5.76765 66.4465 5.76765C66.5745 5.76765 66.6901 5.74745 66.7934 5.70704V5.02346ZM69.2981 4.36008C69.343 4.36008 69.3812 4.37692 69.4126 4.41059C69.4463 4.44202 69.4631 4.48131 69.4631 4.52845C69.4631 4.57335 69.4463 4.61264 69.4126 4.64631C69.3812 4.67774 69.343 4.69345 69.2981 4.69345C69.251 4.69345 69.2117 4.67774 69.1802 4.64631C69.1488 4.61264 69.1331 4.57335 69.1331 4.52845C69.1331 4.48131 69.1488 4.44202 69.1802 4.41059C69.2117 4.37692 69.251 4.36008 69.2981 4.36008ZM69.7056 4.36008C69.7527 4.36008 69.792 4.37692 69.8234 4.41059C69.8571 4.44202 69.8739 4.48131 69.8739 4.52845C69.8739 4.57335 69.8571 4.61264 69.8234 4.64631C69.792 4.67774 69.7527 4.69345 69.7056 4.69345C69.6607 4.69345 69.6214 4.67774 69.5877 4.64631C69.5563 4.61264 69.5406 4.57335 69.5406 4.52845C69.5406 4.48131 69.5563 4.44202 69.5877 4.41059C69.6214 4.37692 69.6607 4.36008 69.7056 4.36008ZM70.8774 4.451V5.6801C70.8774 5.76092 70.8527 5.83051 70.8033 5.88888C70.7405 5.96296 70.6641 6 70.5743 6H68.6482C68.518 6 68.4057 5.95735 68.3115 5.87204C68.1835 5.76204 68.1195 5.61949 68.1195 5.44438V4.81131L68.2643 4.69345H68.4057V5.44438C68.4057 5.53193 68.4372 5.60602 68.5 5.66663C68.5606 5.72949 68.637 5.76092 68.729 5.76092H70.4632C70.5485 5.76092 70.5912 5.71826 70.5912 5.63296V4.451H70.8774ZM71.6284 3.58895V5.63296C71.6284 5.66887 71.6397 5.69918 71.6621 5.72387C71.6868 5.74857 71.7182 5.76092 71.7564 5.76092H71.8002V6H71.6453C71.5734 6 71.5106 5.97643 71.4567 5.92928C71.3804 5.86418 71.3422 5.78112 71.3422 5.6801V3.58895H71.6284ZM72.225 4.50825C72.4315 4.44315 72.6246 4.41059 72.8042 4.41059C73.0825 4.41059 73.2947 4.49702 73.4406 4.66988C73.5663 4.81805 73.6292 5.01223 73.6292 5.25244V5.6801C73.6292 5.70704 73.6258 5.73398 73.6191 5.76092H73.7369V6H73.6662L73.5719 5.88214H73.5618C73.499 5.96071 73.4204 6 73.3261 6H71.7771V5.76092H73.215C73.3003 5.76092 73.3429 5.71826 73.3429 5.63296V5.24234C73.3429 5.06723 73.2969 4.92917 73.2049 4.82815C73.1039 4.7159 72.9568 4.65978 72.7638 4.65978C72.647 4.65978 72.4674 4.68447 72.225 4.73386V4.50825ZM72.6257 6.35021C72.6728 6.35021 72.7121 6.36592 72.7435 6.39735C72.7772 6.43103 72.7941 6.47031 72.7941 6.51521C72.7941 6.56235 72.7772 6.60164 72.7435 6.63307C72.7121 6.66674 72.6728 6.68358 72.6257 6.68358C72.5808 6.68358 72.5415 6.66674 72.5078 6.63307C72.4764 6.60164 72.4607 6.56235 72.4607 6.51521C72.4607 6.47031 72.4764 6.43103 72.5078 6.39735C72.5415 6.36592 72.5808 6.35021 72.6257 6.35021ZM74.0609 3.71018C74.108 3.71018 74.1473 3.72702 74.1787 3.76069C74.2101 3.79212 74.2259 3.83028 74.2259 3.87518C74.2259 3.92232 74.2101 3.96273 74.1787 3.99641C74.1473 4.02783 74.108 4.04355 74.0609 4.04355C74.016 4.04355 73.9767 4.02783 73.943 3.99641C73.9116 3.96273 73.8958 3.92232 73.8958 3.87518C73.8958 3.83028 73.9116 3.79212 73.943 3.76069C73.9767 3.72702 74.016 3.71018 74.0609 3.71018ZM74.4717 3.71018C74.5166 3.71018 74.5547 3.72702 74.5862 3.76069C74.6198 3.79212 74.6367 3.83028 74.6367 3.87518C74.6367 3.92232 74.6198 3.96273 74.5862 3.99641C74.5547 4.02783 74.5166 4.04355 74.4717 4.04355C74.4245 4.04355 74.3841 4.02783 74.3504 3.99641C74.319 3.96273 74.3033 3.92232 74.3033 3.87518C74.3033 3.83028 74.319 3.79212 74.3504 3.76069C74.3841 3.72702 74.4245 3.71018 74.4717 3.71018ZM74.6064 4.451V5.6801C74.6064 5.70704 74.603 5.73398 74.5963 5.76092H74.7747V6H74.6434L74.5458 5.88214H74.5357C74.475 5.96071 74.3965 6 74.2999 6H73.714V5.76092H74.1922C74.2281 5.76092 74.2573 5.74969 74.2797 5.72724C74.3067 5.70255 74.3201 5.67112 74.3201 5.63296V4.451H74.6064ZM75.4974 3.71018C75.5446 3.71018 75.5839 3.72702 75.6153 3.76069C75.649 3.79212 75.6658 3.83028 75.6658 3.87518C75.6658 3.92232 75.649 3.96273 75.6153 3.99641C75.5839 4.02783 75.5446 4.04355 75.4974 4.04355C75.4525 4.04355 75.4133 4.02783 75.3796 3.99641C75.3481 3.96273 75.3324 3.92232 75.3324 3.87518C75.3324 3.83028 75.3481 3.79212 75.3796 3.76069C75.4133 3.72702 75.4525 3.71018 75.4974 3.71018ZM75.6422 4.451V5.6801C75.6422 5.70704 75.6389 5.73398 75.6321 5.76092H75.8106V6H75.6793L75.5816 5.88214H75.5715C75.5109 5.96071 75.4323 6 75.3358 6H74.7499V5.76092H75.228C75.264 5.76092 75.2931 5.74969 75.3156 5.72724C75.3425 5.70255 75.356 5.67112 75.356 5.63296V4.451H75.6422ZM76.4491 5.76092C76.3571 5.61051 76.3111 5.43877 76.3111 5.24571C76.3111 4.97407 76.3874 4.76417 76.54 4.616C76.677 4.4858 76.8577 4.41845 77.0822 4.41396C77.2438 4.41396 77.3774 4.44876 77.4829 4.51835C77.6445 4.62611 77.7254 4.79448 77.7254 5.02346V5.63296C77.7254 5.66438 77.7332 5.69132 77.7489 5.71377C77.7691 5.74296 77.7961 5.75867 77.8297 5.76092H77.8365V6H77.7523C77.6513 6 77.5705 5.96071 77.5098 5.88214C77.3886 6.02806 77.2348 6.10102 77.0485 6.10102C76.8532 6.10102 76.6837 6.02806 76.54 5.88214H76.5333L76.439 6H75.7857V5.76092H76.4491ZM77.4391 5.02346C77.4391 4.90672 77.4021 4.81356 77.328 4.74397C77.2629 4.68335 77.1787 4.65305 77.0755 4.65305C76.9318 4.65305 76.8162 4.70692 76.7286 4.81468C76.6411 4.92019 76.5973 5.05938 76.5973 5.23224C76.5973 5.41408 76.6433 5.56561 76.7353 5.68683C76.8229 5.80357 76.9329 5.86194 77.0653 5.86194C77.1956 5.86194 77.3201 5.80245 77.4391 5.68347V5.02346ZM78.7005 3.58895V5.6801C78.7005 5.76765 78.6713 5.84173 78.613 5.90235C78.5523 5.96745 78.4794 6 78.3941 6H77.8081V5.76092H78.2863C78.329 5.76092 78.3615 5.74632 78.384 5.71714C78.4042 5.69245 78.4143 5.66438 78.4143 5.63296V3.58895H78.7005ZM79.4517 3.58895V5.96633L79.3069 6.08418H79.1655V3.58895H79.4517Z" fill="white"/>
<path d="M4.0918 17.1692C4.0918 16.5235 4.61528 16 5.26103 16H80.0918C80.7375 16 81.261 16.5235 81.261 17.1692V31.7846C81.261 32.4304 80.7375 32.9538 80.0918 32.9538H5.26103C4.61528 32.9538 4.0918 32.4304 4.0918 31.7846V17.1692Z" fill="white"/>
<path d="M4.17458 17.1692C4.17458 16.5692 4.661 16.0828 5.26103 16.0828H80.0918C80.6918 16.0828 81.1782 16.5692 81.1782 17.1692V31.7846C81.1782 32.3846 80.6918 32.8711 80.0918 32.8711H5.26103C4.661 32.8711 4.17458 32.3846 4.17458 31.7846V17.1692Z" stroke="#99A1B7" stroke-opacity="0.6" stroke-width="0.165565"/>
<path d="M21.7125 21.9875V22.9375H21.3375V21.9875C21.3375 21.92 21.2775 21.8875 21.2375 21.8875C21.225 21.8875 21.2125 21.89 21.2 21.895L19.2175 22.6425C19.085 22.6925 19 22.8175 19 22.96V23.1275C18.7725 23.2975 18.625 23.57 18.625 23.8775V22.96C18.625 22.6625 18.8075 22.3975 19.085 22.2925L21.07 21.5425C21.125 21.5225 21.1825 21.5125 21.2375 21.5125C21.4875 21.5125 21.7125 21.715 21.7125 21.9875Z" fill="#83899F"/>
<path d="M23.3752 24.625V24.875C23.3752 24.9425 23.3227 24.9975 23.2527 25H22.8877C22.7552 25 22.6352 24.9025 22.6252 24.7725C22.6177 24.695 22.6477 24.6225 22.6977 24.5725C22.7427 24.525 22.8052 24.5 22.8727 24.5H23.2502C23.3227 24.5025 23.3752 24.5575 23.3752 24.625Z" fill="#83899F"/>
<path d="M22.87 24.2375H23.125C23.2625 24.2375 23.375 24.125 23.375 23.9875V23.8775C23.375 23.36 22.9525 22.9375 22.435 22.9375H19.565C19.3525 22.9375 19.1575 23.0075 19 23.1275C18.7725 23.2975 18.625 23.57 18.625 23.8775V25.56C18.625 26.0775 19.0475 26.5 19.565 26.5H22.435C22.9525 26.5 23.375 26.0775 23.375 25.56V25.5125C23.375 25.375 23.2625 25.2625 23.125 25.2625H22.9075C22.6675 25.2625 22.4375 25.115 22.375 24.8825C22.3225 24.6925 22.385 24.51 22.51 24.3875C22.6025 24.2925 22.73 24.2375 22.87 24.2375ZM21.5 24.1875H19.75C19.6475 24.1875 19.5625 24.1025 19.5625 24C19.5625 23.8975 19.6475 23.8125 19.75 23.8125H21.5C21.6025 23.8125 21.6875 23.8975 21.6875 24C21.6875 24.1025 21.6025 24.1875 21.5 24.1875Z" fill="#83899F"/>
<rect x="14.8457" y="23" width="2.92308" height="0.666775" rx="0.333388" fill="#E8E8E8"/>
<rect x="9" y="24.3332" width="8.76923" height="0.666775" rx="0.333388" fill="#E8E8E8"/>
<rect x="52.6152" y="27.4785" width="26.1908" height="1.75385" rx="0.876923" fill="#E8E8E8"/>
<rect x="69" y="19" width="7" height="1" rx="0.5" fill="#E8E8E8"/>
<path d="M50.9122 23.4239V24.5164C50.9122 24.5424 50.9092 24.5663 50.9032 24.5883H51.0618V24.8008H50.9451L50.8583 24.696H50.8523C50.7964 24.7659 50.7266 24.8008 50.6428 24.8008H50.0531L49.9663 24.696H49.9603C49.9044 24.7659 49.8346 24.8008 49.7508 24.8008H49.1282C49.1222 25.0522 49.0334 25.2408 48.8618 25.3665C48.7241 25.4663 48.5485 25.5162 48.335 25.5162H48.0027C47.7772 25.5162 47.5947 25.4613 47.455 25.3515C47.2893 25.2218 47.2065 25.0293 47.2065 24.7738V24.1483L47.3352 24.0435H47.461V24.7679C47.461 24.9674 47.5128 25.1061 47.6166 25.1839C47.7224 25.2637 47.906 25.3036 48.1674 25.3036C48.4168 25.3036 48.5914 25.2697 48.6912 25.2019C48.8129 25.1201 48.8738 24.9754 48.8738 24.7679V23.7681H49.1282V24.5883H49.652C49.7278 24.5883 49.7657 24.5503 49.7657 24.4745V23.5945H50.0202V24.5164C50.0202 24.5424 50.0172 24.5663 50.0112 24.5883H50.544C50.6198 24.5883 50.6577 24.5503 50.6577 24.4745V23.4239H50.9122ZM52.3924 22.6127V22.8462L51.6411 23.2922C51.9523 23.376 52.1978 23.5317 52.3774 23.7591C52.541 23.9667 52.6228 24.2061 52.6228 24.4775C52.6228 24.5733 52.5979 24.6511 52.548 24.711C52.4981 24.7708 52.4333 24.8008 52.3534 24.8008H51.0394V24.5883H52.2547C52.3325 24.5883 52.3714 24.5484 52.3714 24.4685C52.3614 24.261 52.3006 24.0784 52.1888 23.9208C52.0292 23.6893 51.7738 23.5496 51.4225 23.5017C51.4106 23.5017 51.4046 23.4947 51.4046 23.4808V23.1844L52.3924 22.6127ZM53.2486 22.6576V24.4745C53.2486 24.5064 53.2586 24.5334 53.2786 24.5553C53.3005 24.5773 53.3285 24.5883 53.3624 24.5883H53.4013V24.8008H53.2636C53.1998 24.8008 53.1439 24.7798 53.096 24.7379C53.0281 24.6801 52.9942 24.6062 52.9942 24.5164V22.6576H53.2486ZM53.9196 23.9327C53.9196 23.7292 53.9914 23.5795 54.1351 23.4838C54.2289 23.4219 54.3536 23.391 54.5092 23.391C54.6988 23.391 54.8575 23.4558 54.9852 23.5855C55.1129 23.7152 55.1767 23.8968 55.1767 24.1303C55.1767 24.3478 55.1129 24.5314 54.9852 24.6811C54.8654 24.8207 54.7138 24.8906 54.5302 24.8906C54.3586 24.8906 54.2189 24.8257 54.1111 24.696C54.0573 24.7659 53.9854 24.8008 53.8956 24.8008H53.3808V24.5883H53.8058C53.8378 24.5883 53.8647 24.5773 53.8867 24.5553C53.9086 24.5334 53.9196 24.5064 53.9196 24.4745V23.9327ZM54.174 24.5194C54.2778 24.6252 54.3925 24.6781 54.5182 24.6781C54.638 24.6781 54.7347 24.6292 54.8086 24.5314C54.8844 24.4316 54.9223 24.3029 54.9223 24.1453C54.9223 23.9697 54.8784 23.831 54.7906 23.7292C54.7168 23.6454 54.619 23.6035 54.4973 23.6035C54.4055 23.6035 54.3306 23.6304 54.2728 23.6843C54.2069 23.7462 54.174 23.829 54.174 23.9327V24.5194ZM57.036 24.7708C56.9323 24.8088 56.8235 24.8277 56.7098 24.8277C56.4943 24.8277 56.3237 24.7519 56.1979 24.6002C56.0862 24.4665 56.0303 24.2959 56.0303 24.0884C56.0303 23.8789 56.0892 23.7112 56.2069 23.5855C56.3326 23.4538 56.5023 23.388 56.7158 23.388C56.8774 23.388 57.0091 23.4289 57.1109 23.5107C57.2326 23.6085 57.2935 23.7492 57.2935 23.9327V24.7738C57.2915 25.0293 57.2077 25.2218 57.042 25.3515C56.9582 25.4174 56.8574 25.4633 56.7397 25.4892C56.6619 25.5052 56.5811 25.5132 56.4973 25.5132C56.4494 25.5132 56.4035 25.5122 56.3596 25.5102L56.2608 25.3875V25.2917C56.3207 25.2997 56.3835 25.3036 56.4494 25.3036C56.8385 25.3036 57.034 25.126 57.036 24.7708ZM57.036 23.9327C57.036 23.809 56.9921 23.7162 56.9043 23.6544C56.8545 23.6205 56.7916 23.6035 56.7158 23.6035C56.5821 23.6035 56.4763 23.6484 56.3985 23.7382C56.3227 23.828 56.2847 23.9527 56.2847 24.1123C56.2847 24.264 56.3286 24.3837 56.4164 24.4715C56.4943 24.5533 56.598 24.5942 56.7277 24.5942C56.8415 24.5942 56.9443 24.5763 57.036 24.5404V23.9327ZM58.4525 23.4239V24.5883H58.6052V24.8008H58.4525C58.4465 25.0502 58.3577 25.2368 58.1861 25.3605C58.0484 25.4623 57.8698 25.5132 57.6503 25.5132C57.6164 25.5132 57.5735 25.5122 57.5216 25.5102L57.4229 25.3875V25.2917C57.4807 25.2997 57.5436 25.3036 57.6114 25.3036C58.0025 25.3036 58.1981 25.1241 58.1981 24.7649V23.4239H58.4525ZM59.3771 23.4239V24.5164C59.3771 24.5903 59.3531 24.6541 59.3052 24.708C59.2514 24.7699 59.1845 24.8008 59.1047 24.8008H58.5839V24.5883H59.0089C59.0428 24.5883 59.0708 24.5763 59.0927 24.5523C59.1127 24.5324 59.1227 24.5064 59.1227 24.4745V23.4239H59.3771ZM59.1735 25.1121C59.2134 25.1121 59.2474 25.126 59.2753 25.154C59.3052 25.1839 59.3202 25.2188 59.3202 25.2587C59.3202 25.3007 59.3052 25.3356 59.2753 25.3635C59.2474 25.3934 59.2134 25.4084 59.1735 25.4084C59.1336 25.4084 59.0987 25.3934 59.0688 25.3635C59.0408 25.3356 59.0269 25.3007 59.0269 25.2587C59.0269 25.2188 59.0408 25.1839 59.0688 25.154C59.0987 25.126 59.1336 25.1121 59.1735 25.1121ZM60.9894 22.6576V24.687L60.8607 24.8008H60.735V22.9629L60.3639 23.2742L60.2292 23.1066L60.762 22.6576H60.9894ZM62.3977 22.6576V24.0495H62.715V24.28H62.3977V24.687L62.269 24.8008H62.1432V24.28H61.2662V24.0555L62.1223 22.6576H62.3977ZM62.1432 22.9929L61.5177 24.0495H62.1432V22.9929ZM64.4746 23.388C64.5145 23.388 64.5484 23.4029 64.5763 23.4329C64.6063 23.4608 64.6212 23.4947 64.6212 23.5346C64.6212 23.5765 64.6063 23.6125 64.5763 23.6424C64.5484 23.6703 64.5145 23.6843 64.4746 23.6843C64.4347 23.6843 64.3997 23.6703 64.3698 23.6424C64.3419 23.6125 64.3279 23.5765 64.3279 23.5346C64.3279 23.4947 64.3419 23.4608 64.3698 23.4329C64.3997 23.4029 64.4347 23.388 64.4746 23.388ZM65.4623 23.4239V24.7738C65.4623 25.0133 65.3895 25.1979 65.2438 25.3276C65.1022 25.4533 64.9106 25.5162 64.6691 25.5162H64.3369C64.0994 25.5162 63.9099 25.4553 63.7682 25.3336C63.6165 25.2039 63.5407 25.0173 63.5407 24.7738V24.1483L63.6694 24.0435H63.7951V24.7679C63.7951 24.9674 63.847 25.1061 63.9508 25.1839C64.0565 25.2637 64.2401 25.3036 64.5015 25.3036C64.751 25.3036 64.9266 25.2697 65.0283 25.2019C65.1481 25.1201 65.2079 24.9754 65.2079 24.7679V23.4239H65.4623ZM66.5108 24.8008C66.2833 24.8008 66.1087 24.725 65.987 24.5733C65.8852 24.4476 65.8343 24.2859 65.8343 24.0884C65.8343 23.8629 65.9022 23.6873 66.0379 23.5616C66.1596 23.4458 66.3202 23.388 66.5198 23.388C66.6754 23.388 66.8051 23.4269 66.9089 23.5047C67.0346 23.6025 67.0975 23.7452 67.0975 23.9327V24.5883H67.1932V24.8008H67.0975C67.0895 25.0103 67.0266 25.1749 66.9089 25.2947C66.8191 25.3865 66.7024 25.4493 66.5587 25.4832C66.4769 25.5032 66.3911 25.5132 66.3013 25.5132C66.2534 25.5132 66.2075 25.5122 66.1636 25.5102L66.0648 25.3875V25.2917C66.1247 25.2997 66.1875 25.3036 66.2534 25.3036C66.6345 25.3036 66.8301 25.136 66.84 24.8008H66.5108ZM66.84 23.9327C66.84 23.831 66.8101 23.7502 66.7502 23.6903C66.6924 23.6324 66.6156 23.6035 66.5198 23.6035C66.3861 23.6035 66.2803 23.6484 66.2025 23.7382C66.1267 23.828 66.0887 23.9527 66.0887 24.1123C66.0887 24.254 66.1277 24.3688 66.2055 24.4566C66.2833 24.5444 66.3841 24.5883 66.5078 24.5883H66.84V23.9327ZM68.2884 22.7654C68.3283 22.7654 68.3623 22.7804 68.3902 22.8103C68.4201 22.8382 68.4351 22.8721 68.4351 22.9121C68.4351 22.954 68.4201 22.9899 68.3902 23.0198C68.3623 23.0477 68.3283 23.0617 68.2884 23.0617C68.2465 23.0617 68.2116 23.0477 68.1837 23.0198C68.1557 22.9899 68.1418 22.954 68.1418 22.9121C68.1418 22.8721 68.1557 22.8382 68.1837 22.8103C68.2116 22.7804 68.2465 22.7654 68.2884 22.7654ZM67.8185 24.5883C67.6928 24.4506 67.6299 24.281 67.6299 24.0794C67.6299 23.8859 67.6828 23.7272 67.7885 23.6035C67.9103 23.4598 68.0719 23.388 68.2735 23.388C68.4351 23.388 68.5728 23.4359 68.6865 23.5317C68.8422 23.6614 68.92 23.8439 68.92 24.0794C68.92 24.279 68.8571 24.4486 68.7314 24.5883H68.9918V24.8008H68.5608H68.5279C68.4101 24.8008 68.3273 24.7928 68.2794 24.7768H68.2675C68.2196 24.7928 68.1368 24.8008 68.019 24.8008H67.9831H67.169V24.5883H67.8185ZM68.2735 23.6035C68.1517 23.6035 68.0559 23.6464 67.9861 23.7322C67.9183 23.818 67.8843 23.9367 67.8843 24.0884C67.8843 24.2261 67.9212 24.3428 67.9951 24.4386C68.0709 24.5344 68.1637 24.5843 68.2735 24.5883C68.3832 24.5843 68.475 24.5344 68.5488 24.4386C68.6247 24.3428 68.6626 24.2261 68.6626 24.0884C68.6626 23.9367 68.6277 23.818 68.5578 23.7322C68.49 23.6464 68.3952 23.6035 68.2735 23.6035ZM69.7628 23.4239V24.5164C69.7628 24.5903 69.7388 24.6541 69.6909 24.708C69.6371 24.7699 69.5702 24.8008 69.4904 24.8008H68.9696V24.5883H69.3946C69.4285 24.5883 69.4565 24.5763 69.4784 24.5523C69.4984 24.5324 69.5083 24.5064 69.5083 24.4745V23.4239H69.7628ZM69.224 25.1121C69.2639 25.1121 69.2978 25.126 69.3258 25.154C69.3557 25.1839 69.3707 25.2188 69.3707 25.2587C69.3707 25.3007 69.3557 25.3356 69.3258 25.3635C69.2978 25.3934 69.2639 25.4084 69.224 25.4084C69.1821 25.4084 69.1462 25.3934 69.1162 25.3635C69.0883 25.3356 69.0743 25.3007 69.0743 25.2587C69.0743 25.2188 69.0883 25.1839 69.1162 25.154C69.1462 25.126 69.1821 25.1121 69.224 25.1121ZM69.5862 25.1121C69.6281 25.1121 69.663 25.126 69.6909 25.154C69.7189 25.1839 69.7328 25.2188 69.7328 25.2587C69.7328 25.3007 69.7189 25.3356 69.6909 25.3635C69.663 25.3934 69.6281 25.4084 69.5862 25.4084C69.5463 25.4084 69.5113 25.3934 69.4814 25.3635C69.4535 25.3356 69.4395 25.3007 69.4395 25.2587C69.4395 25.2188 69.4535 25.1839 69.4814 25.154C69.5113 25.126 69.5463 25.1121 69.5862 25.1121ZM70.1222 22.3104C70.0803 22.2565 70.0593 22.1907 70.0593 22.1129C70.0593 22.035 70.0823 21.9732 70.1282 21.9273C70.1741 21.8794 70.2349 21.8554 70.3108 21.8554C70.3587 21.8554 70.4066 21.8634 70.4544 21.8794V22.0021C70.4185 21.9921 70.3836 21.9871 70.3497 21.9871C70.2459 21.9871 70.194 22.04 70.194 22.1458C70.194 22.1837 70.207 22.2186 70.2329 22.2505C70.2649 22.2905 70.3078 22.3104 70.3617 22.3104H70.5532V22.3613L70.4934 22.4331H69.9905V22.3104H70.1222ZM70.4305 22.6576V24.7708L70.3018 24.8756H70.1761V22.6576H70.4305ZM72.0536 22.7654C72.0935 22.7654 72.1274 22.7804 72.1553 22.8103C72.1853 22.8382 72.2002 22.8721 72.2002 22.9121C72.2002 22.954 72.1853 22.9899 72.1553 23.0198C72.1274 23.0477 72.0935 23.0617 72.0536 23.0617C72.0137 23.0617 71.9787 23.0477 71.9488 23.0198C71.9209 22.9899 71.9069 22.954 71.9069 22.9121C71.9069 22.8721 71.9209 22.8382 71.9488 22.8103C71.9787 22.7804 72.0137 22.7654 72.0536 22.7654ZM72.1793 23.4239V24.7738C72.1793 25.0133 72.1065 25.1969 71.9608 25.3246C71.853 25.4224 71.7123 25.4822 71.5387 25.5042C71.4908 25.5102 71.44 25.5132 71.3861 25.5132C71.3382 25.5132 71.2923 25.5122 71.2484 25.5102L71.1496 25.3875V25.2917C71.2075 25.2997 71.2703 25.3036 71.3382 25.3036C71.7293 25.3036 71.9249 25.1241 71.9249 24.7649V23.4239H72.1793ZM72.8713 22.6576V24.4745C72.8713 24.5064 72.8812 24.5334 72.9012 24.5553C72.9231 24.5773 72.9511 24.5883 72.985 24.5883H73.0239V24.8008H72.8862C72.8224 24.8008 72.7665 24.7798 72.7186 24.7379C72.6508 24.6801 72.6168 24.6062 72.6168 24.5164V22.6576H72.8713ZM73.7427 23.4568C73.9563 23.359 74.1778 23.3102 74.4072 23.3102C74.9301 23.3102 75.1915 23.6085 75.1915 24.2051V24.5194C75.1915 24.5434 75.1895 24.5663 75.1855 24.5883H75.2902V24.8008H75.2244L75.1406 24.696H75.1316C75.1156 24.716 75.0977 24.7339 75.0777 24.7499C75.0298 24.7838 74.9789 24.8008 74.9251 24.8008H74.2037C74.09 24.8008 74.0121 24.7938 73.9702 24.7798H73.9583C73.9183 24.7938 73.8395 24.8008 73.7218 24.8008H73.0034V24.5883H73.5841C73.5382 24.5364 73.5023 24.4735 73.4763 24.3997C73.4504 24.3239 73.4374 24.243 73.4374 24.1572C73.4374 24.0076 73.4704 23.8849 73.5362 23.7891C73.5861 23.7152 73.6549 23.6604 73.7427 23.6244V23.4568ZM74.937 24.247C74.937 23.9896 74.8921 23.807 74.8023 23.6993C74.7086 23.5875 74.5569 23.5317 74.3474 23.5317C74.2157 23.5317 74.09 23.5496 73.9702 23.5855C74.1618 23.5875 74.3025 23.6574 74.3923 23.7951C74.4581 23.8908 74.491 24.0116 74.491 24.1572C74.491 24.2331 74.4801 24.3059 74.4581 24.3757C74.4322 24.4596 74.3933 24.5304 74.3414 24.5883H74.8263C74.8622 24.5883 74.8911 24.5743 74.9131 24.5464C74.9291 24.5264 74.937 24.5025 74.937 24.4745V24.247ZM74.2666 24.1542C74.2666 24.0365 74.2386 23.9427 74.1827 23.8729C74.1289 23.803 74.054 23.7681 73.9583 23.7681C73.8625 23.7681 73.7876 23.802 73.7338 23.8699C73.6799 23.9377 73.6529 24.0325 73.6529 24.1542C73.6529 24.272 73.6819 24.3698 73.7397 24.4476C73.7976 24.5254 73.8705 24.5663 73.9583 24.5703C74.048 24.5663 74.1219 24.5254 74.1798 24.4476C74.2376 24.3698 74.2666 24.272 74.2666 24.1542ZM75.664 23.4748C75.8476 23.4169 76.0192 23.388 76.1788 23.388C76.4263 23.388 76.6148 23.4648 76.7445 23.6185C76.8563 23.7502 76.9122 23.9228 76.9122 24.1363V24.5164C76.9122 24.5843 76.8912 24.6441 76.8493 24.696C76.7974 24.7659 76.7286 24.8008 76.6428 24.8008H75.2659V24.5883H76.544C76.6198 24.5883 76.6577 24.5503 76.6577 24.4745V24.1273C76.6577 23.9717 76.6168 23.8489 76.535 23.7591C76.4452 23.6594 76.3145 23.6095 76.1429 23.6095C76.0391 23.6095 75.8795 23.6314 75.664 23.6753V23.4748ZM76.0202 25.1121C76.0621 25.1121 76.097 25.126 76.1249 25.154C76.1549 25.1839 76.1698 25.2188 76.1698 25.2587C76.1698 25.3007 76.1549 25.3356 76.1249 25.3635C76.097 25.3934 76.0621 25.4084 76.0202 25.4084C75.9803 25.4084 75.9453 25.3934 75.9154 25.3635C75.8875 25.3356 75.8735 25.3007 75.8735 25.2587C75.8735 25.2188 75.8875 25.1839 75.9154 25.154C75.9453 25.126 75.9803 25.1121 76.0202 25.1121Z" fill="#1C1C28"/>
<path d="M4.0918 36.2454C4.0918 35.5997 4.61528 35.0762 5.26103 35.0762H80.0918C80.7375 35.0762 81.261 35.5997 81.261 36.2454V50.8608C81.261 51.5065 80.7375 52.03 80.0918 52.03H5.26103C4.61528 52.03 4.0918 51.5065 4.0918 50.8608V36.2454Z" fill="#F3F3F3"/>
<path d="M4.0918 55.5384C4.0918 54.8926 4.61528 54.3691 5.26103 54.3691H80.0918C80.7375 54.3691 81.261 54.8926 81.261 55.5384V70.1538C81.261 70.7995 80.7375 71.323 80.0918 71.323H5.26103C4.61528 71.323 4.0918 70.7995 4.0918 70.1538V55.5384Z" fill="white"/>
<path d="M4.17458 55.5384C4.17458 54.9383 4.661 54.4519 5.26103 54.4519H80.0918C80.6918 54.4519 81.1782 54.9383 81.1782 55.5384V70.1538C81.1782 70.7538 80.6918 71.2402 80.0918 71.2402H5.26103C4.661 71.2402 4.17458 70.7538 4.17458 70.1538V55.5384Z" stroke="#99A1B7" stroke-opacity="0.6" stroke-width="0.165565"/>
<path d="M21.482 60.9895V61.9395H21.107V60.9895C21.107 60.922 21.047 60.8895 21.007 60.8895C20.9945 60.8895 20.982 60.892 20.9695 60.897L18.987 61.6445C18.8545 61.6945 18.7695 61.8195 18.7695 61.962V62.1295C18.542 62.2995 18.3945 62.572 18.3945 62.8795V61.962C18.3945 61.6645 18.577 61.3995 18.8545 61.2945L20.8395 60.5445C20.8945 60.5245 20.952 60.5145 21.007 60.5145C21.257 60.5145 21.482 60.717 21.482 60.9895Z" fill="#83899F"/>
<path d="M23.1447 63.627V63.877C23.1447 63.9445 23.0922 63.9995 23.0222 64.002H22.6572C22.5247 64.002 22.4047 63.9045 22.3947 63.7745C22.3872 63.697 22.4172 63.6245 22.4672 63.5745C22.5122 63.527 22.5747 63.502 22.6422 63.502H23.0197C23.0922 63.5045 23.1447 63.5595 23.1447 63.627Z" fill="#83899F"/>
<path d="M22.6395 63.2395H22.8945C23.032 63.2395 23.1445 63.127 23.1445 62.9895V62.8795C23.1445 62.362 22.722 61.9395 22.2045 61.9395H19.3345C19.122 61.9395 18.927 62.0095 18.7695 62.1295C18.542 62.2995 18.3945 62.572 18.3945 62.8795V64.562C18.3945 65.0795 18.817 65.502 19.3345 65.502H22.2045C22.722 65.502 23.1445 65.0795 23.1445 64.562V64.5145C23.1445 64.377 23.032 64.2645 22.8945 64.2645H22.677C22.437 64.2645 22.207 64.117 22.1445 63.8845C22.092 63.6945 22.1545 63.512 22.2795 63.3895C22.372 63.2945 22.4995 63.2395 22.6395 63.2395ZM21.2695 63.1895H19.5195C19.417 63.1895 19.332 63.1045 19.332 63.002C19.332 62.8995 19.417 62.8145 19.5195 62.8145H21.2695C21.372 62.8145 21.457 62.8995 21.457 63.002C21.457 63.1045 21.372 63.1895 21.2695 63.1895Z" fill="#83899F"/>
<rect x="14.8457" y="62" width="2.92308" height="0.666775" rx="0.333388" fill="#E8E8E8"/>
<rect x="9" y="63.3332" width="8.76923" height="0.666775" rx="0.333388" fill="#E8E8E8"/>
<rect x="52.6152" y="66.0611" width="26.1908" height="1.75385" rx="0.876923" fill="#E8E8E8"/>
<path d="M52.9122 62.0069V63.0994C52.9122 63.1254 52.9092 63.1493 52.9032 63.1713H53.0618V63.3838H52.9451L52.8583 63.279H52.8523C52.7964 63.3489 52.7266 63.3838 52.6428 63.3838H52.0531L51.9663 63.279H51.9603C51.9044 63.3489 51.8346 63.3838 51.7508 63.3838H51.1282C51.1222 63.6352 51.0334 63.8238 50.8618 63.9495C50.7241 64.0493 50.5485 64.0992 50.335 64.0992H50.0027C49.7772 64.0992 49.5947 64.0443 49.455 63.9345C49.2893 63.8048 49.2065 63.6123 49.2065 63.3568V62.7313L49.3352 62.6265H49.461V63.3509C49.461 63.5504 49.5128 63.6891 49.6166 63.7669C49.7224 63.8467 49.906 63.8867 50.1674 63.8867C50.4168 63.8867 50.5914 63.8527 50.6912 63.7849C50.8129 63.7031 50.8738 63.5584 50.8738 63.3509V62.3511H51.1282V63.1713H51.652C51.7278 63.1713 51.7657 63.1334 51.7657 63.0575V62.1775H52.0202V63.0994C52.0202 63.1254 52.0172 63.1493 52.0112 63.1713H52.544C52.6198 63.1713 52.6577 63.1334 52.6577 63.0575V62.0069H52.9122ZM54.3924 61.1957V61.4292L53.6411 61.8752C53.9523 61.959 54.1978 62.1147 54.3774 62.3421C54.541 62.5497 54.6228 62.7891 54.6228 63.0605C54.6228 63.1563 54.5979 63.2341 54.548 63.294C54.4981 63.3539 54.4333 63.3838 54.3534 63.3838H53.0394V63.1713H54.2547C54.3325 63.1713 54.3714 63.1314 54.3714 63.0515C54.3614 62.844 54.3006 62.6614 54.1888 62.5038C54.0292 62.2723 53.7738 62.1326 53.4225 62.0847C53.4106 62.0847 53.4046 62.0777 53.4046 62.0638V61.7674L54.3924 61.1957ZM55.2486 61.2406V63.0575C55.2486 63.0895 55.2586 63.1164 55.2786 63.1383C55.3005 63.1603 55.3285 63.1713 55.3624 63.1713H55.4013V63.3838H55.2636C55.1998 63.3838 55.1439 63.3628 55.096 63.3209C55.0281 63.2631 54.9942 63.1892 54.9942 63.0994V61.2406H55.2486ZM56.174 62.0069V63.0994C56.174 63.1733 56.1501 63.2371 56.1022 63.291C56.0483 63.3529 55.9814 63.3838 55.9016 63.3838H55.3808V63.1713H55.8058C55.8398 63.1713 55.8677 63.1593 55.8896 63.1354C55.9096 63.1154 55.9196 63.0895 55.9196 63.0575V62.0069H56.174ZM55.9705 63.6951C56.0104 63.6951 56.0443 63.7091 56.0722 63.737C56.1022 63.7669 56.1171 63.8018 56.1171 63.8418C56.1171 63.8837 56.1022 63.9186 56.0722 63.9465C56.0443 63.9764 56.0104 63.9914 55.9705 63.9914C55.9306 63.9914 55.8956 63.9764 55.8657 63.9465C55.8378 63.9186 55.8238 63.8837 55.8238 63.8418C55.8238 63.8018 55.8378 63.7669 55.8657 63.737C55.8956 63.7091 55.9306 63.6951 55.9705 63.6951ZM57.3745 62.0069V63.3568C57.3745 63.5783 57.3117 63.753 57.1859 63.8807C57.0882 63.9804 56.9565 64.0463 56.7908 64.0782C56.727 64.0902 56.6571 64.0962 56.5813 64.0962C56.5334 64.0962 56.4875 64.0952 56.4436 64.0932L56.3449 63.9705V63.8747C56.4027 63.8827 56.4656 63.8867 56.5334 63.8867C56.9245 63.8867 57.1201 63.7071 57.1201 63.3479V62.0069H57.3745ZM58.046 61.2406V63.0575C58.046 63.0895 58.056 63.1164 58.076 63.1383C58.0979 63.1603 58.1259 63.1713 58.1598 63.1713H58.1987V63.3838H58.061C57.9971 63.3838 57.9413 63.3628 57.8934 63.3209C57.8255 63.2631 57.7916 63.1892 57.7916 63.0994V61.2406H58.046ZM58.4865 61.3484C58.5284 61.3484 58.5633 61.3634 58.5912 61.3933C58.6192 61.4212 58.6332 61.4552 58.6332 61.4951C58.6332 61.537 58.6192 61.5729 58.5912 61.6028C58.5633 61.6308 58.5284 61.6447 58.4865 61.6447C58.4466 61.6447 58.4117 61.6308 58.3817 61.6028C58.3538 61.5729 58.3398 61.537 58.3398 61.4951C58.3398 61.4552 58.3538 61.4212 58.3817 61.3933C58.4117 61.3634 58.4466 61.3484 58.4865 61.3484ZM58.8517 61.3484C58.8916 61.3484 58.9255 61.3634 58.9534 61.3933C58.9834 61.4212 58.9983 61.4552 58.9983 61.4951C58.9983 61.537 58.9834 61.5729 58.9534 61.6028C58.9255 61.6308 58.8916 61.6447 58.8517 61.6447C58.8098 61.6447 58.7738 61.6308 58.7439 61.6028C58.716 61.5729 58.702 61.537 58.702 61.4951C58.702 61.4552 58.716 61.4212 58.7439 61.3933C58.7738 61.3634 58.8098 61.3484 58.8517 61.3484ZM58.9714 62.0069V63.0994C58.9714 63.1234 58.9684 63.1473 58.9624 63.1713H59.121V63.3838H59.0043L58.9175 63.279H58.9085C58.8547 63.3489 58.7848 63.3838 58.699 63.3838H58.1782V63.1713H58.6032C58.6351 63.1713 58.6611 63.1613 58.681 63.1413C58.705 63.1194 58.717 63.0915 58.717 63.0575V62.0069H58.9714ZM61.9455 62.0069V63.0994C61.9455 63.1773 61.9186 63.2441 61.8647 63.3C61.8128 63.3559 61.75 63.3838 61.6761 63.3838H61.0984L61.0026 63.279H60.9937C60.9378 63.3489 60.8679 63.3838 60.7841 63.3838H60.2094L60.1107 63.279H60.1017C60.0458 63.3489 59.976 63.3838 59.8922 63.3838H59.0989V63.1713H59.7934C59.8692 63.1713 59.9071 63.1334 59.9071 63.0575V62.3511H60.1615V63.0994C60.1615 63.1254 60.1596 63.1493 60.1556 63.1713H60.6854C60.7612 63.1713 60.7991 63.1334 60.7991 63.0575V62.1775H61.0535V63.0994C61.0535 63.1254 61.0505 63.1493 61.0446 63.1713H61.5773C61.6532 63.1713 61.6911 63.1334 61.6911 63.0575V62.0069H61.9455ZM66.6126 62.0069V63.0994C66.6126 63.1254 66.6096 63.1493 66.6036 63.1713H66.7623V63.3838H66.6455L66.5587 63.279H66.5527C66.4969 63.3489 66.427 63.3838 66.3432 63.3838H65.7536L65.6668 63.279H65.6608C65.6049 63.3489 65.5351 63.3838 65.4512 63.3838H64.8286C64.8227 63.6352 64.7339 63.8238 64.5623 63.9495C64.4246 64.0493 64.249 64.0992 64.0354 64.0992H63.7032C63.4777 64.0992 63.2951 64.0443 63.1554 63.9345C62.9898 63.8048 62.907 63.6123 62.907 63.3568V62.7313L63.0357 62.6265H63.1614V63.3509C63.1614 63.5504 63.2133 63.6891 63.3171 63.7669C63.4228 63.8467 63.6064 63.8867 63.8678 63.8867C64.1173 63.8867 64.2919 63.8527 64.3916 63.7849C64.5134 63.7031 64.5742 63.5584 64.5742 63.3509V62.3511H64.8286V63.1713H65.3525C65.4283 63.1713 65.4662 63.1334 65.4662 63.0575V62.1775H65.7206V63.0994C65.7206 63.1254 65.7176 63.1493 65.7117 63.1713H66.2444C66.3203 63.1713 66.3582 63.1334 66.3582 63.0575V62.0069H66.6126ZM68.0928 61.1957V61.4292L67.3415 61.8752C67.6528 61.959 67.8983 62.1147 68.0778 62.3421C68.2415 62.5497 68.3233 62.7891 68.3233 63.0605C68.3233 63.1064 68.3203 63.1433 68.3143 63.1713H68.4161V63.3838H68.3562L68.2694 63.279H68.2634C68.2036 63.3489 68.1337 63.3838 68.0539 63.3838H66.7399V63.1713H67.9551C68.0329 63.1713 68.0719 63.1314 68.0719 63.0515C68.0619 62.844 68.001 62.6614 67.8893 62.5038C67.7296 62.2723 67.4742 62.1326 67.123 62.0847C67.111 62.0847 67.105 62.0777 67.105 62.0638V61.7674L68.0928 61.1957ZM69.1846 61.2406V63.0994C69.1846 63.1773 69.1587 63.2431 69.1068 63.297C69.0529 63.3549 68.9881 63.3838 68.9122 63.3838H68.3914V63.1713H68.8165C68.8544 63.1713 68.8833 63.1583 68.9033 63.1324C68.9212 63.1104 68.9302 63.0855 68.9302 63.0575V61.2406H69.1846ZM70.5617 63.3539C70.458 63.3918 70.3492 63.4107 70.2355 63.4107C70.02 63.4107 69.8493 63.3349 69.7236 63.1832C69.6119 63.0495 69.556 62.8789 69.556 62.6714C69.556 62.4619 69.6149 62.2943 69.7326 62.1685C69.8583 62.0368 70.0279 61.971 70.2415 61.971C70.4031 61.971 70.5348 62.0119 70.6366 62.0937C70.7583 62.1915 70.8192 62.3322 70.8192 62.5158V63.3568C70.8172 63.6123 70.7333 63.8048 70.5677 63.9345C70.4839 64.0004 70.3831 64.0463 70.2654 64.0722C70.1876 64.0882 70.1068 64.0962 70.023 64.0962C69.9751 64.0962 69.9292 64.0952 69.8853 64.0932L69.7865 63.9705V63.8747C69.8464 63.8827 69.9092 63.8867 69.9751 63.8867C70.3642 63.8867 70.5597 63.7091 70.5617 63.3539ZM70.5617 62.5158C70.5617 62.392 70.5178 62.2992 70.43 62.2374C70.3801 62.2035 70.3173 62.1865 70.2415 62.1865C70.1078 62.1865 70.002 62.2314 69.9242 62.3212C69.8484 62.411 69.8104 62.5357 69.8104 62.6953C69.8104 62.847 69.8543 62.9667 69.9421 63.0545C70.02 63.1363 70.1237 63.1773 70.2534 63.1773C70.3672 63.1773 70.4699 63.1593 70.5617 63.1234V62.5158ZM71.9782 62.0069V63.3568C71.9782 63.5783 71.9154 63.753 71.7896 63.8807C71.6919 63.9804 71.5602 64.0463 71.3945 64.0782C71.3307 64.0902 71.2608 64.0962 71.185 64.0962C71.1371 64.0962 71.0912 64.0952 71.0473 64.0932L70.9485 63.9705V63.8747C71.0064 63.8827 71.0693 63.8867 71.1371 63.8867C71.5282 63.8867 71.7238 63.7071 71.7238 63.3479V62.0069H71.9782ZM73.6512 61.3484C73.6912 61.3484 73.7251 61.3634 73.753 61.3933C73.7829 61.4212 73.7979 61.4552 73.7979 61.4951C73.7979 61.537 73.7829 61.5729 73.753 61.6028C73.7251 61.6308 73.6912 61.6447 73.6512 61.6447C73.6113 61.6447 73.5764 61.6308 73.5465 61.6028C73.5185 61.5729 73.5046 61.537 73.5046 61.4951C73.5046 61.4552 73.5185 61.4212 73.5465 61.3933C73.5764 61.3634 73.6113 61.3484 73.6512 61.3484ZM74.0134 61.3484C74.0553 61.3484 74.0903 61.3634 74.1182 61.3933C74.1481 61.4212 74.1631 61.4552 74.1631 61.4951C74.1631 61.537 74.1481 61.5729 74.1182 61.6028C74.0903 61.6308 74.0553 61.6447 74.0134 61.6447C73.9735 61.6447 73.9386 61.6308 73.9087 61.6028C73.8807 61.5729 73.8668 61.537 73.8668 61.4951C73.8668 61.4552 73.8807 61.4212 73.9087 61.3933C73.9386 61.3634 73.9735 61.3484 74.0134 61.3484ZM74.1631 61.9261V63.0575C74.1631 63.0934 74.1731 63.1214 74.193 63.1413C74.211 63.1613 74.2309 63.1713 74.2529 63.1713H74.3127V63.3838H74.187C74.0952 63.3838 74.0224 63.3489 73.9685 63.279C73.8388 63.3708 73.6991 63.4167 73.5495 63.4167C73.3399 63.4167 73.1743 63.3349 73.0526 63.1713C72.9528 63.0376 72.9029 62.8779 72.9029 62.6924C72.9029 62.4748 72.9748 62.2943 73.1184 62.1506C73.2462 62.0209 73.4028 61.956 73.5884 61.956C73.6941 61.956 73.8009 61.98 73.9087 62.0279L74.0374 61.9261H74.1631ZM73.9087 62.2374C73.8209 62.1935 73.7321 62.1715 73.6423 62.1715C73.4906 62.1715 73.3679 62.2314 73.2741 62.3511C73.1963 62.4489 73.1574 62.5646 73.1574 62.6983C73.1574 62.858 73.1953 62.9837 73.2711 63.0755C73.3449 63.1593 73.4447 63.2012 73.5704 63.2012C73.6782 63.2012 73.7909 63.1723 73.9087 63.1144V62.2374ZM74.9486 63.1713C74.8189 63.0376 74.7541 62.866 74.7541 62.6564C74.7541 62.4329 74.8279 62.2573 74.9756 62.1296C75.0993 62.0239 75.2589 61.971 75.4545 61.971C75.5602 61.971 75.671 61.9879 75.7867 62.0219V62.2224C75.669 62.1925 75.5662 62.1775 75.4784 62.1775C75.3308 62.1775 75.215 62.2234 75.1312 62.3152C75.0494 62.405 75.0085 62.5297 75.0085 62.6894C75.0085 62.8191 75.0524 62.9338 75.1402 63.0336C75.222 63.1254 75.3168 63.1713 75.4245 63.1713H76.0292V63.2551L75.9244 63.3838H74.2931V63.1713H74.9486ZM76.6163 61.2406V63.0575C76.6163 63.0895 76.6263 63.1164 76.6463 63.1383C76.6682 63.1603 76.6962 63.1713 76.7301 63.1713H76.769V63.3838H76.6313C76.5675 63.3838 76.5116 63.3628 76.4637 63.3209C76.3958 63.2631 76.3619 63.1892 76.3619 63.0994V61.2406H76.6163ZM79.5951 62.0069V63.0994C79.5951 63.1773 79.5681 63.2441 79.5142 63.3C79.4624 63.3559 79.3995 63.3838 79.3257 63.3838H78.748L78.6522 63.279H78.6432C78.5873 63.3489 78.5175 63.3838 78.4337 63.3838H77.859L77.7602 63.279H77.7512C77.6953 63.3489 77.6255 63.3838 77.5417 63.3838H76.7485V63.1713H77.4429C77.5187 63.1713 77.5567 63.1334 77.5567 63.0575V62.3511H77.8111V63.0994C77.8111 63.1254 77.8091 63.1493 77.8051 63.1713H78.3349C78.4107 63.1713 78.4486 63.1334 78.4486 63.0575V62.1775H78.7031V63.0994C78.7031 63.1254 78.7001 63.1493 78.6941 63.1713H79.2269C79.3027 63.1713 79.3406 63.1334 79.3406 63.0575V62.0069H79.5951Z" fill="#1C1C28"/>
<rect x="69" y="58" width="7" height="1" rx="0.5" fill="#E8E8E8"/>
<path d="M77.875 20.8438H77.125C76.5738 20.8438 76.4062 20.6762 76.4062 20.125V18.875C76.4062 18.3238 76.5738 18.1562 77.125 18.1562H77.875C78.4262 18.1562 78.5938 18.3238 78.5938 18.875V20.125C78.5938 20.6762 78.4262 20.8438 77.875 20.8438ZM77.125 18.3438C76.6775 18.3438 76.5938 18.4288 76.5938 18.875V20.125C76.5938 20.5712 76.6775 20.6562 77.125 20.6562H77.875C78.3225 20.6562 78.4062 20.5712 78.4062 20.125V18.875C78.4062 18.4288 78.3225 18.3438 77.875 18.3438H77.125Z" fill="#83899F"/>
<path d="M77.75 18.7812H77.25C77.1988 18.7812 77.1562 18.7387 77.1562 18.6875C77.1562 18.6363 77.1988 18.5938 77.25 18.5938H77.75C77.8012 18.5938 77.8438 18.6363 77.8438 18.6875C77.8438 18.7387 77.8012 18.7812 77.75 18.7812Z" fill="#83899F"/>
<path d="M77.5004 20.4825C77.3416 20.4825 77.2129 20.3538 77.2129 20.195C77.2129 20.0363 77.3416 19.9075 77.5004 19.9075C77.6591 19.9075 77.7879 20.0363 77.7879 20.195C77.7879 20.3538 77.6591 20.4825 77.5004 20.4825ZM77.5004 20.0938C77.4454 20.0938 77.4004 20.1388 77.4004 20.1938C77.4004 20.2488 77.4454 20.2938 77.5004 20.2938C77.5554 20.2938 77.6004 20.2488 77.6004 20.1938C77.6004 20.1388 77.5554 20.0938 77.5004 20.0938Z" fill="#83899F"/>
<path d="M77.675 58.825C77.6512 58.825 77.6275 58.8162 77.6087 58.7975L77.4338 58.6225C77.4163 58.605 77.4062 58.5812 77.4062 58.5562V58.2075C77.4062 58.1562 77.4487 58.1137 77.5 58.1137C77.5512 58.1137 77.5937 58.1562 77.5937 58.2075V58.5175L77.7413 58.665C77.7775 58.7012 77.7775 58.7612 77.7413 58.7975C77.7225 58.8162 77.6987 58.825 77.675 58.825Z" fill="#83899F"/>
<path d="M77.5 59.4062C77.3012 59.4062 77.1137 59.3437 76.9563 59.225C76.9525 59.2225 76.95 59.2213 76.9463 59.2188C76.7225 59.045 76.5938 58.7825 76.5938 58.5C76.5938 58 77 57.5938 77.5 57.5938C78 57.5938 78.4062 58 78.4062 58.5C78.4062 58.7812 78.2787 59.0412 78.0575 59.215C78.0537 59.2175 78.0512 59.22 78.0475 59.2225C77.8887 59.3425 77.7 59.4062 77.5 59.4062ZM77.0538 59.0638C77.0575 59.0663 77.06 59.0675 77.0625 59.07C77.3162 59.2662 77.6888 59.265 77.9412 59.0675C77.9438 59.065 77.9475 59.0625 77.95 59.0612C78.1213 58.9237 78.2188 58.72 78.2188 58.5C78.2188 58.1037 77.8963 57.7812 77.5 57.7812C77.1037 57.7812 76.7812 58.1037 76.7812 58.5C76.7812 58.7213 76.88 58.9262 77.0538 59.0638Z" fill="#83899F"/>
<path d="M77.5683 59.8438H77.4321C77.1871 59.8438 77.0371 59.7225 76.9733 59.4713L76.9108 59.1625C76.9058 59.135 76.9121 59.1063 76.9308 59.085C76.9496 59.0638 76.9758 59.0513 77.0033 59.0513H77.0046C77.0258 59.0513 77.0458 59.0575 77.0621 59.0713C77.3158 59.2675 77.6883 59.2663 77.9408 59.0688C77.9796 59.0388 78.0408 59.045 78.0721 59.0838C78.0896 59.105 78.0971 59.1338 78.0921 59.1613L78.0283 59.47C77.9621 59.7225 77.8121 59.8438 77.5683 59.8438ZM77.1358 59.33L77.1558 59.43C77.2033 59.6175 77.3008 59.6563 77.4321 59.6563H77.5683C77.6983 59.6563 77.7958 59.6175 77.8446 59.4275L77.8646 59.33C77.6383 59.43 77.3633 59.4313 77.1358 59.33Z" fill="#83899F"/>
<path d="M78.0002 57.9525C77.9789 57.9525 77.9577 57.945 77.9414 57.9325C77.6889 57.735 77.3164 57.7337 77.0627 57.93C77.0239 57.96 76.9627 57.9538 76.9327 57.9162C76.9152 57.895 76.9077 57.8662 76.9127 57.8388L76.9739 57.5337C77.0377 57.2775 77.1877 57.1562 77.4327 57.1562H77.5689C77.8127 57.1562 77.9627 57.2775 78.0264 57.5263L78.0914 57.84C78.0977 57.8675 78.0902 57.8963 78.0727 57.9175C78.0552 57.94 78.0289 57.9525 78.0002 57.9525ZM77.5002 57.5938C77.6289 57.5938 77.7514 57.62 77.8652 57.67L77.8439 57.5688C77.7952 57.3838 77.6989 57.3438 77.5689 57.3438H77.4327C77.3014 57.3438 77.2039 57.3825 77.1564 57.575L77.1364 57.67C77.2502 57.62 77.3727 57.5938 77.5002 57.5938Z" fill="#83899F"/>
<g filter="url(#filter0_d_5_5648)">
<path d="M13 35.3818C13 34.6187 13.6187 34 14.3818 34H102.818C103.581 34 104.2 34.6187 104.2 35.3818V52.6545C104.2 53.4177 103.581 54.0364 102.818 54.0364H14.3818C13.6187 54.0364 13 53.4177 13 52.6545V35.3818Z" fill="white"/>
<path d="M13.0978 35.3818C13.0978 34.6727 13.6727 34.0978 14.3818 34.0978H102.818C103.527 34.0978 104.102 34.6727 104.102 35.3818V52.6545C104.102 53.3637 103.527 53.9385 102.818 53.9385H14.3818C13.6727 53.9385 13.0978 53.3637 13.0978 52.6545V35.3818Z" stroke="#99A1B7" stroke-opacity="0.6" stroke-width="0.195668"/>
<rect x="89" y="39" width="7" height="1" rx="0.5" fill="#E8E8E8"/>
<rect x="70.3447" y="47.8174" width="30.9527" height="2.07273" rx="1.03636" fill="#E8E8E8"/>
<path d="M77.1744 43.6638V45.0399H77.3548V45.291H77.1744C77.1674 45.5858 77.0624 45.8063 76.8596 45.9525C76.6969 46.0728 76.4858 46.1329 76.2264 46.1329C76.1863 46.1329 76.1356 46.1318 76.0743 46.1294L75.9576 45.9844V45.8712C76.0259 45.8806 76.1002 45.8853 76.1804 45.8853C76.6426 45.8853 76.8738 45.6731 76.8738 45.2486V43.6638H77.1744ZM77.8214 44.2404C77.9039 44.0329 78.0419 43.8713 78.2353 43.7558C78.3909 43.6661 78.5524 43.6213 78.7199 43.6213C78.8873 43.6213 79.0477 43.6661 79.201 43.7558C79.3967 43.8713 79.5347 44.0329 79.6149 44.2404L79.583 44.3253C79.4203 44.3937 79.2871 44.4868 79.1833 44.6047C79.0772 44.7274 79.01 44.8724 78.9817 45.0399H79.6502V45.291H78.9321C78.8614 45.291 78.793 45.2568 78.727 45.1884H78.7164C78.6527 45.2568 78.5843 45.291 78.5112 45.291H77.3297V45.0399H78.4581C78.4322 44.896 78.3732 44.7604 78.2812 44.633C78.1751 44.501 78.0336 44.3984 77.8567 44.3253L77.8214 44.2404ZM79.2894 44.205C79.2116 44.0918 79.1232 44.0069 79.0241 43.9503C78.9298 43.9008 78.8284 43.876 78.7199 43.876C78.6114 43.876 78.5135 43.8984 78.4263 43.9432C78.3225 43.9951 78.2305 44.0824 78.1504 44.205C78.273 44.2593 78.3779 44.3359 78.4652 44.435C78.5737 44.5576 78.6562 44.7109 78.7128 44.8948H78.7234C78.7824 44.7038 78.8673 44.547 78.9781 44.4243C79.0677 44.33 79.1715 44.2569 79.2894 44.205ZM81.7883 42.546C81.8355 42.546 81.8744 42.5625 81.9051 42.5955C81.9381 42.6285 81.9546 42.6674 81.9546 42.7122C81.9546 42.757 81.9381 42.7959 81.9051 42.8289C81.8744 42.862 81.8355 42.8785 81.7883 42.8785C81.7435 42.8785 81.7046 42.862 81.6716 42.8289C81.6386 42.7959 81.6221 42.757 81.6221 42.7122C81.6221 42.6674 81.6386 42.6285 81.6716 42.5955C81.7046 42.5625 81.7435 42.546 81.7883 42.546ZM81.5761 42.8855C81.6232 42.8855 81.6633 42.9032 81.6964 42.9386C81.7317 42.9716 81.7494 43.0117 81.7494 43.0589C81.7494 43.1084 81.7317 43.1509 81.6964 43.1862C81.6633 43.2192 81.6232 43.2358 81.5761 43.2358C81.5266 43.2358 81.4841 43.2192 81.4487 43.1862C81.4157 43.1509 81.3992 43.1084 81.3992 43.0589C81.3992 43.0117 81.4157 42.9716 81.4487 42.9386C81.4841 42.9032 81.5266 42.8855 81.5761 42.8855ZM82.0041 42.8855C82.0513 42.8855 82.0914 42.9032 82.1244 42.9386C82.1598 42.9716 82.1774 43.0117 82.1774 43.0589C82.1774 43.1084 82.1598 43.1509 82.1244 43.1862C82.0914 43.2192 82.0513 43.2358 82.0041 43.2358C81.9569 43.2358 81.9157 43.2192 81.8803 43.1862C81.8473 43.1509 81.8308 43.1084 81.8308 43.0589C81.8308 43.0117 81.8473 42.9716 81.8803 42.9386C81.9157 42.9032 81.9569 42.8855 82.0041 42.8855ZM82.9911 43.6638V44.955C82.9911 44.9856 82.9875 45.0139 82.9804 45.0399H83.1715V45.291H83.03L82.9309 45.1672H82.9203C82.8543 45.2497 82.7717 45.291 82.6727 45.291H81.9758L81.8768 45.1672H81.8661C81.8001 45.2497 81.7176 45.291 81.6185 45.291H80.9216L80.8226 45.1672H80.812C80.746 45.2497 80.6634 45.291 80.5644 45.291H79.6269V45.0399H80.4476C80.5372 45.0399 80.5821 44.995 80.5821 44.9054V44.0706H80.8827V44.955C80.8827 44.9856 80.8804 45.0139 80.8757 45.0399H81.5018C81.5914 45.0399 81.6362 44.995 81.6362 44.9054V43.8654H81.9369V44.955C81.9369 44.9856 81.9334 45.0139 81.9263 45.0399H82.556C82.6456 45.0399 82.6904 44.995 82.6904 44.9054V43.6638H82.9911ZM84.0811 42.7582V44.955C84.0811 45.0469 84.0504 45.1248 83.9891 45.1884C83.9254 45.2568 83.8488 45.291 83.7592 45.291H83.1437V45.0399H83.646C83.6908 45.0399 83.725 45.0245 83.7486 44.9939C83.7698 44.9679 83.7804 44.9384 83.7804 44.9054V42.7582H84.0811ZM84.8702 42.7582V45.2556L84.7181 45.3795H84.5695V42.7582H84.8702ZM88.2741 44.442C88.5949 43.8949 89.0205 43.6213 89.5512 43.6213C89.8294 43.6213 90.0547 43.7086 90.2268 43.8831C90.3825 44.0411 90.4603 44.2416 90.4603 44.4845V44.955C90.4603 44.9856 90.4567 45.0139 90.4497 45.0399H90.5735V45.291H90.4992L90.3966 45.1672H90.386C90.32 45.2497 90.2374 45.291 90.1384 45.291H88.2777C88.2706 45.5575 88.1845 45.765 88.0194 45.9136C87.852 46.0622 87.6256 46.1365 87.3402 46.1365H86.9476C86.667 46.1365 86.4429 46.0645 86.2755 45.9207C86.0962 45.7674 86.0066 45.5469 86.0066 45.2592V44.5199L86.1587 44.396H86.3073V45.2521C86.3073 45.4879 86.3686 45.6518 86.4913 45.7438C86.6163 45.8381 86.8344 45.8853 87.1457 45.8853C87.4381 45.8853 87.6445 45.8452 87.7647 45.765C87.9062 45.6683 87.977 45.4974 87.977 45.2521L87.9735 43.6638H88.2741V44.442ZM90.1561 44.4526C90.1561 44.2522 90.0794 44.1001 89.9261 43.9963C89.8129 43.9185 89.6714 43.8796 89.5016 43.8796C89.2847 43.8796 89.0842 43.9503 88.9003 44.0918C88.6432 44.2899 88.4345 44.6059 88.2741 45.0399H90.0252C90.1124 45.0399 90.1561 44.995 90.1561 44.9054V44.4526ZM91.7141 42.8855C91.7613 42.8855 91.8014 42.9032 91.8344 42.9386C91.8698 42.9716 91.8875 43.0117 91.8875 43.0589C91.8875 43.1084 91.8698 43.1509 91.8344 43.1862C91.8014 43.2192 91.7613 43.2358 91.7141 43.2358C91.6646 43.2358 91.6221 43.2192 91.5868 43.1862C91.5538 43.1509 91.5372 43.1084 91.5372 43.0589C91.5372 43.0117 91.5538 42.9716 91.5868 42.9386C91.6221 42.9032 91.6646 42.8855 91.7141 42.8855ZM92.1422 42.8855C92.1917 42.8855 92.2329 42.9032 92.266 42.9386C92.299 42.9716 92.3155 43.0117 92.3155 43.0589C92.3155 43.1084 92.299 43.1509 92.266 43.1862C92.2329 43.2192 92.1917 43.2358 92.1422 43.2358C92.095 43.2358 92.0537 43.2192 92.0183 43.1862C91.9853 43.1509 91.9688 43.1084 91.9688 43.0589C91.9688 43.0117 91.9853 42.9716 92.0183 42.9386C92.0537 42.9032 92.095 42.8855 92.1422 42.8855ZM91.3391 45.0399C91.2495 44.9573 91.1835 44.8547 91.1411 44.7321C91.108 44.633 91.0915 44.5352 91.0915 44.4385C91.0915 44.1862 91.167 43.9857 91.3179 43.8371C91.4665 43.6933 91.6681 43.6213 91.9228 43.6213C92.1162 43.6213 92.2707 43.6709 92.3862 43.7699C92.5207 43.8831 92.5902 44.0482 92.5949 44.2652V44.955C92.5949 45.0469 92.5631 45.1259 92.4994 45.192C92.4381 45.258 92.3638 45.291 92.2766 45.291H90.5468V45.0399H91.3391ZM92.2907 44.2652C92.2907 44.1331 92.2518 44.0317 92.174 43.9609C92.1127 43.9043 92.029 43.876 91.9228 43.876C91.7271 43.876 91.5832 43.9444 91.4913 44.0812C91.4252 44.1755 91.3922 44.2982 91.3922 44.4491C91.3946 44.6095 91.4465 44.7462 91.5479 44.8594C91.654 44.9797 91.7943 45.0399 91.9688 45.0399H92.1598C92.2471 45.0399 92.2907 44.995 92.2907 44.9054V44.2652ZM94.5175 42.8855C94.5646 42.8855 94.6047 42.9032 94.6377 42.9386C94.6731 42.9716 94.6908 43.0117 94.6908 43.0589C94.6908 43.1084 94.6731 43.1509 94.6377 43.1862C94.6047 43.2192 94.5646 43.2358 94.5175 43.2358C94.4703 43.2358 94.429 43.2192 94.3937 43.1862C94.3606 43.1509 94.3441 43.1084 94.3441 43.0589C94.3441 43.0117 94.3606 42.9716 94.3937 42.9386C94.429 42.9032 94.4703 42.8855 94.5175 42.8855ZM94.9455 42.8855C94.995 42.8855 95.0363 42.9032 95.0693 42.9386C95.1047 42.9716 95.1224 43.0117 95.1224 43.0589C95.1224 43.1084 95.1047 43.1509 95.0693 43.1862C95.0363 43.2192 94.995 43.2358 94.9455 43.2358C94.8983 43.2358 94.8571 43.2192 94.8217 43.1862C94.7887 43.1509 94.7722 43.1084 94.7722 43.0589C94.7722 43.0117 94.7887 42.9716 94.8217 42.9386C94.8571 42.9032 94.8983 42.8855 94.9455 42.8855ZM95.1224 43.5683V44.9054C95.1224 44.9479 95.1342 44.9809 95.1577 45.0045C95.179 45.0281 95.2026 45.0399 95.2285 45.0399H95.2992V45.291H95.1507C95.0422 45.291 94.9561 45.2497 94.8924 45.1672C94.7391 45.2757 94.5741 45.3299 94.3972 45.3299C94.1496 45.3299 93.9538 45.2332 93.81 45.0399C93.6921 44.8819 93.6331 44.6932 93.6331 44.4739C93.6331 44.2168 93.718 44.0034 93.8878 43.8336C94.0387 43.6803 94.2239 43.6036 94.4432 43.6036C94.5682 43.6036 94.6943 43.6319 94.8217 43.6885L94.9738 43.5683H95.1224ZM94.8217 43.9362C94.7179 43.8843 94.613 43.8583 94.5069 43.8583C94.3276 43.8583 94.1826 43.9291 94.0717 44.0706C93.9798 44.1862 93.9338 44.3229 93.9338 44.4809C93.9338 44.6696 93.9786 44.8182 94.0682 44.9267C94.1555 45.0257 94.2734 45.0752 94.422 45.0752C94.5493 45.0752 94.6826 45.041 94.8217 44.9726V43.9362ZM95.9128 44.2652C95.9128 44.0246 95.9977 43.8477 96.1675 43.7345C96.2783 43.6614 96.4257 43.6249 96.6097 43.6249C96.8337 43.6249 97.0212 43.7015 97.1721 43.8548C97.323 44.0081 97.3985 44.2227 97.3985 44.4986C97.3985 44.7557 97.323 44.9726 97.1721 45.1495C97.0306 45.3146 96.8514 45.3971 96.6344 45.3971C96.4316 45.3971 96.2665 45.3205 96.1392 45.1672C96.0755 45.2497 95.9906 45.291 95.8845 45.291H95.276V45.0399H95.7783C95.8161 45.0399 95.8479 45.0269 95.8739 45.0009C95.8998 44.975 95.9128 44.9432 95.9128 44.9054V44.2652ZM96.2135 44.9585C96.3361 45.0835 96.4717 45.146 96.6203 45.146C96.7618 45.146 96.8761 45.0882 96.9634 44.9726C97.053 44.8547 97.0978 44.7026 97.0978 44.5163C97.0978 44.3088 97.0459 44.1449 96.9422 44.0246C96.8549 43.9256 96.7394 43.876 96.5955 43.876C96.487 43.876 96.3986 43.9079 96.3302 43.9715C96.2524 44.0447 96.2135 44.1425 96.2135 44.2652V44.9585ZM98.0585 43.6426C98.1434 43.6284 98.2342 43.6213 98.3309 43.6213C98.5927 43.6213 98.8037 43.7003 98.9641 43.8583C99.108 44.0046 99.1799 44.1897 99.1799 44.4137V44.955C99.1799 44.9856 99.1775 45.0139 99.1728 45.0399H99.2719V45.291H99.2188L99.1198 45.1672H99.1091C99.0903 45.1908 99.069 45.212 99.0455 45.2309C98.9889 45.271 98.9276 45.291 98.8615 45.291H97.7012V45.0399H98.7483C98.8356 45.0399 98.8792 44.995 98.8792 44.9054V44.4562C98.8792 44.2887 98.8285 44.1496 98.7271 44.0388C98.6186 43.9256 98.4512 43.8678 98.2248 43.8654C98.1587 43.8654 98.1033 43.8701 98.0585 43.8796V43.6426ZM100.36 42.8855C100.409 42.8855 100.45 42.9032 100.483 42.9386C100.517 42.9716 100.533 43.0117 100.533 43.0589C100.533 43.1084 100.517 43.1509 100.483 43.1862C100.45 43.2192 100.409 43.2358 100.36 43.2358C100.313 43.2358 100.271 43.2192 100.236 43.1862C100.203 43.1509 100.186 43.1084 100.186 43.0589C100.186 43.0117 100.203 42.9716 100.236 42.9386C100.271 42.9032 100.313 42.8855 100.36 42.8855ZM99.7123 43.7239C99.9293 43.6555 100.132 43.6213 100.321 43.6213C100.613 43.6213 100.836 43.7121 100.989 43.8937C101.121 44.0494 101.187 44.2534 101.187 44.5057V44.955C101.187 45.0351 101.163 45.1059 101.113 45.1672C101.052 45.2497 100.97 45.291 100.869 45.291H99.2418V45.0399H100.752C100.842 45.0399 100.887 44.995 100.887 44.9054V44.4951C100.887 44.3111 100.838 44.1661 100.742 44.06C100.636 43.9421 100.481 43.8831 100.278 43.8831C100.156 43.8831 99.967 43.9091 99.7123 43.9609V43.7239Z" fill="#1C1C28"/>
</g>
<path d="M30.7125 42.9875V43.9375H30.3375V42.9875C30.3375 42.92 30.2775 42.8875 30.2375 42.8875C30.225 42.8875 30.2125 42.89 30.2 42.895L28.2175 43.6425C28.085 43.6925 28 43.8175 28 43.96V44.1275C27.7725 44.2975 27.625 44.57 27.625 44.8775V43.96C27.625 43.6625 27.8075 43.3975 28.085 43.2925L30.07 42.5425C30.125 42.5225 30.1825 42.5125 30.2375 42.5125C30.4875 42.5125 30.7125 42.715 30.7125 42.9875Z" fill="#0771DE"/>
<path d="M32.3752 45.625V45.875C32.3752 45.9425 32.3227 45.9975 32.2527 46H31.8877C31.7552 46 31.6352 45.9025 31.6252 45.7725C31.6177 45.695 31.6477 45.6225 31.6977 45.5725C31.7427 45.525 31.8052 45.5 31.8727 45.5H32.2502C32.3227 45.5025 32.3752 45.5575 32.3752 45.625Z" fill="#0771DE"/>
<path d="M31.87 45.2375H32.125C32.2625 45.2375 32.375 45.125 32.375 44.9875V44.8775C32.375 44.36 31.9525 43.9375 31.435 43.9375H28.565C28.3525 43.9375 28.1575 44.0075 28 44.1275C27.7725 44.2975 27.625 44.57 27.625 44.8775V46.56C27.625 47.0775 28.0475 47.5 28.565 47.5H31.435C31.9525 47.5 32.375 47.0775 32.375 46.56V46.5125C32.375 46.375 32.2625 46.2625 32.125 46.2625H31.9075C31.6675 46.2625 31.4375 46.115 31.375 45.8825C31.3225 45.6925 31.385 45.51 31.51 45.3875C31.6025 45.2925 31.73 45.2375 31.87 45.2375ZM30.5 45.1875H28.75C28.6475 45.1875 28.5625 45.1025 28.5625 45C28.5625 44.8975 28.6475 44.8125 28.75 44.8125H30.5C30.6025 44.8125 30.6875 44.8975 30.6875 45C30.6875 45.1025 30.6025 45.1875 30.5 45.1875Z" fill="#0771DE"/>
<rect x="23.8457" y="44" width="2.92308" height="0.666775" rx="0.333388" fill="#E8E8E8"/>
<rect x="18" y="45.3332" width="8.76923" height="0.666775" rx="0.333388" fill="#E8E8E8"/>
<g clip-path="url(#clip0_5_5648)">
<path d="M99.7 38.3H100.1C100.14 38.3003 100.178 38.2846 100.205 38.2564C100.237 38.2252 100.253 38.1814 100.249 38.137C100.241 38.0582 100.174 37.9989 100.094 38H99.45C99.3395 38 99.25 38.0896 99.25 38.2V40.8C99.25 40.9104 99.3395 41 99.45 41C99.5604 41 99.65 40.9104 99.65 40.8V39.95C99.65 39.9224 99.6724 39.9 99.7 39.9H100.1C100.14 39.9003 100.178 39.8846 100.205 39.8563C100.237 39.8252 100.253 39.7813 100.249 39.7369C100.241 39.6582 100.174 39.5989 100.094 39.6H99.7C99.6724 39.6 99.65 39.5776 99.65 39.55V39.5H100.15C100.178 39.5 100.2 39.4776 100.2 39.45C100.2 39.4224 100.178 39.4 100.15 39.4H99.65V39.3H100.15C100.178 39.3 100.2 39.2776 100.2 39.25C100.2 39.2224 100.178 39.2 100.15 39.2H99.65V39.1H100.15C100.178 39.1 100.2 39.0776 100.2 39.05C100.2 39.0224 100.178 39 100.15 39H99.65V38.9H100.15C100.178 38.9 100.2 38.8776 100.2 38.85C100.2 38.8224 100.178 38.8 100.15 38.8H99.65V38.7H100.15C100.178 38.7 100.2 38.6776 100.2 38.65C100.2 38.6224 100.178 38.6 100.15 38.6H99.65V38.5H100.15C100.178 38.5 100.2 38.4776 100.2 38.45C100.2 38.4224 100.178 38.4 100.15 38.4H99.65V38.35C99.65 38.3224 99.6724 38.3 99.7 38.3ZM99.7 39.7H100.094C100.122 39.6989 100.146 39.7184 100.15 39.7454C100.151 39.7603 100.146 39.775 100.135 39.7854C100.126 39.7949 100.113 39.8001 100.1 39.8H99.7C99.6172 39.8 99.55 39.8671 99.55 39.95V40.8C99.55 40.8552 99.5052 40.9 99.45 40.9C99.3948 40.9 99.35 40.8552 99.35 40.8V38.2C99.35 38.1448 99.3948 38.1 99.45 38.1H100.094C100.122 38.0989 100.146 38.1184 100.15 38.1454C100.151 38.1604 100.146 38.1753 100.135 38.1857C100.126 38.195 100.113 38.2002 100.1 38.2H99.7C99.6172 38.2 99.55 38.2672 99.55 38.35V39.55C99.55 39.6328 99.6172 39.7 99.7 39.7Z" fill="#83899F" stroke="#83899F" stroke-width="0.05"/>
<path d="M98.7498 40.8002C98.8603 40.8002 98.9498 40.7107 98.9498 40.6002V40.5002C98.9498 40.3898 98.8603 40.3002 98.7498 40.3002C98.6393 40.3002 98.5498 40.3898 98.5498 40.5002V40.6002C98.5498 40.7107 98.6393 40.8002 98.7498 40.8002ZM98.6498 40.5002C98.6498 40.445 98.6946 40.4002 98.7498 40.4002C98.805 40.4002 98.8498 40.445 98.8498 40.5002V40.6002C98.8498 40.6555 98.805 40.7002 98.7498 40.7002C98.6946 40.7002 98.6498 40.6554 98.6498 40.6002V40.5002Z" fill="#83899F"/>
<path d="M97.6502 40.8002C97.7606 40.8002 97.8502 40.7107 97.8502 40.6002V40.5002C97.8502 40.3898 97.7606 40.3002 97.6502 40.3002C97.5397 40.3002 97.4502 40.3898 97.4502 40.5002V40.6002C97.4502 40.7107 97.5397 40.8002 97.6502 40.8002ZM97.5502 40.5002C97.5502 40.445 97.595 40.4002 97.6502 40.4002C97.7054 40.4002 97.7502 40.445 97.7502 40.5002V40.6002C97.7502 40.6555 97.7054 40.7002 97.6502 40.7002C97.595 40.7002 97.5502 40.6554 97.5502 40.6002V40.5002Z" fill="#83899F"/>
<path d="M97.637 41.0002H97.6487C97.7511 40.9998 97.8491 40.9593 97.9219 40.8874C98.0034 40.8081 98.0496 40.6993 98.05 40.5855V40.2745C98.0499 40.2081 98.0763 40.1443 98.1234 40.0974L98.2 40.0208L98.2766 40.0974C98.3235 40.1445 98.3498 40.2081 98.35 40.2745V40.5856C98.3505 40.6994 98.3968 40.8083 98.4785 40.8876C98.551 40.9593 98.6488 40.9997 98.7508 41.0002H98.763C98.9788 40.9932 99.1501 40.8161 99.15 40.6002V40.5114C99.1533 40.3927 99.1037 40.2786 99.0146 40.2001C98.9255 40.1215 98.8061 40.0866 98.6887 40.1047C98.6654 40.1089 98.6423 40.0961 98.6335 40.0741L98.435 39.5712L98.846 38.5232C98.8686 38.4702 98.8803 38.4132 98.8804 38.3557C98.8877 38.2191 98.8209 38.0891 98.7054 38.0157C98.6806 37.9999 98.65 37.996 98.622 38.0052C98.5935 38.0144 98.5706 38.0357 98.5595 38.0635L98.2 38.9749L97.8404 38.0631C97.8292 38.0352 97.806 38.0139 97.7773 38.0049C97.7495 37.996 97.7191 37.9999 97.6945 38.0158C97.5791 38.0892 97.5122 38.2192 97.5195 38.3558C97.5196 38.4129 97.5311 38.4694 97.5535 38.522L97.965 39.5708L97.7665 40.0741C97.7578 40.0965 97.7342 40.1094 97.7106 40.1046C97.6818 40.1003 97.6526 40.0992 97.6235 40.1012C97.4103 40.1182 97.247 40.2978 97.25 40.5116V40.6002C97.2501 40.816 97.4213 40.993 97.637 41.0002ZM98.6514 38.0998C98.738 38.155 98.7875 38.2532 98.7805 38.3557C98.7804 38.4004 98.7712 38.4446 98.7535 38.4857L98.3813 39.4347L98.2537 39.1113L98.6514 38.0998ZM97.6194 38.3559C97.6124 38.2537 97.6615 38.1558 97.7475 38.1002L98.5405 40.1109C98.5665 40.1763 98.6345 40.2149 98.704 40.2035C98.7259 40.2002 98.7481 40.1992 98.7702 40.2007C98.9306 40.2146 99.0529 40.3504 99.05 40.5114V40.6002C99.0501 40.762 98.9218 40.8948 98.76 40.9002C98.681 40.9019 98.6047 40.8715 98.5483 40.8161C98.4858 40.7556 98.4504 40.6725 98.45 40.5856V40.2745C98.4498 40.1816 98.4129 40.0926 98.3473 40.0267L98.2264 39.9057C98.2042 39.8835 98.1864 39.8575 98.1736 39.8288L97.646 38.4844C97.6286 38.4438 97.6196 38.4001 97.6194 38.3559ZM97.35 40.5116C97.3469 40.3503 97.4696 40.2144 97.6303 40.2009C97.6521 40.1995 97.674 40.2003 97.6957 40.2034C97.7653 40.2152 97.8336 40.1766 97.8595 40.1109L98.0186 39.7075L98.0813 39.8674C98.0946 39.8962 98.1116 39.9231 98.1318 39.9474L98.0527 40.0266C97.9867 40.0922 97.9497 40.1815 97.95 40.2745V40.5855C97.9497 40.6722 97.9144 40.7551 97.8522 40.8155C97.7956 40.8709 97.7192 40.9014 97.64 40.9002C97.4783 40.8946 97.3501 40.762 97.35 40.6002V40.5116H97.35Z" fill="#83899F" stroke="#83899F" stroke-width="0.05"/>
</g>
<defs>
<filter id="filter0_d_5_5648" x="9" y="29" width="103.2" height="32.0364" filterUnits="userSpaceOnUse" color-interpolation-filters="sRGB">
<feFlood flood-opacity="0" result="BackgroundImageFix"/>
<feColorMatrix in="SourceAlpha" type="matrix" values="0 0 0 0 0 0 0 0 0 0 0 0 0 0 0 0 0 0 127 0" result="hardAlpha"/>
<feOffset dx="2" dy="1"/>
<feGaussianBlur stdDeviation="3"/>
<feColorMatrix type="matrix" values="0 0 0 0 0.439216 0 0 0 0 0.564706 0 0 0 0 0.690196 0 0 0 0.16 0"/>
<feBlend mode="normal" in2="BackgroundImageFix" result="effect1_dropShadow_5_5648"/>
<feBlend mode="normal" in="SourceGraphic" in2="effect1_dropShadow_5_5648" result="shape"/>
</filter>
<clipPath id="clip0_5_5648">
<rect width="3.25" height="3" fill="white" transform="translate(97 38)"/>
</clipPath>
</defs>
</svg>
