<svg width="86" height="82" viewBox="0 0 86 82" fill="none" xmlns="http://www.w3.org/2000/svg">
<g filter="url(#filter0_d_5_5692)">
<rect x="13" y="10" width="59.6598" height="55.1143" rx="3.40913" fill="white"/>
</g>
<path d="M59.8644 49.2054H26.8543C26.4202 49.2054 26.0684 49.5235 26.0684 49.9159V51.3368C26.0684 51.7291 26.4202 52.0472 26.8543 52.0472H59.8644C60.2984 52.0472 60.6503 51.7291 60.6503 51.3368V49.9159C60.6503 49.5235 60.2984 49.2054 59.8644 49.2054Z" fill="#BFD4E4"/>
<path opacity="0.5" d="M52.0047 54.8888H34.7137C34.2796 54.8888 33.9277 55.3976 33.9277 56.0252C33.9277 56.6528 34.2796 57.1615 34.7137 57.1615H52.0047C52.4387 57.1615 52.7906 56.6528 52.7906 56.0252C52.7906 55.3976 52.4387 54.8888 52.0047 54.8888Z" fill="#DDEAF3"/>
<path d="M51.8289 28.7196L48.0088 30.5739L42.8304 30.7762L37.4867 30.689L33.832 28.7196L42.8304 26.6625L51.8289 28.7196Z" fill="#F4AA73"/>
<path d="M43.4045 21.1444L45.1409 24.6628C45.2342 24.8519 45.4146 24.983 45.6234 25.0133L49.5062 25.5775C50.0317 25.6539 50.2415 26.2997 49.8613 26.6704L47.508 28.9643L46.9339 29.4119C46.7829 29.5591 46.714 29.7712 46.7496 29.9791L47.5306 33.8433C47.6204 34.3667 47.071 34.7659 46.601 34.5187L43.1281 32.693C42.9415 32.5948 42.7185 32.5948 42.5318 32.693L39.059 34.5187C38.5889 34.7659 38.0395 34.3667 38.1293 33.8433L39.1927 30.0003C39.2283 29.7925 39.1594 29.5804 39.0084 29.4332L36.6415 26.7946C36.2612 26.4239 36.471 25.7781 36.9966 25.7017L39.8302 25.0433L40.0366 25.0133C40.2453 24.983 40.4257 24.8519 40.519 24.6628L42.2555 21.1444C42.4904 20.6682 43.1694 20.6682 43.4045 21.1444Z" fill="#FFEF92"/>
<path d="M46.6013 34.5184L43.1281 32.6922C42.9418 32.5945 42.7184 32.5945 42.5321 32.6922L39.0589 34.5184C38.5891 34.7653 38.0396 34.3661 38.1293 33.8427L38.7924 29.9759C38.8285 29.768 38.7594 29.5556 38.6086 29.4083L35.7986 26.67C35.4184 26.2993 35.6283 25.6532 36.1537 25.5771L39.8302 25.0426C40.4964 27.5185 42.7574 29.3412 45.4437 29.3412C46.1705 29.3412 46.8667 29.2075 47.5078 28.9636L47.0515 29.4083C46.9008 29.5556 46.8317 29.768 46.8677 29.9759L47.5309 33.8427C47.6206 34.3661 47.0711 34.7654 46.6013 34.5184Z" fill="#FEE45A"/>
<path d="M51.8281 28.7188V39.6211C51.8281 39.861 51.6623 40.0689 51.4289 40.1225L42.8297 42.088L41.8418 36.647L42.8297 30.7754L44.642 30.9545L46.8581 29.8547L51.8281 28.7188Z" fill="#F4AA73"/>
<path d="M42.8305 30.7754V42.088L35.3347 40.3747L34.5834 39.8779C34.35 39.8243 34.1841 39.6164 34.1841 39.3765L33.832 28.7188L38.8727 31.0936L42.8305 30.7754Z" fill="#E29A6C"/>
<path d="M35.3347 29.0624V40.3749L34.2313 40.1225C33.9979 40.0689 33.832 39.861 33.832 39.6211V28.7188L35.3347 29.0624Z" fill="#D48C64"/>
<path d="M42.8305 30.7765L39.5786 34.0284C39.5543 34.0527 39.5193 34.0629 39.4858 34.0553L32.1427 32.4026L30.9952 31.9952C30.9183 31.9778 30.8906 31.8824 30.9464 31.8266L33.8379 29.0535L35.4018 29.0787L42.8305 30.7765Z" fill="#FBBD80"/>
<path d="M35.4016 29.0776L32.1424 32.4018L30.6924 32.0752C30.6157 32.0577 30.5877 31.9626 30.6438 31.9064L33.8319 28.7188L35.1106 28.7443L35.4016 29.0776Z" fill="#F4AA73"/>
<path d="M42.8301 30.7754L46.082 34.0273C46.1063 34.0516 46.1413 34.0618 46.1748 34.0542L54.9679 32.0751C55.0449 32.0578 55.0725 31.9624 55.0168 31.9066L51.8285 28.7188L42.8301 30.7754Z" fill="#FBBD80"/>
<path d="M42.8307 19.1131C42.6232 19.1131 42.4551 18.945 42.4551 18.7375V17.1948C42.4551 16.9873 42.6233 16.8192 42.8307 16.8192C43.0382 16.8192 43.2064 16.9873 43.2064 17.1948V18.7374C43.2064 18.9449 43.0383 19.1131 42.8307 19.1131Z" fill="#FEE45A"/>
<path d="M42.8307 19.1131C42.6232 19.1131 42.4551 18.945 42.4551 18.7375V17.1948C42.4551 16.9873 42.6233 16.8192 42.8307 16.8192C43.0382 16.8192 43.2064 16.9873 43.2064 17.1948V18.7374C43.2064 18.9449 43.0383 19.1131 42.8307 19.1131Z" fill="#FEE45A"/>
<path d="M45.9985 22.0186C45.9133 22.0186 45.8277 21.9898 45.7573 21.9307C45.5983 21.7974 45.5776 21.5605 45.7109 21.4015L46.7025 20.2198C46.8358 20.0608 47.0726 20.04 47.2317 20.1734C47.3906 20.3068 47.4114 20.5437 47.278 20.7026L46.2865 21.8844C46.2122 21.973 46.1057 22.0186 45.9985 22.0186Z" fill="#FEE45A"/>
<path d="M45.9985 22.0186C45.9133 22.0186 45.8277 21.9898 45.7573 21.9307C45.5983 21.7974 45.5776 21.5605 45.7109 21.4015L46.7025 20.2198C46.8358 20.0608 47.0726 20.04 47.2317 20.1734C47.3906 20.3068 47.4114 20.5437 47.278 20.7026L46.2865 21.8844C46.2122 21.973 46.1057 22.0186 45.9985 22.0186Z" fill="#FEE45A"/>
<path d="M50.3671 23.5294C50.2599 23.5294 50.1535 23.4837 50.0791 23.3952C49.9457 23.2362 49.9665 22.9993 50.1254 22.866L51.3071 21.8744C51.4661 21.7411 51.703 21.7618 51.8364 21.9207C51.9698 22.0797 51.949 22.3166 51.7901 22.45L50.6084 23.4415C50.538 23.5006 50.4523 23.5294 50.3671 23.5294Z" fill="#FEE45A"/>
<path d="M50.3671 23.5294C50.2599 23.5294 50.1535 23.4837 50.0791 23.3952C49.9457 23.2362 49.9665 22.9993 50.1254 22.866L51.3071 21.8744C51.4661 21.7411 51.703 21.7618 51.8364 21.9207C51.9698 22.0797 51.949 22.3166 51.7901 22.45L50.6084 23.4415C50.538 23.5006 50.4523 23.5294 50.3671 23.5294Z" fill="#FEE45A"/>
<path d="M39.6634 22.0186C39.5562 22.0186 39.4497 21.973 39.3754 21.8844L38.3838 20.7027C38.2504 20.5437 38.2712 20.3068 38.4301 20.1735C38.589 20.04 38.826 20.0608 38.9594 20.2197L39.951 21.4015C40.0843 21.5605 40.0636 21.7974 39.9046 21.9307C39.8342 21.9898 39.7486 22.0186 39.6634 22.0186Z" fill="#FEE45A"/>
<path d="M39.6634 22.0186C39.5562 22.0186 39.4497 21.973 39.3754 21.8844L38.3838 20.7027C38.2504 20.5437 38.2712 20.3068 38.4301 20.1735C38.589 20.04 38.826 20.0608 38.9594 20.2197L39.951 21.4015C40.0843 21.5605 40.0636 21.7974 39.9046 21.9307C39.8342 21.9898 39.7486 22.0186 39.6634 22.0186Z" fill="#FEE45A"/>
<path d="M35.2945 23.5294C35.2093 23.5294 35.1236 23.5006 35.0533 23.4415L33.8715 22.45C33.7126 22.3166 33.6919 22.0797 33.8252 21.9207C33.9585 21.7618 34.1955 21.741 34.3544 21.8744L35.5361 22.866C35.6951 22.9993 35.7158 23.2362 35.5825 23.3952C35.5082 23.4838 35.4017 23.5294 35.2945 23.5294Z" fill="#FEE45A"/>
<path d="M35.2945 23.5294C35.2093 23.5294 35.1236 23.5006 35.0533 23.4415L33.8715 22.45C33.7126 22.3166 33.6919 22.0797 33.8252 21.9207C33.9585 21.7618 34.1955 21.741 34.3544 21.8744L35.5361 22.866C35.6951 22.9993 35.7158 23.2362 35.5825 23.3952C35.5082 23.4838 35.4017 23.5294 35.2945 23.5294Z" fill="#FEE45A"/>
<defs>
<filter id="filter0_d_5_5692" x="0.0117674" y="0.908237" width="85.6366" height="81.0908" filterUnits="userSpaceOnUse" color-interpolation-filters="sRGB">
<feFlood flood-opacity="0" result="BackgroundImageFix"/>
<feColorMatrix in="SourceAlpha" type="matrix" values="0 0 0 0 0 0 0 0 0 0 0 0 0 0 0 0 0 0 127 0" result="hardAlpha"/>
<feOffset dy="3.89647"/>
<feGaussianBlur stdDeviation="6.49412"/>
<feComposite in2="hardAlpha" operator="out"/>
<feColorMatrix type="matrix" values="0 0 0 0 0 0 0 0 0 0 0 0 0 0 0 0 0 0 0.1 0"/>
<feBlend mode="normal" in2="BackgroundImageFix" result="effect1_dropShadow_5_5692"/>
<feBlend mode="normal" in="SourceGraphic" in2="effect1_dropShadow_5_5692" result="shape"/>
</filter>
</defs>
</svg>
