<svg width="15" height="14" viewBox="0 0 15 14" fill="none" xmlns="http://www.w3.org/2000/svg">
<path d="M7.64388 1.16663C4.42971 1.16663 1.81055 3.78579 1.81055 6.99996C1.81055 10.2141 4.42971 12.8333 7.64388 12.8333C10.858 12.8333 13.4772 10.2141 13.4772 6.99996C13.4772 3.78579 10.858 1.16663 7.64388 1.16663ZM7.20638 4.66663C7.20638 4.42746 7.40471 4.22913 7.64388 4.22913C7.88305 4.22913 8.08138 4.42746 8.08138 4.66663V7.58329C8.08138 7.82246 7.88305 8.02079 7.64388 8.02079C7.40471 8.02079 7.20638 7.82246 7.20638 7.58329V4.66663ZM8.18055 9.55496C8.15138 9.63079 8.11055 9.68913 8.05805 9.74746C7.99971 9.79996 7.93555 9.84079 7.86555 9.86996C7.79555 9.89913 7.71971 9.91663 7.64388 9.91663C7.56805 9.91663 7.49221 9.89913 7.42221 9.86996C7.35221 9.84079 7.28805 9.79996 7.22971 9.74746C7.17721 9.68913 7.13638 9.63079 7.10721 9.55496C7.07805 9.48496 7.06055 9.40913 7.06055 9.33329C7.06055 9.25746 7.07805 9.18163 7.10721 9.11163C7.13638 9.04163 7.17721 8.97746 7.22971 8.91913C7.28805 8.86663 7.35221 8.82579 7.42221 8.79663C7.56221 8.73829 7.72555 8.73829 7.86555 8.79663C7.93555 8.82579 7.99971 8.86663 8.05805 8.91913C8.11055 8.97746 8.15138 9.04163 8.18055 9.11163C8.20971 9.18163 8.22721 9.25746 8.22721 9.33329C8.22721 9.40913 8.20971 9.48496 8.18055 9.55496Z" fill="#F85859"/>
</svg>
