<svg width="21" height="20" viewBox="0 0 21 20" fill="none" xmlns="http://www.w3.org/2000/svg">
<path d="M10.5003 1.66669C5.73647 1.66669 1.85449 5.40835 1.85449 10C1.85449 14.5917 5.73647 18.3334 10.5003 18.3334C15.2642 18.3334 19.1462 14.5917 19.1462 10C19.1462 5.40835 15.2642 1.66669 10.5003 1.66669ZM9.85189 6.66669C9.85189 6.32502 10.1458 6.04169 10.5003 6.04169C10.8548 6.04169 11.1488 6.32502 11.1488 6.66669V10.8334C11.1488 11.175 10.8548 11.4584 10.5003 11.4584C10.1458 11.4584 9.85189 11.175 9.85189 10.8334V6.66669ZM11.2957 13.65C11.2525 13.7584 11.192 13.8417 11.1142 13.925C11.0277 14 10.9326 14.0584 10.8289 14.1C10.7251 14.1417 10.6127 14.1667 10.5003 14.1667C10.3879 14.1667 10.2755 14.1417 10.1718 14.1C10.068 14.0584 9.97293 14 9.88647 13.925C9.80866 13.8417 9.74814 13.7584 9.70491 13.65C9.66168 13.55 9.63574 13.4417 9.63574 13.3334C9.63574 13.225 9.66168 13.1167 9.70491 13.0167C9.74814 12.9167 9.80866 12.825 9.88647 12.7417C9.97293 12.6667 10.068 12.6084 10.1718 12.5667C10.3793 12.4834 10.6214 12.4834 10.8289 12.5667C10.9326 12.6084 11.0277 12.6667 11.1142 12.7417C11.192 12.825 11.2525 12.9167 11.2957 13.0167C11.339 13.1167 11.3649 13.225 11.3649 13.3334C11.3649 13.4417 11.339 13.55 11.2957 13.65Z" fill="white"/>
</svg>
