<svg width="22" height="20" viewBox="0 0 22 20" fill="none" xmlns="http://www.w3.org/2000/svg">
<path d="M17.3466 4.07501L12.2801 1.90001C11.5366 1.58334 10.4126 1.58334 9.66906 1.90001L4.6026 4.07501C3.32302 4.62501 3.13281 5.37501 3.13281 5.77501C3.13281 6.17501 3.32302 6.92501 4.6026 7.47501L9.66906 9.65001C10.0408 9.80834 10.5077 9.89167 10.9746 9.89167C11.4415 9.89167 11.9083 9.80834 12.2801 9.65001L17.3466 7.47501C18.6261 6.92501 18.8164 6.17501 18.8164 5.77501C18.8164 5.37501 18.6348 4.62501 17.3466 4.07501Z" fill="#FEEE00"/>
<path d="M10.9746 14.2C10.6461 14.2 10.3176 14.1333 10.0149 14.0083L4.18766 11.5083C3.29714 11.125 2.60547 10.1 2.60547 9.15834C2.60547 8.81667 2.89078 8.54167 3.24526 8.54167C3.59974 8.54167 3.88505 8.81667 3.88505 9.15834C3.88505 9.60834 4.27411 10.1917 4.70641 10.375L10.5337 12.875C10.8104 12.9917 11.1303 12.9917 11.4069 12.875L17.2342 10.375C17.6665 10.1917 18.0556 9.61667 18.0556 9.15834C18.0556 8.81667 18.3409 8.54167 18.6954 8.54167C19.0498 8.54167 19.3352 8.81667 19.3352 9.15834C19.3352 10.0917 18.6435 11.125 17.753 11.5083L11.9257 14.0083C11.6317 14.1333 11.3032 14.2 10.9746 14.2Z" fill="#0771DE"/>
<path d="M10.9746 18.3333C10.6461 18.3333 10.3176 18.2667 10.0149 18.1417L4.18766 15.6417C3.22797 15.2333 2.60547 14.3083 2.60547 13.2917C2.60547 12.95 2.89078 12.675 3.24526 12.675C3.59974 12.675 3.88505 12.95 3.88505 13.2917C3.88505 13.8167 4.20495 14.2917 4.70641 14.5083L10.5337 17.0083C10.8104 17.125 11.1303 17.125 11.4069 17.0083L17.2342 14.5083C17.727 14.3 18.0556 13.8167 18.0556 13.2917C18.0556 12.95 18.3409 12.675 18.6954 12.675C19.0498 12.675 19.3352 12.95 19.3352 13.2917C19.3352 14.3083 18.7127 15.225 17.753 15.6417L11.9257 18.1417C11.6317 18.2667 11.3032 18.3333 10.9746 18.3333Z" fill="#0771DE"/>
</svg>
