<svg width="47" height="32" viewBox="0 0 47 32" fill="none" xmlns="http://www.w3.org/2000/svg">
<g clip-path="url(#clip0_5_9030)">
<path d="M44.0625 0.97884C44.0625 1.51962 44.5009 1.95801 45.0417 1.95801H46.0208C46.5616 1.95801 47 1.51962 47 0.97884C47 0.438064 46.5616 -0.000324249 46.0208 -0.000324249H45.0417C44.5009 -0.000324249 44.0625 0.438064 44.0625 0.97884Z" fill="white"/>
<path d="M15.6667 31.333H20.4233L19.0385 29.9482C18.6713 29.581 18.1732 29.3747 17.6538 29.3747H15.6667C8.09575 29.3747 1.95833 23.2373 1.95833 15.6663C1.95833 8.09543 8.09575 1.95802 15.6667 1.95801H31.3333C38.9043 1.95801 45.0417 8.09543 45.0417 15.6663C45.0417 23.2373 38.9043 29.3747 31.3333 29.3747H25.4727C24.6936 29.3747 23.9465 29.0652 23.3956 28.5143L21.7733 26.892C20.8552 25.9738 19.6098 25.458 18.3114 25.458H15.6667C10.2588 25.458 5.875 21.0742 5.875 15.6663C5.875 10.2585 10.2588 5.87468 15.6667 5.87468H31.3333C36.7412 5.87468 41.125 10.2585 41.125 15.6663C41.125 21.0742 36.7412 25.458 31.3333 25.458H27.5703C26.7912 25.458 26.044 25.1485 25.4931 24.5977L23.8708 22.9753C22.9526 22.0572 21.7073 21.5413 20.4089 21.5413H15.6667C12.422 21.5413 9.79167 18.911 9.79167 15.6663C9.79167 12.4217 12.422 9.79134 15.6667 9.79134H31.3333C34.578 9.79134 37.2083 12.4217 37.2083 15.6663C37.2083 18.8714 34.6417 21.4771 31.4518 21.5402L31.4511 21.5413H30.0182C29.2391 21.5413 28.4919 21.2318 27.941 20.681L26.3187 19.0586C25.5653 18.3052 24.5917 17.8228 23.5492 17.6739L23.5 17.6247H15.6667C14.5851 17.6247 13.7083 16.7479 13.7083 15.6663C13.7083 14.5848 14.5851 13.708 15.6667 13.708H31.3333C32.4149 13.708 33.2917 14.5848 33.2917 15.6663C33.2917 16.7479 32.4149 17.6247 31.3333 17.6247H27.4167L28.8014 19.0095C29.1687 19.3767 29.6668 19.583 30.1861 19.583H31.3333C33.4964 19.583 35.25 17.8294 35.25 15.6663C35.25 13.5032 33.4964 11.7497 31.3333 11.7497H15.6667C13.5036 11.7497 11.75 13.5032 11.75 15.6663C11.75 17.8294 13.5036 19.583 15.6667 19.583H22.8568C23.6359 19.583 24.3831 19.8925 24.934 20.4433L26.5563 22.0657C27.4745 22.9839 28.7197 23.4997 30.0182 23.4997H31.8229V23.4846C35.9211 23.2319 39.1667 19.8281 39.1667 15.6663C39.1667 11.3401 35.6595 7.83301 31.3333 7.83301H15.6667C11.3405 7.83301 7.83333 11.3401 7.83333 15.6663C7.83333 19.9926 11.3405 23.4997 15.6667 23.4997H20.4089C21.188 23.4997 21.9351 23.8092 22.4861 24.36L24.1084 25.9824C25.0266 26.9005 26.2718 27.4163 27.5703 27.4163H31.3333C37.8227 27.4163 43.0833 22.1557 43.0833 15.6663C43.0833 9.17697 37.8227 3.91634 31.3333 3.91634H15.6667C9.1773 3.91634 3.91667 9.17697 3.91667 15.6663C3.91667 22.1557 9.1773 27.4163 15.6667 27.4163H18.3114C19.0905 27.4163 19.8376 27.7258 20.3885 28.2767L22.0109 29.899C22.929 30.8172 24.1743 31.333 25.4727 31.333H31.3333C39.9858 31.333 47 24.3188 47 15.6663C47 7.01388 39.9858 -0.000325006 31.3333 -0.000324249L15.6667 -0.000321012C7.0142 -0.000320256 -7.56422e-07 7.01389 0 15.6663C7.56422e-07 24.3188 7.01421 31.333 15.6667 31.333Z" fill="white"/>
</g>
<defs>
<clipPath id="clip0_5_9030">
<rect width="47" height="31.3333" fill="white"/>
</clipPath>
</defs>
</svg>
