<svg width="108" height="47" viewBox="0 0 108 47" fill="none" xmlns="http://www.w3.org/2000/svg">
<mask id="mask0_5_6253" style="mask-type:alpha" maskUnits="userSpaceOnUse" x="0" y="0" width="108" height="47">
<rect x="0.726562" width="106.612" height="47" fill="#D9D9D9"/>
</mask>
<g mask="url(#mask0_5_6253)">
<path d="M-18.082 24.4015C-16.5316 25.7803 -12.715 27.9175 -9.85263 25.4356C-6.27463 22.3332 -3.94893 16.424 -2.87553 17.6059C-1.80213 18.7877 -0.192026 22.481 3.38598 17.6059C6.96398 12.7307 8.03738 7.56013 11.6154 8.74198C15.1934 9.92383 17.8769 34.7426 24.4962 29.5721C31.1155 24.4015 33.2623 16.5717 35.2302 17.6059C37.1981 18.64 39.5238 9.92383 42.2073 9.77609C44.8908 9.62836 48.6477 18.9354 49.5422 19.2309C50.4367 19.5263 52.4046 15.9808 54.7303 17.6059C57.056 19.2309 62.2441 28.9811 66.001 27.2084C69.7579 25.4356 75.1249 18.049 77.6295 18.64C80.1341 19.2309 83.1754 17.7536 84.0699 15.8331C84.9644 13.9126 87.469 7.56013 92.4782 10.9579" stroke="white" stroke-width="1.47326" stroke-linecap="round" stroke-linejoin="round"/>
<path d="M-10.771 26.293C-13.6691 28.7749 -17.5331 26.6377 -19.1029 25.2589L-28.5215 64.9986L95.5505 69.4305C96.3354 51.3581 96.8909 14.5336 92.8336 11.8154C87.7621 8.41755 85.2263 14.77 84.3206 16.6905C83.415 18.611 80.3358 20.0883 77.8001 19.4974C75.2643 18.9065 69.8305 26.293 66.0268 28.0658C62.2231 29.8386 56.9705 20.0883 54.6158 18.4633C52.2612 16.8382 50.2688 20.3838 49.3631 20.0883C48.4575 19.7928 44.6538 10.4858 41.9369 10.6335C39.22 10.7812 36.8654 19.4974 34.873 18.4633C32.8806 17.4292 30.707 25.2589 24.0053 30.4295C17.3036 35.6001 14.5867 10.7813 10.9642 9.59941C7.34166 8.41756 6.2549 13.5881 2.63236 18.4633C-0.990179 23.3384 -2.62032 19.6451 -3.70709 18.4633C-4.79385 17.2814 -7.1485 23.1907 -10.771 26.293Z" fill="url(#paint0_linear_5_6253)"/>
</g>
<defs>
<linearGradient id="paint0_linear_5_6253" x1="33.9673" y1="3.6672" x2="33.9673" y2="57.4643" gradientUnits="userSpaceOnUse">
<stop stop-color="white" stop-opacity="0.3"/>
<stop offset="0.630208" stop-color="white" stop-opacity="0"/>
</linearGradient>
</defs>
</svg>
