<svg width="16" height="16" viewBox="0 0 16 16" fill="none" xmlns="http://www.w3.org/2000/svg">
<path d="M2 5.16666H14C14.2733 5.16666 14.5 4.93999 14.5 4.66666C14.5 4.39332 14.2733 4.16666 14 4.16666H2C1.72667 4.16666 1.5 4.39332 1.5 4.66666C1.5 4.93999 1.72667 5.16666 2 5.16666Z" fill="#0771DE"/>
<path d="M2 8.5H14C14.2733 8.5 14.5 8.27333 14.5 8C14.5 7.72667 14.2733 7.5 14 7.5H2C1.72667 7.5 1.5 7.72667 1.5 8C1.5 8.27333 1.72667 8.5 2 8.5Z" fill="#0771DE"/>
<path d="M2 11.8333H14C14.2733 11.8333 14.5 11.6067 14.5 11.3333C14.5 11.06 14.2733 10.8333 14 10.8333H2C1.72667 10.8333 1.5 11.06 1.5 11.3333C1.5 11.6067 1.72667 11.8333 2 11.8333Z" fill="#0771DE"/>
</svg>
