<svg width="22" height="20" viewBox="0 0 22 20" fill="none" xmlns="http://www.w3.org/2000/svg">
<path d="M11.7792 5H6.24585C6.02105 5 5.80491 5.00833 5.59741 5.03333C3.27168 5.225 2.10449 6.55 2.10449 8.99167V12.325C2.10449 15.6583 3.48783 16.3167 6.24585 16.3167H6.59168C6.78189 16.3167 7.03262 16.4417 7.14501 16.5833L8.18251 17.9167C8.64074 18.5083 9.38428 18.5083 9.84251 17.9167L10.88 16.5833C11.0097 16.4167 11.2172 16.3167 11.4333 16.3167H11.7792C14.3124 16.3167 15.6871 15.2 15.886 12.95C15.9119 12.75 15.9205 12.5417 15.9205 12.325V8.99167C15.9205 6.33333 14.5372 5 11.7792 5ZM5.99512 11.6667C5.51095 11.6667 5.13053 11.2917 5.13053 10.8333C5.13053 10.375 5.5196 10 5.99512 10C6.47064 10 6.8597 10.375 6.8597 10.8333C6.8597 11.2917 6.47064 11.6667 5.99512 11.6667ZM9.01251 11.6667C8.52835 11.6667 8.14793 11.2917 8.14793 10.8333C8.14793 10.375 8.53699 10 9.01251 10C9.48803 10 9.8771 10.375 9.8771 10.8333C9.8771 11.2917 9.49668 11.6667 9.01251 11.6667ZM12.0386 11.6667C11.5544 11.6667 11.174 11.2917 11.174 10.8333C11.174 10.375 11.563 10 12.0386 10C12.5141 10 12.9031 10.375 12.9031 10.8333C12.9031 11.2917 12.5141 11.6667 12.0386 11.6667Z" fill="white"/>
<path d="M19.379 5.65835V8.99169C19.379 10.6584 18.8429 11.7917 17.7708 12.4167C17.5115 12.5667 17.2089 12.3667 17.2089 12.075L17.2175 8.99169C17.2175 5.65835 15.2376 3.75002 11.7793 3.75002L6.51396 3.75835C6.21135 3.75835 6.00385 3.46669 6.15948 3.21669C6.80792 2.18335 7.98375 1.66669 9.70427 1.66669H15.2376C17.9956 1.66669 19.379 3.00002 19.379 5.65835Z" fill="#FEEE00"/>
</svg>
