<svg width="12" height="12" viewBox="0 0 12 12" fill="none" xmlns="http://www.w3.org/2000/svg">
<path d="M7.5 11.375H4.5C2.295 11.375 1.625 10.705 1.625 8.5V3.5C1.625 1.295 2.295 0.625 4.5 0.625H7.5C9.705 0.625 10.375 1.295 10.375 3.5V8.5C10.375 10.705 9.705 11.375 7.5 11.375ZM4.5 1.375C2.71 1.375 2.375 1.715 2.375 3.5V8.5C2.375 10.285 2.71 10.625 4.5 10.625H7.5C9.29 10.625 9.625 10.285 9.625 8.5V3.5C9.625 1.715 9.29 1.375 7.5 1.375H4.5Z" fill="#83899F"/>
<path d="M7 3.125H5C4.795 3.125 4.625 2.955 4.625 2.75C4.625 2.545 4.795 2.375 5 2.375H7C7.205 2.375 7.375 2.545 7.375 2.75C7.375 2.955 7.205 3.125 7 3.125Z" fill="#83899F"/>
<path d="M5.99961 9.93001C5.36461 9.93001 4.84961 9.415 4.84961 8.78C4.84961 8.145 5.36461 7.63 5.99961 7.63C6.63461 7.63 7.14961 8.145 7.14961 8.78C7.14961 9.415 6.63461 9.93001 5.99961 9.93001ZM5.99961 8.375C5.77961 8.375 5.59961 8.555 5.59961 8.775C5.59961 8.995 5.77961 9.175 5.99961 9.175C6.21961 9.175 6.39961 8.995 6.39961 8.775C6.39961 8.555 6.21961 8.375 5.99961 8.375Z" fill="#83899F"/>
</svg>
