<svg width="12" height="12" viewBox="0 0 12 12" fill="none" xmlns="http://www.w3.org/2000/svg">
<path d="M8.78 8.985H3.22C1.23 8.985 0.625 8.38 0.625 6.39V3.22C0.625 1.23 1.23 0.625 3.22 0.625H8.775C10.765 0.625 11.37 1.23 11.37 3.22V6.385C11.375 8.38 10.77 8.985 8.78 8.985ZM3.22 1.375C1.65 1.375 1.375 1.65 1.375 3.22V6.385C1.375 7.955 1.65 8.23 3.22 8.23H8.775C10.345 8.23 10.62 7.955 10.62 6.385V3.22C10.62 1.65 10.345 1.375 8.775 1.375H3.22Z" fill="#83899F"/>
<path d="M6 11.375C5.795 11.375 5.625 11.205 5.625 11V8.60999C5.625 8.40499 5.795 8.23499 6 8.23499C6.205 8.23499 6.375 8.40499 6.375 8.60999V11C6.375 11.205 6.205 11.375 6 11.375Z" fill="#83899F"/>
<path d="M11 6.875H1C0.795 6.875 0.625 6.705 0.625 6.5C0.625 6.295 0.795 6.125 1 6.125H11C11.205 6.125 11.375 6.295 11.375 6.5C11.375 6.705 11.205 6.875 11 6.875Z" fill="#83899F"/>
<path d="M8.25 11.375H3.75C3.545 11.375 3.375 11.205 3.375 11C3.375 10.795 3.545 10.625 3.75 10.625H8.25C8.455 10.625 8.625 10.795 8.625 11C8.625 11.205 8.455 11.375 8.25 11.375Z" fill="#83899F"/>
</svg>
