<svg width="22" height="20" viewBox="0 0 22 20" fill="none" xmlns="http://www.w3.org/2000/svg">
<path d="M14.6208 3.54166C14.6208 4.57499 13.7475 5.41666 12.6755 5.41666H9.64941C9.11337 5.41666 8.62921 5.20832 8.27473 4.86666C7.92025 4.52499 7.7041 4.05832 7.7041 3.54166C7.7041 2.50832 8.57733 1.66666 9.64941 1.66666H12.6755C13.2115 1.66666 13.6957 1.87499 14.0501 2.21666C14.4046 2.55832 14.6208 3.02499 14.6208 3.54166Z" fill="#FEEE00"/>
<path d="M17.0669 4.19167C16.868 4.03333 16.6432 3.90833 16.4012 3.81667C16.1504 3.725 15.8997 3.91667 15.8478 4.16667C15.5539 5.59167 14.2483 6.66667 12.6748 6.66667H9.64876C8.78418 6.66667 7.97147 6.34167 7.35762 5.75C6.90803 5.31667 6.59678 4.76667 6.47574 4.175C6.42387 3.925 6.16449 3.725 5.91376 3.825C4.91085 4.21667 4.24512 5.1 4.24512 6.875V15C4.24512 17.5 5.79272 18.3333 7.70345 18.3333H14.6201C16.5308 18.3333 18.0785 17.5 18.0785 15V6.875C18.0785 5.51667 17.6894 4.68333 17.0669 4.19167ZM7.70345 10.2083H11.1618C11.5163 10.2083 11.8102 10.4917 11.8102 10.8333C11.8102 11.175 11.5163 11.4583 11.1618 11.4583H7.70345C7.34897 11.4583 7.05501 11.175 7.05501 10.8333C7.05501 10.4917 7.34897 10.2083 7.70345 10.2083ZM14.6201 14.7917H7.70345C7.34897 14.7917 7.05501 14.5083 7.05501 14.1667C7.05501 13.825 7.34897 13.5417 7.70345 13.5417H14.6201C14.9746 13.5417 15.2686 13.825 15.2686 14.1667C15.2686 14.5083 14.9746 14.7917 14.6201 14.7917Z" fill="white"/>
</svg>
