<svg width="16" height="16" viewBox="0 0 16 16" fill="none" xmlns="http://www.w3.org/2000/svg">
<path d="M7.98014 15.1667C4.03348 15.1667 0.813477 11.9533 0.813477 8.00001C0.813477 4.04668 4.03348 0.833344 7.98014 0.833344C11.9268 0.833344 15.1468 4.04668 15.1468 8.00001C15.1468 11.9533 11.9335 15.1667 7.98014 15.1667ZM7.98014 1.83334C4.58014 1.83334 1.81348 4.60001 1.81348 8.00001C1.81348 11.4 4.58014 14.1667 7.98014 14.1667C11.3801 14.1667 14.1468 11.4 14.1468 8.00001C14.1468 4.60001 11.3801 1.83334 7.98014 1.83334Z" fill="#292D32"/>
<path d="M6.67301 10.6333H5.80634C5.19301 10.6333 4.83301 10.28 4.83301 9.68667V6.31334C4.83301 5.72 5.19967 5.36667 5.80634 5.36667H6.66634C7.27967 5.36667 7.63967 5.72 7.63967 6.31334V9.68667C7.64634 10.28 7.27967 10.6333 6.67301 10.6333ZM5.83301 9.63334H6.64634V6.36667H5.83967L5.83301 9.63334Z" fill="#292D32"/>
<path d="M10.1937 10.6333H9.33369C8.72035 10.6333 8.36035 10.28 8.36035 9.68667V6.31334C8.36035 5.72 8.72702 5.36667 9.33369 5.36667H10.1937C10.807 5.36667 11.167 5.72 11.167 6.31334V9.68667C11.167 10.28 10.8004 10.6333 10.1937 10.6333ZM9.35368 9.63334H10.167V6.36667H9.36035L9.35368 9.63334Z" fill="#292D32"/>
</svg>
