<svg width="19" height="19" viewBox="0 0 19 19" fill="none" xmlns="http://www.w3.org/2000/svg">
<path d="M14.075 13.6571H4.925C3.185 13.6571 2.1875 12.6661 2.1875 10.9375V1.92183C2.1875 1.61634 2.4425 1.36301 2.75 1.36301H16.25C16.5575 1.36301 16.8125 1.61634 16.8125 1.92183V10.9375C16.8125 12.6661 15.815 13.6571 14.075 13.6571ZM3.3125 2.48065V10.9375C3.3125 12.0477 3.8075 12.5395 4.925 12.5395H14.0675C15.185 12.5395 15.68 12.0477 15.68 10.9375V2.48065H3.3125Z" fill="#292D32"/>
<path d="M17 2.48065H2C1.6925 2.48065 1.4375 2.22732 1.4375 1.92183C1.4375 1.61634 1.6925 1.36301 2 1.36301H17C17.3075 1.36301 17.5625 1.61634 17.5625 1.92183C17.5625 2.22732 17.3075 2.48065 17 2.48065Z" fill="#292D32"/>
<path d="M6.49971 17.3826C6.28971 17.3826 6.0947 17.2709 5.9972 17.0771C5.8547 16.8014 5.96722 16.4661 6.25222 16.3246L8.93721 14.9909V13.0983C8.93721 12.7928 9.19221 12.5395 9.49971 12.5395C9.80721 12.5395 10.0622 12.7928 10.0622 13.0983V15.3336C10.0622 15.5422 9.9422 15.736 9.7472 15.8328L6.7472 17.323C6.6722 17.3603 6.58221 17.3826 6.49971 17.3826Z" fill="#292D32"/>
<path d="M12.5 17.3826C12.4175 17.3826 12.3275 17.3603 12.2525 17.323L9.25247 15.8328C8.97497 15.6912 8.86245 15.3559 8.99745 15.0802C9.13995 14.8046 9.47746 14.6928 9.75496 14.8269L12.755 16.3171C13.0325 16.4587 13.145 16.794 13.01 17.0696C12.905 17.2708 12.7025 17.3826 12.5 17.3826Z" fill="#292D32"/>
<path d="M6.1247 9.18653C5.9672 9.18653 5.80221 9.11948 5.68971 8.98536C5.48721 8.74693 5.52469 8.39674 5.76469 8.19556L8.12721 6.23595C8.34471 6.05713 8.62219 5.98262 8.88469 6.02732C9.15469 6.07203 9.38721 6.23593 9.52971 6.47436L10.3172 7.77829L12.5147 5.96027C12.7547 5.76654 13.1072 5.79633 13.3097 6.03476C13.5122 6.27319 13.4747 6.62339 13.2347 6.82456L10.8722 8.78417C10.6547 8.963 10.3772 9.03751 10.1147 8.9928C9.84471 8.94809 9.61219 8.78419 9.46969 8.54576L8.6822 7.24184L6.48471 9.05986C6.37971 9.14182 6.2522 9.18653 6.1247 9.18653Z" fill="#292D32"/>
</svg>
