<svg width="19" height="19" viewBox="0 0 19 19" fill="none" xmlns="http://www.w3.org/2000/svg">
<path d="M9.5 10.5958C9.4025 10.5958 9.305 10.5735 9.215 10.5213L2.59251 6.7139C2.32251 6.55743 2.2325 6.21466 2.39 5.94642C2.5475 5.67819 2.885 5.58876 3.1625 5.74523L9.5 9.38877L15.8 5.76761C16.07 5.61114 16.415 5.70801 16.5725 5.9688C16.73 6.23703 16.6325 6.57976 16.37 6.73623L9.79252 10.5213C9.69502 10.566 9.5975 10.5958 9.5 10.5958Z" fill="#292D32"/>
<path d="M9.5 17.3465C9.1925 17.3465 8.9375 17.0931 8.9375 16.7876V10.0296C8.9375 9.7241 9.1925 9.47076 9.5 9.47076C9.8075 9.47076 10.0625 9.7241 10.0625 10.0296V16.7876C10.0625 17.0931 9.8075 17.3465 9.5 17.3465Z" fill="#292D32"/>
<path d="M9.50046 17.637C8.84046 17.637 8.18796 17.4954 7.67046 17.2123L3.66546 14.9994C2.57796 14.4033 1.73047 12.9653 1.73047 11.7284V7.51857C1.73047 6.28171 2.57796 4.85116 3.66546 4.24763L7.67046 2.04212C8.69796 1.47585 10.303 1.47585 11.3305 2.04212L15.3355 4.25504C16.423 4.85112 17.2704 6.28917 17.2704 7.52603V11.7359C17.2704 12.9727 16.423 14.4033 15.3355 15.0068L11.3305 17.2123C10.813 17.4954 10.1605 17.637 9.50046 17.637ZM9.50046 2.73506C9.02796 2.73506 8.56296 2.83192 8.21796 3.0182L4.21297 5.23112C3.49297 5.63347 2.85547 6.69897 2.85547 7.52603V11.7359C2.85547 12.5555 3.49297 13.6284 4.21297 14.0307L8.21796 16.2437C8.90046 16.6237 10.1005 16.6237 10.783 16.2437L14.7879 14.0307C15.5079 13.6284 16.1454 12.5629 16.1454 11.7359V7.52603C16.1454 6.70642 15.5079 5.63347 14.7879 5.23112L10.783 3.0182C10.438 2.83192 9.97296 2.73506 9.50046 2.73506Z" fill="#292D32"/>
<path d="M13.2499 11.11C12.9424 11.11 12.6874 10.8567 12.6874 10.5512V8.15197L5.84739 4.23274C5.57739 4.07627 5.48738 3.73351 5.64488 3.47273C5.80238 3.20449 6.13989 3.11507 6.40989 3.27154L13.5274 7.35471C13.6999 7.45157 13.8124 7.63782 13.8124 7.83899V10.5661C13.8124 10.8567 13.5574 11.11 13.2499 11.11Z" fill="#292D32"/>
</svg>
