<svg width="19" height="19" viewBox="0 0 19 19" fill="none" xmlns="http://www.w3.org/2000/svg">
<path d="M15.065 9.18605H12.5C12.1925 9.18605 11.9375 8.93271 11.9375 8.62722V3.41899C11.9375 2.86761 12.155 2.3535 12.545 1.96605C12.935 1.5786 13.4525 1.36252 14.0075 1.36252H14.015C14.9525 1.36997 15.8375 1.73507 16.5125 2.3982C17.1875 3.07624 17.555 3.97036 17.555 4.90173V6.70487C17.5625 8.18761 16.5575 9.18605 15.065 9.18605ZM13.0625 8.0684H15.065C15.935 8.0684 16.4375 7.56918 16.4375 6.70487V4.90173C16.4375 4.26095 16.1825 3.64997 15.725 3.18801C15.2675 2.74095 14.6525 2.48762 14.015 2.48017C14.015 2.48017 14.015 2.48017 14.0075 2.48017C13.76 2.48017 13.52 2.57703 13.34 2.75585C13.16 2.93467 13.0625 3.16565 13.0625 3.41899V8.0684Z" fill="#292D32"/>
<path d="M7.25 17.8143C6.8975 17.8143 6.5675 17.6802 6.32 17.4268L5.075 16.1825C5.0075 16.1155 4.9025 16.108 4.8275 16.1676L3.5375 17.1213C3.14 17.4194 2.615 17.4715 2.165 17.248C1.715 17.0245 1.4375 16.5774 1.4375 16.0782V4.90173C1.4375 2.65154 2.735 1.36252 5 1.36252H14C14.3075 1.36252 14.5625 1.61585 14.5625 1.92134C14.5625 2.22683 14.3075 2.48017 14 2.48017C13.4825 2.48017 13.0625 2.89742 13.0625 3.41154V16.0782C13.0625 16.5774 12.785 17.0245 12.335 17.248C11.885 17.4715 11.36 17.4268 10.9625 17.1288L9.68 16.1751C9.605 16.1155 9.5 16.1304 9.44 16.19L8.18 17.4417C7.9325 17.6802 7.6025 17.8143 7.25 17.8143ZM4.9325 15.0127C5.2775 15.0127 5.615 15.1394 5.87 15.4002L7.115 16.6445C7.16 16.6892 7.22 16.6966 7.25 16.6966C7.28 16.6966 7.34 16.6892 7.385 16.6445L8.645 15.3927C9.11 14.9308 9.845 14.886 10.3625 15.281L11.6375 16.2272C11.72 16.2868 11.795 16.2645 11.8325 16.2421C11.87 16.2198 11.9375 16.1751 11.9375 16.0782V3.41154C11.9375 3.07624 12.02 2.75585 12.1625 2.48017H5C3.335 2.48017 2.5625 3.24762 2.5625 4.90173V16.0782C2.5625 16.1825 2.63 16.2272 2.6675 16.2496C2.7125 16.2719 2.7875 16.2868 2.8625 16.2272L4.145 15.2735C4.3775 15.1021 4.655 15.0127 4.9325 15.0127Z" fill="#292D32"/>
<path d="M9.5 10.6837H7.25C6.9425 10.6837 6.6875 10.4304 6.6875 10.1249C6.6875 9.8194 6.9425 9.56607 7.25 9.56607H9.5C9.8075 9.56607 10.0625 9.8194 10.0625 10.1249C10.0625 10.4304 9.8075 10.6837 9.5 10.6837Z" fill="#292D32"/>
<path d="M9.5 7.70331H7.25C6.9425 7.70331 6.6875 7.44998 6.6875 7.14449C6.6875 6.839 6.9425 6.58566 7.25 6.58566H9.5C9.8075 6.58566 10.0625 6.839 10.0625 7.14449C10.0625 7.44998 9.8075 7.70331 9.5 7.70331Z" fill="#292D32"/>
<path d="M4.97754 7.88958C4.56504 7.88958 4.22754 7.55429 4.22754 7.14448C4.22754 6.73468 4.56504 6.39938 4.97754 6.39938C5.39004 6.39938 5.72754 6.73468 5.72754 7.14448C5.72754 7.55429 5.39004 7.88958 4.97754 7.88958Z" fill="#292D32"/>
<path d="M4.97754 10.87C4.56504 10.87 4.22754 10.5347 4.22754 10.1249C4.22754 9.71509 4.56504 9.37979 4.97754 9.37979C5.39004 9.37979 5.72754 9.71509 5.72754 10.1249C5.72754 10.5347 5.39004 10.87 4.97754 10.87Z" fill="#292D32"/>
</svg>
