<svg width="207" height="48" viewBox="0 0 207 48" fill="none" xmlns="http://www.w3.org/2000/svg">
<rect width="207" height="38" rx="3.75" fill="white"/>
<path d="M134.382 15.3099V22.7619C134.382 22.8579 134.37 22.9539 134.346 23.0499H134.982V23.9019H134.562L134.166 23.4819H134.13C133.914 23.7619 133.634 23.9019 133.29 23.9019H131.202V23.0499H132.906C133.058 23.0499 133.178 22.9899 133.266 22.8699C133.33 22.7899 133.362 22.6979 133.362 22.5939V15.3099H134.382ZM138.061 15.3099V21.0219C139.149 19.1659 140.585 18.2379 142.369 18.2379C143.329 18.2379 144.101 18.5299 144.685 19.1139C145.213 19.6499 145.477 20.3339 145.477 21.1659V22.7619C145.477 22.8659 145.465 22.9619 145.441 23.0499H145.861V23.9019H145.609L145.261 23.4819H145.225C145.001 23.7619 144.721 23.9019 144.385 23.9019H134.893V23.0499H137.053V15.3099H138.061ZM144.445 21.0579C144.445 20.3939 144.197 19.8859 143.701 19.5339C143.317 19.2539 142.825 19.1139 142.225 19.1139C141.545 19.1139 140.905 19.3219 140.305 19.7379C139.377 20.3939 138.629 21.4979 138.061 23.0499H144.001C144.297 23.0499 144.445 22.8979 144.445 22.5939V21.0579ZM148.948 15.3099V22.7619C148.948 23.0739 148.844 23.3379 148.636 23.5539C148.42 23.7859 148.16 23.9019 147.856 23.9019H145.768V23.0499H147.472C147.624 23.0499 147.74 22.9979 147.82 22.8939C147.892 22.8059 147.928 22.7059 147.928 22.5939V15.3099H148.948ZM151.625 15.3099V23.7819L151.109 24.2019H150.605V15.3099H151.625ZM136.278 39.0579C136.438 39.0579 136.574 39.1179 136.686 39.2379C136.806 39.3499 136.866 39.4899 136.866 39.6579C136.866 39.8179 136.806 39.9579 136.686 40.0779C136.574 40.1899 136.438 40.2459 136.278 40.2459C136.11 40.2459 135.97 40.1899 135.858 40.0779C135.746 39.9579 135.69 39.8179 135.69 39.6579C135.69 39.4899 135.746 39.3499 135.858 39.2379C135.97 39.1179 136.11 39.0579 136.278 39.0579ZM137.73 39.0579C137.898 39.0579 138.038 39.1179 138.15 39.2379C138.27 39.3499 138.33 39.4899 138.33 39.6579C138.33 39.8179 138.27 39.9579 138.15 40.0779C138.038 40.1899 137.898 40.2459 137.73 40.2459C137.57 40.2459 137.43 40.1899 137.31 40.0779C137.198 39.9579 137.142 39.8179 137.142 39.6579C137.142 39.4899 137.198 39.3499 137.31 39.2379C137.43 39.1179 137.57 39.0579 137.73 39.0579ZM141.906 39.3819V43.7619C141.906 44.0499 141.818 44.2979 141.642 44.5059C141.418 44.7699 141.146 44.9019 140.826 44.9019H133.962C133.498 44.9019 133.098 44.7499 132.762 44.4459C132.306 44.0539 132.078 43.5459 132.078 42.9219V40.6659L132.594 40.2459H133.098V42.9219C133.098 43.2339 133.21 43.4979 133.434 43.7139C133.65 43.9379 133.922 44.0499 134.25 44.0499H140.43C140.734 44.0499 140.886 43.8979 140.886 43.5939V39.3819H141.906ZM144.582 36.3099V43.5939C144.582 43.7219 144.622 43.8299 144.702 43.9179C144.79 44.0059 144.902 44.0499 145.038 44.0499H145.194V44.9019H144.642C144.386 44.9019 144.162 44.8179 143.97 44.6499C143.698 44.4179 143.562 44.1219 143.562 43.7619V36.3099H144.582ZM148.292 39.3819V43.7619C148.292 43.8579 148.28 43.9539 148.256 44.0499H148.892V44.9019H148.424L148.076 44.4819H148.04C147.824 44.7619 147.544 44.9019 147.2 44.9019H145.112V44.0499H146.816C146.944 44.0499 147.048 44.0099 147.128 43.9299C147.224 43.8419 147.272 43.7299 147.272 43.5939V39.3819H148.292ZM147.692 46.1499C147.86 46.1499 148 46.2059 148.112 46.3179C148.232 46.4379 148.292 46.5779 148.292 46.7379C148.292 46.9059 148.232 47.0459 148.112 47.1579C148 47.2779 147.86 47.3379 147.692 47.3379C147.532 47.3379 147.392 47.2779 147.272 47.1579C147.16 47.0459 147.104 46.9059 147.104 46.7379C147.104 46.5779 147.16 46.4379 147.272 46.3179C147.392 46.2059 147.532 46.1499 147.692 46.1499Z" fill="#9594A4"/>
<path d="M182.393 12.95C182.25 12.95 182.1 12.8904 181.995 12.7861C181.778 12.57 181.778 12.2124 181.995 11.9963L184.718 9.29158C184.935 9.0755 185.295 9.0755 185.513 9.29158C185.73 9.50765 185.73 9.8653 185.513 10.0814L182.79 12.7861C182.678 12.8904 182.535 12.95 182.393 12.95Z" fill="#292D32"/>
<path d="M192.607 12.95C192.465 12.95 192.322 12.8978 192.21 12.7861L189.487 10.0814C189.27 9.8653 189.27 9.50765 189.487 9.29158C189.705 9.0755 190.065 9.0755 190.282 9.29158L193.005 11.9963C193.222 12.2124 193.222 12.57 193.005 12.7861C192.9 12.8904 192.75 12.95 192.607 12.95Z" fill="#292D32"/>
<path d="M193.657 16.0943C193.605 16.0943 193.552 16.0943 193.5 16.0943H193.328H181.5C180.975 16.1018 180.375 16.1018 179.94 15.6696C179.595 15.3343 179.438 14.8127 179.438 14.0453C179.438 11.9963 180.945 11.9963 181.665 11.9963H193.335C194.055 11.9963 195.562 11.9963 195.562 14.0453C195.562 14.8202 195.405 15.3343 195.06 15.6696C194.67 16.0571 194.145 16.0943 193.657 16.0943ZM181.665 14.9767H193.507C193.845 14.9841 194.16 14.9841 194.265 14.8798C194.318 14.8277 194.43 14.6488 194.43 14.0453C194.43 13.2033 194.22 13.1139 193.328 13.1139H181.665C180.772 13.1139 180.562 13.2033 180.562 14.0453C180.562 14.6488 180.683 14.8277 180.727 14.8798C180.832 14.9767 181.155 14.9767 181.485 14.9767H181.665Z" fill="#292D32"/>
<path d="M185.82 21.8316C185.513 21.8316 185.258 21.5783 185.258 21.2728V18.6277C185.258 18.3222 185.513 18.0688 185.82 18.0688C186.128 18.0688 186.383 18.3222 186.383 18.6277V21.2728C186.383 21.5857 186.128 21.8316 185.82 21.8316Z" fill="#292D32"/>
<path d="M189.27 21.8316C188.962 21.8316 188.707 21.5783 188.707 21.2728V18.6277C188.707 18.3222 188.962 18.0688 189.27 18.0688C189.577 18.0688 189.832 18.3222 189.832 18.6277V21.2728C189.832 21.5857 189.577 21.8316 189.27 21.8316Z" fill="#292D32"/>
<path d="M189.667 25.1473H185.145C182.46 25.1473 181.86 23.5602 181.627 22.1818L180.57 15.7367C180.517 15.4312 180.727 15.148 181.035 15.0959C181.342 15.0437 181.627 15.2524 181.68 15.5578L182.737 21.9955C182.955 23.3143 183.405 24.0296 185.145 24.0296H189.667C191.595 24.0296 191.812 23.359 192.06 22.0626L193.32 15.5429C193.38 15.2375 193.672 15.0363 193.98 15.1033C194.287 15.1629 194.482 15.4535 194.422 15.759L193.162 22.2786C192.87 23.7912 192.382 25.1473 189.667 25.1473Z" fill="#292D32"/>
</svg>
