<svg width="17" height="16" viewBox="0 0 17 16" fill="none" xmlns="http://www.w3.org/2000/svg">
<path d="M7.91732 14.5C4.15065 14.5 1.08398 11.4333 1.08398 7.66668C1.08398 3.90001 4.15065 0.833344 7.91732 0.833344C11.684 0.833344 14.7507 3.90001 14.7507 7.66668C14.7507 11.4333 11.684 14.5 7.91732 14.5ZM7.91732 1.83334C4.69732 1.83334 2.08398 4.45334 2.08398 7.66668C2.08398 10.88 4.69732 13.5 7.91732 13.5C11.1373 13.5 13.7507 10.88 13.7507 7.66668C13.7507 4.45334 11.1373 1.83334 7.91732 1.83334Z" fill="#292D32"/>
<path d="M14.9176 15.1667C14.7909 15.1667 14.6643 15.12 14.5643 15.02L13.2309 13.6867C13.0376 13.4934 13.0376 13.1734 13.2309 12.98C13.4243 12.7867 13.7443 12.7867 13.9376 12.98L15.2709 14.3134C15.4643 14.5067 15.4643 14.8267 15.2709 15.02C15.1709 15.12 15.0443 15.1667 14.9176 15.1667Z" fill="#292D32"/>
</svg>
