<svg width="12" height="12" viewBox="0 0 12 12" fill="none" xmlns="http://www.w3.org/2000/svg">
<path d="M6 7.875C4.965 7.875 4.125 7.035 4.125 6C4.125 4.965 4.965 4.125 6 4.125C7.035 4.125 7.875 4.965 7.875 6C7.875 7.035 7.035 7.875 6 7.875ZM6 4.875C5.38 4.875 4.875 5.38 4.875 6C4.875 6.62 5.38 7.125 6 7.125C6.62 7.125 7.125 6.62 7.125 6C7.125 5.38 6.62 4.875 6 4.875Z" fill="#99A1B7"/>
<path d="M7.605 11.095C7.5 11.095 7.395 11.08 7.29 11.055C6.98 10.97 6.72 10.775 6.555 10.5L6.495 10.4C6.2 9.89001 5.795 9.89001 5.5 10.4L5.445 10.495C5.28 10.775 5.02 10.975 4.71 11.055C4.395 11.14 4.07 11.095 3.795 10.93L2.935 10.435C2.63 10.26 2.41 9.97501 2.315 9.63001C2.225 9.28501 2.27 8.93001 2.445 8.62501C2.59 8.37001 2.63 8.14001 2.545 7.99501C2.46 7.85001 2.245 7.76501 1.95 7.76501C1.22 7.76501 0.625 7.17001 0.625 6.44001V5.56001C0.625 4.83001 1.22 4.23501 1.95 4.23501C2.245 4.23501 2.46 4.15001 2.545 4.00501C2.63 3.86001 2.595 3.63001 2.445 3.37501C2.27 3.07001 2.225 2.71001 2.315 2.37001C2.405 2.02501 2.625 1.74001 2.935 1.56501L3.8 1.07001C4.365 0.735006 5.11 0.930006 5.45 1.50501L5.51 1.60501C5.805 2.11501 6.21 2.11501 6.505 1.60501L6.56 1.51001C6.9 0.930006 7.645 0.735006 8.215 1.07501L9.075 1.57001C9.38 1.74501 9.6 2.03001 9.695 2.37501C9.785 2.72001 9.74 3.07501 9.565 3.38001C9.42 3.63501 9.38 3.86501 9.465 4.01001C9.55 4.15501 9.765 4.24001 10.06 4.24001C10.79 4.24001 11.385 4.83501 11.385 5.56501V6.44501C11.385 7.17501 10.79 7.77001 10.06 7.77001C9.765 7.77001 9.55 7.85501 9.465 8.00001C9.38 8.14501 9.415 8.37501 9.565 8.63001C9.74 8.93501 9.79 9.29501 9.695 9.63501C9.605 9.98001 9.385 10.265 9.075 10.44L8.21 10.935C8.02 11.04 7.815 11.095 7.605 11.095ZM6 9.24501C6.445 9.24501 6.86 9.52501 7.145 10.02L7.2 10.115C7.26 10.22 7.36 10.295 7.48 10.325C7.6 10.355 7.72 10.34 7.82 10.28L8.685 9.78001C8.815 9.70501 8.915 9.58001 8.955 9.43001C8.995 9.28001 8.975 9.12501 8.9 8.99501C8.615 8.50501 8.58 8.00001 8.8 7.61501C9.02 7.23001 9.475 7.01001 10.045 7.01001C10.365 7.01001 10.62 6.75501 10.62 6.43501V5.55501C10.62 5.24001 10.365 4.98001 10.045 4.98001C9.475 4.98001 9.02 4.76001 8.8 4.37501C8.58 3.99001 8.615 3.48501 8.9 2.99501C8.975 2.86501 8.995 2.71001 8.955 2.56001C8.915 2.41001 8.82 2.29001 8.69 2.21001L7.825 1.71501C7.61 1.58501 7.325 1.66001 7.195 1.88001L7.14 1.97501C6.855 2.47001 6.44 2.75001 5.995 2.75001C5.55 2.75001 5.135 2.47001 4.85 1.97501L4.795 1.87501C4.67 1.66501 4.39 1.59001 4.175 1.71501L3.31 2.21501C3.18 2.29001 3.08 2.41501 3.04 2.56501C3 2.71501 3.02 2.87001 3.095 3.00001C3.38 3.49001 3.415 3.99501 3.195 4.38001C2.975 4.76501 2.52 4.98501 1.95 4.98501C1.63 4.98501 1.375 5.24001 1.375 5.56001V6.44001C1.375 6.75501 1.63 7.01501 1.95 7.01501C2.52 7.01501 2.975 7.23501 3.195 7.62001C3.415 8.00501 3.38 8.51001 3.095 9.00001C3.02 9.13001 3 9.28501 3.04 9.43501C3.08 9.58501 3.175 9.70501 3.305 9.78501L4.17 10.28C4.275 10.345 4.4 10.36 4.515 10.33C4.635 10.3 4.735 10.22 4.8 10.115L4.855 10.02C5.14 9.53001 5.555 9.24501 6 9.24501Z" fill="#99A1B7"/>
</svg>
