<svg width="19" height="19" viewBox="0 0 19 19" fill="none" xmlns="http://www.w3.org/2000/svg">
<path d="M9.5 12.1669C7.9475 12.1669 6.6875 10.9152 6.6875 9.37282C6.6875 7.83047 7.9475 6.5787 9.5 6.5787C11.0525 6.5787 12.3125 7.83047 12.3125 9.37282C12.3125 10.9152 11.0525 12.1669 9.5 12.1669ZM9.5 7.69635C8.57 7.69635 7.8125 8.4489 7.8125 9.37282C7.8125 10.2967 8.57 11.0493 9.5 11.0493C10.43 11.0493 11.1875 10.2967 11.1875 9.37282C11.1875 8.4489 10.43 7.69635 9.5 7.69635Z" fill="#292D32"/>
<path d="M11.9075 16.9654C11.75 16.9654 11.5925 16.943 11.435 16.9058C10.97 16.7791 10.58 16.4885 10.3325 16.0787L10.2425 15.9297C9.8 15.1697 9.1925 15.1697 8.75 15.9297L8.6675 16.0713C8.42 16.4885 8.03 16.7865 7.565 16.9058C7.0925 17.0324 6.605 16.9654 6.1925 16.7195L4.9025 15.9818C4.445 15.7211 4.115 15.2964 3.9725 14.7822C3.8375 14.2681 3.905 13.7391 4.1675 13.2846C4.385 12.9046 4.445 12.5618 4.3175 12.3458C4.19 12.1297 3.8675 12.003 3.425 12.003C2.33 12.003 1.4375 11.1164 1.4375 10.0285V8.71713C1.4375 7.62929 2.33 6.74263 3.425 6.74263C3.8675 6.74263 4.19 6.61596 4.3175 6.39988C4.445 6.1838 4.3925 5.84106 4.1675 5.46106C3.905 5.00655 3.8375 4.47008 3.9725 3.96341C4.1075 3.44929 4.4375 3.02459 4.9025 2.7638L6.2 2.02615C7.0475 1.52694 8.165 1.81753 8.675 2.67439L8.765 2.82341C9.2075 3.58341 9.815 3.58341 10.2575 2.82341L10.34 2.68184C10.85 1.81753 11.9675 1.52694 12.8225 2.03361L14.1125 2.77125C14.57 3.03204 14.9 3.45674 15.0425 3.97086C15.1775 4.48498 15.11 5.014 14.8475 5.46851C14.63 5.84851 14.57 6.19125 14.6975 6.40733C14.825 6.62341 15.1475 6.75008 15.59 6.75008C16.685 6.75008 17.5775 7.63674 17.5775 8.72459V10.036C17.5775 11.1238 16.685 12.0105 15.59 12.0105C15.1475 12.0105 14.825 12.1371 14.6975 12.3532C14.57 12.5693 14.6225 12.912 14.8475 13.292C15.11 13.7465 15.185 14.283 15.0425 14.7897C14.9075 15.3038 14.5775 15.7285 14.1125 15.9893L12.815 16.7269C12.53 16.8834 12.2225 16.9654 11.9075 16.9654ZM9.5 14.2085C10.1675 14.2085 10.79 14.6258 11.2175 15.3634L11.3 15.505C11.39 15.6614 11.54 15.7732 11.72 15.8179C11.9 15.8626 12.08 15.8403 12.23 15.7509L13.5275 15.0058C13.7225 14.894 13.8725 14.7077 13.9325 14.4842C13.9925 14.2607 13.9625 14.0297 13.85 13.836C13.4225 13.1058 13.37 12.3532 13.7 11.7795C14.03 11.2058 14.7125 10.8779 15.5675 10.8779C16.0475 10.8779 16.43 10.4979 16.43 10.0211V8.70968C16.43 8.24027 16.0475 7.85282 15.5675 7.85282C14.7125 7.85282 14.03 7.52498 13.7 6.95125C13.37 6.37753 13.4225 5.62498 13.85 4.89478C13.9625 4.70106 13.9925 4.47008 13.9325 4.24655C13.8725 4.02302 13.73 3.84419 13.535 3.72498L12.2375 2.98733C11.915 2.79361 11.4875 2.90537 11.2925 3.23321L11.21 3.37478C10.7825 4.11243 10.16 4.52968 9.4925 4.52968C8.825 4.52968 8.2025 4.11243 7.775 3.37478L7.6925 3.22576C7.505 2.91282 7.085 2.80106 6.7625 2.98733L5.465 3.73243C5.27 3.84419 5.12 4.03047 5.06 4.254C5 4.47753 5.03 4.70851 5.1425 4.90223C5.57 5.63243 5.6225 6.38498 5.2925 6.9587C4.9625 7.53243 4.28 7.86027 3.425 7.86027C2.945 7.86027 2.5625 8.24027 2.5625 8.71713V10.0285C2.5625 10.4979 2.945 10.8854 3.425 10.8854C4.28 10.8854 4.9625 11.2132 5.2925 11.7869C5.6225 12.3607 5.57 13.1132 5.1425 13.8434C5.03 14.0371 5 14.2681 5.06 14.4916C5.12 14.7152 5.2625 14.894 5.4575 15.0132L6.755 15.7509C6.9125 15.8477 7.1 15.8701 7.2725 15.8254C7.4525 15.7807 7.6025 15.6614 7.7 15.505L7.7825 15.3634C8.21 14.6332 8.8325 14.2085 9.5 14.2085Z" fill="#292D32"/>
</svg>
