<svg width="21" height="20" viewBox="0 0 21 20" fill="none" xmlns="http://www.w3.org/2000/svg">
<path d="M17.5035 7.68336C15.9386 7.68336 15.2988 6.6167 16.0769 5.30836C16.5265 4.55003 16.2585 3.58336 15.4717 3.15003L13.976 2.32503C13.2929 1.93336 12.4111 2.1667 12.0047 2.82503L11.9096 2.98336C11.1315 4.2917 9.85189 4.2917 9.06512 2.98336L8.97001 2.82503C8.58095 2.1667 7.69908 1.93336 7.01605 2.32503L5.52033 3.15003C4.73355 3.58336 4.46553 4.55836 4.91512 5.3167C5.70189 6.6167 5.0621 7.68336 3.4972 7.68336C2.59803 7.68336 1.85449 8.3917 1.85449 9.2667V10.7334C1.85449 11.6 2.58939 12.3167 3.4972 12.3167C5.0621 12.3167 5.70189 13.3834 4.91512 14.6917C4.46553 15.45 4.73355 16.4167 5.52033 16.85L7.01605 17.675C7.69908 18.0667 8.58095 17.8334 8.98731 17.175L9.08241 17.0167C9.86053 15.7084 11.1401 15.7084 11.9269 17.0167L12.022 17.175C12.4283 17.8334 13.3102 18.0667 13.9932 17.675L15.489 16.85C16.2757 16.4167 16.5438 15.4417 16.0942 14.6917C15.3074 13.3834 15.9472 12.3167 17.5121 12.3167C18.4113 12.3167 19.1548 11.6084 19.1548 10.7334V9.2667C19.1462 8.40003 18.4113 7.68336 17.5035 7.68336ZM10.5003 12.7084C8.95272 12.7084 7.69043 11.4917 7.69043 10C7.69043 8.50836 8.95272 7.2917 10.5003 7.2917C12.0479 7.2917 13.3102 8.50836 13.3102 10C13.3102 11.4917 12.0479 12.7084 10.5003 12.7084Z" fill="white"/>
</svg>
