<svg width="194" height="64" viewBox="0 0 194 64" fill="none" xmlns="http://www.w3.org/2000/svg">
<rect width="194" height="64" rx="12.9333" transform="matrix(-1 0 0 1 194 0)" fill="#FAFAFA" fill-opacity="0.980392"/>
<rect x="-0.25" y="0.25" width="193.5" height="63.5" rx="12.6833" transform="matrix(-1 0 0 1 193.5 0)" stroke="#E6E7EC" stroke-opacity="0.8" stroke-width="0.5"/>
<g clip-path="url(#clip0_5_9063)">
<path d="M160.063 38.3954H152.926L170.604 20.7905H177.74L160.063 38.3954Z" fill="#7476ED"/>
<path d="M166.938 20.7905L149.897 37.7613V20.7905H154.508V26.1485L159.888 20.7905L166.938 20.7905Z" fill="#E56F8C"/>
<path d="M180.728 21.3795V38.395H176.116V33.037L170.736 38.395H163.642L180.728 21.3795Z" fill="#64C2DB"/>
<path d="M46.707 35.7481H50.839V38.1729H43.5527V25.277H46.707V35.7481Z" fill="#3A3B7B"/>
<path d="M56.4756 38.3197C55.4672 38.3197 54.5571 38.1054 53.7455 37.6767C52.9462 37.2481 52.3129 36.6357 51.8455 35.8397C51.3906 35.0436 51.1631 34.1129 51.1631 33.0473C51.1631 31.9942 51.3967 31.0695 51.864 30.2735C52.3314 29.4651 52.9708 28.8467 53.7824 28.418C54.5941 27.9894 55.5041 27.7751 56.5125 27.7751C57.5209 27.7751 58.4309 27.9894 59.2426 28.418C60.0542 28.8467 60.6936 29.4651 61.1609 30.2735C61.6283 31.0695 61.8619 31.9942 61.8619 33.0473C61.8619 34.1006 61.6221 35.0313 61.1425 35.8397C60.6752 36.6357 60.0295 37.2481 59.2056 37.6767C58.394 38.1054 57.4839 38.3197 56.4756 38.3197ZM56.4756 35.6009C57.0782 35.6009 57.5885 35.3804 58.0066 34.9395C58.437 34.4986 58.6522 33.868 58.6522 33.0473C58.6522 32.2268 58.4432 31.5961 58.0251 31.1553C57.6193 30.7144 57.115 30.4939 56.5125 30.4939C55.8976 30.4939 55.3872 30.7144 54.9815 31.1553C54.5756 31.5839 54.3727 32.2146 54.3727 33.0473C54.3727 33.868 54.5695 34.4986 54.963 34.9395C55.3688 35.3804 55.873 35.6009 56.4756 35.6009Z" fill="#3A3B7B"/>
<path d="M66.8923 27.7751C67.6178 27.7751 68.2512 27.922 68.7923 28.216C69.3457 28.5099 69.7699 28.8957 70.0651 29.3733V27.922H73.2194V38.1544C73.2194 39.0974 73.0287 39.9485 72.6475 40.7078C72.2786 41.4793 71.7068 42.0917 70.932 42.5449C70.1696 42.998 69.2165 43.2246 68.0729 43.2246C66.5479 43.2246 65.3121 42.8633 64.3652 42.1407C63.4182 41.4304 62.8772 40.4629 62.7419 39.2382H65.8593C65.9577 39.6301 66.1913 39.9362 66.5602 40.1567C66.9292 40.3894 67.3842 40.5057 67.9253 40.5057C68.5771 40.5057 69.0935 40.316 69.4748 39.9362C69.8683 39.5689 70.0651 38.9749 70.0651 38.1544V36.7031C69.7576 37.1807 69.3333 37.5726 68.7923 37.8788C68.2512 38.1727 67.6178 38.3197 66.8923 38.3197C66.0438 38.3197 65.2751 38.1054 64.5865 37.6767C63.8978 37.2358 63.3506 36.6174 62.9448 35.8213C62.5513 35.013 62.3545 34.0823 62.3545 33.029C62.3545 31.9758 62.5513 31.0512 62.9448 30.2551C63.3506 29.4591 63.8978 28.8467 64.5865 28.418C65.2751 27.9894 66.0438 27.7751 66.8923 27.7751ZM70.0651 33.0473C70.0651 32.2636 69.8437 31.6451 69.401 31.192C68.9706 30.7388 68.4418 30.5122 67.8147 30.5122C67.1874 30.5122 66.6525 30.7388 66.2098 31.192C65.7793 31.6329 65.5641 32.2452 65.5641 33.029C65.5641 33.8129 65.7793 34.4374 66.2098 34.9028C66.6525 35.356 67.1874 35.5825 67.8147 35.5825C68.4418 35.5825 68.9706 35.356 69.401 34.9028C69.8437 34.4497 70.0651 33.8312 70.0651 33.0473Z" fill="#3A3B7B"/>
<path d="M79.6338 38.3197C78.6254 38.3197 77.7154 38.1054 76.9037 37.6767C76.1044 37.2481 75.4711 36.6357 75.0038 35.8397C74.5488 35.0436 74.3213 34.1129 74.3213 33.0473C74.3213 31.9942 74.555 31.0695 75.0222 30.2735C75.4896 29.4651 76.129 28.8467 76.9407 28.418C77.7523 27.9894 78.6624 27.7751 79.6707 27.7751C80.6791 27.7751 81.5892 27.9894 82.4008 28.418C83.2124 28.8467 83.8519 29.4651 84.3191 30.2735C84.7865 31.0695 85.0202 31.9942 85.0202 33.0473C85.0202 34.1006 84.7803 35.0313 84.3008 35.8397C83.8334 36.6357 83.1878 37.2481 82.3639 37.6767C81.5522 38.1054 80.6422 38.3197 79.6338 38.3197ZM79.6338 35.6009C80.2364 35.6009 80.7468 35.3804 81.1648 34.9395C81.5953 34.4986 81.8105 33.868 81.8105 33.0473C81.8105 32.2268 81.6015 31.5961 81.1833 31.1553C80.7775 30.7144 80.2733 30.4939 79.6707 30.4939C79.0559 30.4939 78.5455 30.7144 78.1397 31.1553C77.7338 31.5839 77.5309 32.2146 77.5309 33.0473C77.5309 33.868 77.7278 34.4986 78.1212 34.9395C78.527 35.3804 79.0312 35.6009 79.6338 35.6009Z" fill="#3A3B7B"/>
<path d="M87.7262 26.8572C87.1729 26.8572 86.7178 26.698 86.3612 26.3796C86.0169 26.0489 85.8447 25.6448 85.8447 25.1671C85.8447 24.6772 86.0169 24.2731 86.3612 23.9547C86.7178 23.624 87.1729 23.4587 87.7262 23.4587C88.2673 23.4587 88.71 23.624 89.0544 23.9547C89.411 24.2731 89.5893 24.6772 89.5893 25.1671C89.5893 25.6448 89.411 26.0489 89.0544 26.3796C88.71 26.698 88.2673 26.8572 87.7262 26.8572ZM89.2941 27.9227V38.1733H86.1398V27.9227H89.2941Z" fill="#3A3B7B"/>
<path d="M94.1805 29.3733C94.4884 28.8957 94.9124 28.5099 95.4533 28.216C95.9942 27.922 96.6279 27.7751 97.3536 27.7751C98.2024 27.7751 98.9709 27.9894 99.659 28.418C100.348 28.8467 100.889 29.4591 101.283 30.2551C101.689 31.0512 101.891 31.9758 101.891 33.029C101.891 34.0823 101.689 35.013 101.283 35.8213C100.889 36.6174 100.348 37.2358 99.659 37.6767C98.9709 38.1054 98.2024 38.3197 97.3536 38.3197C96.6404 38.3197 96.0067 38.1727 95.4533 37.8788C94.9124 37.5849 94.4884 37.2052 94.1805 36.7398V43.0593H91.0264V27.922H94.1805V29.3733ZM98.6817 33.029C98.6817 32.2452 98.4603 31.6329 98.0176 31.192C97.5874 30.7388 97.0519 30.5122 96.4128 30.5122C95.7853 30.5122 95.2507 30.7388 94.808 31.192C94.3778 31.6451 94.1627 32.2636 94.1627 33.0473C94.1627 33.8312 94.3778 34.4497 94.808 34.9028C95.2507 35.356 95.7853 35.5825 96.4128 35.5825C97.0403 35.5825 97.5749 35.356 98.0176 34.9028C98.4603 34.4374 98.6817 33.8129 98.6817 33.029Z" fill="#3A3B7B"/>
<path d="M107.18 38.3197C106.282 38.3197 105.483 38.1666 104.782 37.8604C104.081 37.5543 103.527 37.1378 103.122 36.6113C102.716 36.0724 102.489 35.4722 102.439 34.8109H105.557C105.594 35.1661 105.76 35.4539 106.055 35.6744C106.35 35.8948 106.713 36.005 107.143 36.005C107.537 36.005 107.838 35.9315 108.047 35.7846C108.269 35.6254 108.379 35.4233 108.379 35.1784C108.379 34.8844 108.225 34.6701 107.918 34.5353C107.61 34.3884 107.112 34.2292 106.424 34.0577C105.686 33.8863 105.071 33.7087 104.579 33.525C104.087 33.329 103.663 33.029 103.306 32.6249C102.95 32.2085 102.771 31.6513 102.771 30.9531C102.771 30.3653 102.931 29.8326 103.251 29.3549C103.583 28.8651 104.063 28.4793 104.69 28.1976C105.33 27.9159 106.086 27.7751 106.958 27.7751C108.25 27.7751 109.265 28.0935 110.002 28.7303C110.753 29.3672 111.183 30.2122 111.294 31.2655H108.379C108.329 30.9103 108.17 30.6286 107.899 30.4204C107.641 30.2122 107.297 30.1081 106.867 30.1081C106.498 30.1081 106.215 30.1816 106.018 30.3286C105.821 30.4633 105.723 30.6531 105.723 30.898C105.723 31.192 105.877 31.4124 106.184 31.5593C106.503 31.7064 106.996 31.8533 107.66 32.0002C108.422 32.1962 109.044 32.3921 109.523 32.5881C110.002 32.7718 110.421 33.078 110.777 33.5066C111.146 33.9231 111.337 34.4864 111.349 35.1967C111.349 35.7969 111.177 36.3357 110.832 36.8133C110.5 37.2787 110.015 37.6461 109.376 37.9155C108.748 38.1849 108.016 38.3197 107.18 38.3197Z" fill="#3A3B7B"/>
<path d="M122.889 27.9222V38.1729H119.735V36.7768C119.415 37.2299 118.979 37.5973 118.426 37.879C117.885 38.1484 117.282 38.2831 116.618 38.2831C115.831 38.2831 115.136 38.1117 114.533 37.7688C113.931 37.4136 113.464 36.9053 113.132 36.244C112.8 35.5827 112.634 34.805 112.634 33.911V27.9222H115.769V33.4884C115.769 34.1743 115.948 34.707 116.304 35.0866C116.661 35.4664 117.14 35.6562 117.743 35.6562C118.358 35.6562 118.843 35.4664 119.2 35.0866C119.557 34.707 119.735 34.1743 119.735 33.4884V27.9222H122.889Z" fill="#3A3B7B"/>
<path d="M137.735 27.8125C139.014 27.8125 140.029 28.1983 140.778 28.9698C141.541 29.7414 141.923 30.813 141.923 32.1846V38.1734H138.786V32.6071C138.786 31.9458 138.609 31.4376 138.252 31.0824C137.907 30.715 137.428 30.5313 136.813 30.5313C136.198 30.5313 135.712 30.715 135.355 31.0824C135.012 31.4376 134.839 31.9458 134.839 32.6071V38.1734H131.703V32.6071C131.703 31.9458 131.525 31.4376 131.168 31.0824C130.824 30.715 130.344 30.5313 129.729 30.5313C129.114 30.5313 128.629 30.715 128.272 31.0824C127.928 31.4376 127.756 31.9458 127.756 32.6071V38.1734H124.602V27.9227H127.756V29.2086C128.075 28.78 128.493 28.4432 129.01 28.1983C129.527 27.9411 130.11 27.8125 130.762 27.8125C131.537 27.8125 132.226 27.9778 132.828 28.3085C133.443 28.6392 133.923 29.1107 134.267 29.723C134.624 29.1597 135.11 28.7004 135.725 28.3452C136.34 27.9901 137.01 27.8125 137.735 27.8125Z" fill="#3A3B7B"/>
</g>
<path d="M26.667 30.3867L24.9536 30.8133L22.8136 28.1467C22.7199 28.0299 22.6012 27.9356 22.4662 27.8709C22.3312 27.8061 22.1834 27.7725 22.0336 27.7725C21.8839 27.7725 21.7361 27.8061 21.6011 27.8709C21.4661 27.9356 21.3473 28.0299 21.2536 28.1467L19.1136 30.8133L17.367 30.3867C17.1996 30.3466 17.0247 30.3501 16.8591 30.3969C16.6934 30.4437 16.5425 30.5322 16.4208 30.6539C16.2991 30.7756 16.2106 30.9265 16.1639 31.0921C16.1171 31.2578 16.1136 31.4326 16.1536 31.6L17.3336 35.7467C17.374 35.8909 17.4616 36.0173 17.5826 36.1056C17.7035 36.1939 17.8507 36.2389 18.0003 36.2333H26.0003C26.1499 36.2389 26.2971 36.1939 26.418 36.1056C26.5389 36.0173 26.6266 35.8909 26.667 35.7467L27.8536 31.6C27.8919 31.4353 27.8881 31.2636 27.8425 31.1007C27.7969 30.9378 27.7111 30.7891 27.5928 30.6681C27.4746 30.5472 27.3277 30.4581 27.1659 30.4089C27.0041 30.3597 26.8325 30.352 26.667 30.3867Z" fill="#EFA83C"/>
<path d="M15.8333 29.6667C16.2936 29.6667 16.6667 29.2936 16.6667 28.8333C16.6667 28.3731 16.2936 28 15.8333 28C15.3731 28 15 28.3731 15 28.8333C15 29.2936 15.3731 29.6667 15.8333 29.6667Z" fill="#EFA83C"/>
<path d="M28.1663 29.6667C28.6266 29.6667 28.9997 29.2936 28.9997 28.8333C28.9997 28.3731 28.6266 28 28.1663 28C27.7061 28 27.333 28.3731 27.333 28.8333C27.333 29.2936 27.7061 29.6667 28.1663 29.6667Z" fill="#EFA83C"/>
<path d="M22.0003 26.8334C22.4606 26.8334 22.8337 26.4603 22.8337 26C22.8337 25.5398 22.4606 25.1667 22.0003 25.1667C21.5401 25.1667 21.167 25.5398 21.167 26C21.167 26.4603 21.5401 26.8334 22.0003 26.8334Z" fill="#EFA83C"/>
<path d="M25.9997 38.6667H17.9997C17.8229 38.6667 17.6533 38.5965 17.5283 38.4714C17.4032 38.3464 17.333 38.1769 17.333 38C17.333 37.8232 17.4032 37.6537 17.5283 37.5286C17.6533 37.4036 17.8229 37.3334 17.9997 37.3334H25.9997C26.1765 37.3334 26.3461 37.4036 26.4711 37.5286C26.5961 37.6537 26.6663 37.8232 26.6663 38C26.6663 38.1769 26.5961 38.3464 26.4711 38.4714C26.3461 38.5965 26.1765 38.6667 25.9997 38.6667Z" fill="#EFA83C"/>
<defs>
<clipPath id="clip0_5_9063">
<rect width="137.455" height="24" fill="white" transform="matrix(-1 0 0 1 180.728 20)"/>
</clipPath>
</defs>
</svg>
